<svg width="68" height="68" viewBox="0 0 68 68" fill="none" xmlns="http://www.w3.org/2000/svg">
<circle cx="34" cy="34" r="34" fill="#EBEBE2"/>
<circle cx="34" cy="34" r="33.5" stroke="black" stroke-opacity="0.09"/>
<path d="M30.7572 26.4656C30.5803 26.3219 30.4074 25.975 30.3121 25.7575C30.0304 25.1036 29.9 24.3946 29.9306 23.6834C29.9634 22.8898 30.2146 21.8021 30.4683 21.0371C31.8566 16.8516 32.2736 11.7789 38.1727 14.1484C38.778 14.3621 40.2347 14.702 40.6963 14.9489C43.2292 16.3036 48.3927 17.0676 47.9284 20.9174C47.9775 21.8728 46.6487 25.8776 46.2229 26.7622C46.0204 27.1832 45.7592 27.5733 45.447 27.9209C44.4142 29.069 43.1656 28.9278 41.9835 29.3139C42.5123 29.6529 43.2924 30.0048 43.8706 30.2863C45.6266 31.141 47.3384 32.0985 49.0775 32.9781C49.0258 31.9371 49.0376 29.8519 49.1321 28.8154C49.6084 27.5296 50.9769 26.9901 52.2185 27.4759C52.7116 27.6692 53.1062 28.0528 53.3132 28.5403C53.8032 29.6691 53.4599 33.6618 53.5665 35.1884C54.985 35.9578 56.193 36.3854 56.6808 38.0122C56.9189 38.8063 56.8101 39.2225 56.9205 39.691C57.4791 39.9785 58.3676 40.3813 58.5811 41.0115C58.6572 41.2306 58.6404 41.4713 58.5346 41.6777C58.2864 42.1704 57.4552 42.6528 56.9579 42.8757C56.8316 43.2859 56.7857 43.5734 56.6317 43.9864C56.043 45.5653 54.3284 46.2296 52.8791 46.9963L52.0742 47.4221L52.1471 47.5676C52.5726 48.0406 53.2389 48.7333 53.1918 49.4192C53.1705 49.7296 52.9598 49.9089 52.7342 50.0972C51.7272 50.9378 44.3856 54.6104 43.1162 54.9259C41.8116 55.1201 40.336 54.5869 39.1843 54.0136L39.0546 54.0234C38.1579 54.4707 37.2999 54.8671 36.3066 55.0708C34.911 55.5238 32.6096 55.3569 31.2111 54.9431C30.3873 54.6994 29.5606 54.2837 28.7636 53.9514C28.041 54.2442 27.0539 54.6744 26.3031 54.8003C25.7047 54.9271 25.0832 54.8908 24.5034 54.6955C23.9638 54.5115 23.3645 54.2533 22.8549 53.9885C20.3391 52.6815 17.7022 51.5344 15.287 50.052C15.0761 49.9226 14.9662 49.767 14.8594 49.5501C14.7658 49.0712 14.8552 48.9677 15.0693 48.5254C15.2584 48.2309 15.6307 47.7983 15.8725 47.5444L15.9269 47.4217C15.6084 47.325 15.1134 47.0264 14.8077 46.8664C13.5709 46.2194 12.2255 45.5344 11.4839 44.2939C11.2805 43.9536 11.2488 43.4224 11.0504 43.0581C10.3966 42.7083 9.80206 42.4253 9.37706 41.7979C9.04093 40.7686 10.3753 40.2034 11.098 39.8391C11.2114 39.272 11.1046 38.7149 11.3174 37.9066C11.5766 37.2668 11.8742 36.8694 12.3975 36.4151C12.8816 35.9331 13.8007 35.4559 14.4227 35.1784C14.474 34.7841 14.4362 34.0881 14.4509 33.6705C14.504 32.1578 14.3099 30.1352 14.5583 28.6868C15.3412 26.8063 18.0498 26.9166 18.7516 28.5787C19.0281 29.2338 18.9876 32.0676 18.8834 32.8571C19.3096 32.6854 20.164 32.2043 20.5939 31.9759C21.6683 31.3989 22.7477 30.8313 23.832 30.2733C24.2004 30.0602 24.6445 29.839 25.0256 29.6445C26.9379 28.6686 28.8707 27.4462 30.9213 26.7984L30.7572 26.4656Z" fill="#ADABAD"/>
<path d="M30.7573 26.4656C30.5803 26.3219 30.4074 25.975 30.3121 25.7575C30.0305 25.1036 29.9 24.3946 29.9306 23.6834C29.9635 22.8898 30.2146 21.8021 30.4683 21.0371C31.8566 16.8516 32.2736 11.7789 38.1728 14.1484C38.778 14.3621 40.2347 14.702 40.6963 14.9489C43.2293 16.3036 48.3928 17.0676 47.9284 20.9174C47.9775 21.8728 46.6487 25.8776 46.223 26.7622C46.0205 27.1832 45.7592 27.5733 45.447 27.9209C44.4143 29.069 43.1656 28.9278 41.9835 29.3139C41.3563 29.3808 40.0398 29.5488 39.452 29.7599C38.773 29.9172 36.8475 29.9276 36.3866 29.3669C36.5388 29.0849 36.687 28.8114 36.828 28.523L36.8012 28.3991L36.9329 28.1991C36.772 28.0377 36.5557 28.1188 36.4685 27.9649C35.7631 26.7198 34.8966 26.4337 33.7275 25.7583C33.3716 25.5527 33.1346 25.0781 32.6033 24.8383C32.5505 24.9854 32.5173 25.1603 32.4143 25.2464L32.3418 25.0046L32.3071 25.0319C32.2455 25.1335 32.1478 25.2838 32.1008 25.3873C31.8887 26.0914 31.5523 26.5765 30.7573 26.4656Z" fill="#CCB065"/>
<path d="M37.792 20.5327C38.4584 20.6227 40.3312 21.1027 40.8017 21.5149L40.8517 21.6172C40.5949 22.4317 40.3435 23.2478 40.0975 24.0655C39.911 24.6972 39.6059 25.833 39.3033 26.389L38.9432 26.5249C38.7888 26.8798 38.4977 26.9911 38.3133 27.2687C37.6228 27.5755 37.2946 27.9519 36.828 28.5228L36.8012 28.3989L36.9329 28.199C36.772 28.0375 36.5557 28.1186 36.4685 27.9647C35.7632 26.7197 34.8966 26.4335 33.7275 25.7582C33.3716 25.5525 33.1346 25.0779 32.6033 24.8381C32.5505 24.9852 32.5174 25.1602 32.4144 25.2462L32.3418 25.0044L32.4017 24.8856C33.0532 23.5965 33.3309 23.0501 34.3914 22.0924L34.8545 21.7133C35.5897 21.0053 36.7652 20.5555 37.792 20.5327Z" fill="#60BFC2"/>
<path d="M37.7919 20.5327C38.4583 20.6227 40.3312 21.1027 40.8016 21.5149L40.8516 21.6172C40.5949 22.4317 40.3435 23.2478 40.0975 24.0655C39.9109 24.6972 39.6059 25.833 39.3032 26.389L38.9432 26.5249C39.6616 24.9262 39.0881 23.8006 37.6656 22.9233C36.7442 22.3552 35.9304 21.8763 34.8545 21.7133C35.5897 21.0053 36.7651 20.5555 37.7919 20.5327Z" fill="#306960"/>
<path d="M38.5611 25.9814C38.7085 26.0265 38.656 25.9983 38.763 26.1284C38.6954 26.4724 38.0275 26.9336 37.7237 27.17C37.5466 27.1128 37.6096 27.1546 37.488 27.0057C37.4753 26.5259 38.1878 26.1636 38.5611 25.9814Z" fill="#81CFD8"/>
<path d="M38.1726 14.1482C38.7778 14.3619 40.2345 14.7018 40.6962 14.9487C43.2291 16.3034 48.3926 17.0674 47.9282 20.9173C47.6782 20.2438 48.0863 19.9476 47.0698 20.1429C46.0715 20.3349 44.5242 20.2115 43.5337 20.0265C43.2043 20.2067 43.4546 20.4033 43.1502 20.548C42.6799 20.2944 42.764 18.8134 42.6005 18.2288C42.1804 16.7271 41.2691 16.3518 40.0248 15.6406L40.2006 15.5982C40.1214 15.4446 38.5869 14.7789 38.3684 14.5207C38.2893 14.4272 38.1933 14.3205 38.1157 14.2221L38.1726 14.1482Z" fill="#DECA85"/>
<path d="M34.3916 22.0925C34.3902 22.0447 34.3916 22.0315 34.3965 21.9849C34.5036 20.9297 34.5144 19.8551 34.4955 18.7951C34.482 18.0369 34.2505 16.2505 34.8987 15.7014C35.4187 15.796 36.2044 15.8416 36.6015 16.0795C36.868 16.4429 38.0314 16.7399 38.442 17.0749C38.4082 17.3624 38.0227 17.4696 37.841 17.9193C37.5361 18.6741 37.1487 19.6874 36.9691 20.4714C37.1796 20.4837 37.6008 20.4966 37.7922 20.5329C36.7654 20.5557 35.59 21.0055 34.8548 21.7135L34.3916 22.0925Z" fill="#8D6520"/>
<path d="M36.6011 16.0793C37.295 16.3262 37.9971 16.6807 38.6728 16.9301C40.9314 17.7637 42.0076 18.5823 41.0519 21.1551C40.9924 21.3122 40.9256 21.4665 40.8515 21.6172L40.8015 21.5149C40.3311 21.1027 38.4582 20.6227 37.7918 20.5327C37.6004 20.4965 37.1791 20.4836 36.9686 20.4712C37.1483 19.6872 37.5357 18.674 37.8406 17.9192C38.0223 17.4695 38.4078 17.3623 38.4416 17.0748C38.0309 16.7398 36.8676 16.4427 36.6011 16.0793Z" fill="#986724"/>
<path d="M32.1005 25.3873C31.5548 25.0456 31.1848 23.5805 31.6101 23.1504C31.718 23.6518 32.1624 23.5079 32.3681 24.1283L32.3828 24.1743L32.4287 23.8697C32.5085 24.2219 32.446 24.5281 32.4013 24.8857L32.3415 25.0045L32.3068 25.0318C32.2451 25.1335 32.1475 25.2837 32.1005 25.3873Z" fill="#DECA85"/>
<path d="M38.9429 26.5251L39.303 26.3892C39.0526 26.8374 38.843 27.16 38.313 27.2688C38.4974 26.9913 38.7885 26.88 38.9429 26.5251Z" fill="#06321F"/>
<path d="M11.098 39.839C11.2114 39.2719 11.1046 38.7147 11.3174 37.9065C11.4296 38.6179 12.28 39.8769 12.8667 40.2941C13.7267 41.1061 15.711 41.7576 16.7691 42.4134C17.3421 42.7686 19.9702 44.2012 20.5457 44.0414C22.3859 45.1348 24.3736 46.0249 26.2534 47.0531C27.4748 47.7061 28.6905 48.3701 29.9067 49.0327C30.1409 49.1604 30.3863 49.3054 30.632 49.4089C31.6051 49.8186 32.6662 49.9125 33.6989 50.0736C33.8124 50.0912 33.9327 50.2332 34.0224 50.2982C35.1792 51.2066 35.5088 52.4256 35.8666 53.7816C35.9918 54.2293 36.1786 54.6429 36.3066 55.0707C34.911 55.5236 32.6096 55.3567 31.2111 54.943C30.3873 54.6992 29.5606 54.2836 28.7636 53.9513C28.041 54.2441 27.0539 54.6742 26.3031 54.8002C25.7047 54.9269 25.0832 54.8907 24.5034 54.6954C23.9638 54.5114 23.3645 54.2531 22.8549 53.9884C20.3391 52.6814 17.7022 51.5342 15.287 50.0519C15.0761 49.9224 14.9662 49.7669 14.8594 49.5499C14.7658 49.0711 14.8552 48.9676 15.0693 48.5252C15.2584 48.2308 15.6307 47.7982 15.8725 47.5443L15.9269 47.4216C15.6084 47.3249 15.1134 47.0263 14.8077 46.8663C13.5709 46.2193 12.2255 45.5343 11.4839 44.2937C11.2805 43.9534 11.2488 43.4223 11.0504 43.058C10.3966 42.7081 9.80206 42.4251 9.37706 41.7978C9.04093 40.7685 10.3753 40.2033 11.098 39.839Z" fill="#68676B"/>
<path d="M15.9272 47.4216C16.2742 47.4635 27.3735 53.1235 28.2475 53.6408C28.5425 53.7587 28.6387 53.9003 28.7638 53.9514C28.0413 54.2441 27.0542 54.6743 26.3034 54.8003C25.705 54.927 25.0835 54.8908 24.5037 54.6954C23.9641 54.5114 23.3648 54.2532 22.8552 53.9884C20.3394 52.6814 17.7025 51.5343 15.2873 50.0519C15.0763 49.9225 14.9665 49.7669 14.8597 49.55C14.7661 49.0711 14.8555 48.9676 15.0696 48.5253C15.2587 48.2309 15.631 47.7983 15.8728 47.5444L15.9272 47.4216Z" fill="#625796"/>
<path d="M15.0696 48.5254C15.805 48.9686 16.6587 49.2697 17.4411 49.669C20.2658 51.1103 23.1227 52.5205 25.9425 53.967C26.0715 54.0332 26.2377 54.1669 26.2988 54.3003C26.178 54.489 26.1591 54.4503 25.9152 54.5583C26.0462 54.6364 26.1757 54.7171 26.3034 54.8003C25.705 54.9271 25.0835 54.8908 24.5037 54.6955C23.9641 54.5115 23.3648 54.2533 22.8552 53.9885C20.3394 52.6815 17.7025 51.5344 15.2873 50.052C15.0763 49.9226 14.9665 49.767 14.8597 49.5501C14.7661 49.0712 14.8555 48.9677 15.0696 48.5254Z" fill="#A090CB"/>
<path d="M14.8594 49.55C15.0468 49.6992 16.3301 50.2737 16.6882 50.4557C18.5356 51.412 20.3921 52.3507 22.2572 53.2719C23.0359 53.6559 23.8682 54.0859 24.6667 54.4235C24.9511 54.5437 25.5764 54.5454 25.9149 54.5582C26.0459 54.6364 26.1753 54.7171 26.3031 54.8003C25.7046 54.9271 25.0831 54.8908 24.5034 54.6955C23.9637 54.5115 23.3644 54.2532 22.8549 53.9885C20.3391 52.6815 17.7022 51.5344 15.2869 50.052C15.076 49.9225 14.9662 49.767 14.8594 49.55Z" fill="#8172BE"/>
<path d="M15.9269 47.4216C16.274 47.4635 27.3733 53.1235 28.2473 53.6408C27.4799 53.5817 16.411 48.149 15.8726 47.5444L15.9269 47.4216Z" fill="#3D3677"/>
<path d="M9.37706 41.7979C9.04093 40.7686 10.3753 40.2034 11.098 39.8391C11.1061 40.0239 11.1192 40.2257 11.1184 40.4089C11.1037 40.861 11.1282 42.8316 11.0504 43.0581C10.3966 42.7082 9.80206 42.4252 9.37706 41.7979Z" fill="#9B676C"/>
<path d="M9.37706 41.7979C9.04093 40.7686 10.3753 40.2034 11.098 39.8391C11.1061 40.0239 11.1192 40.2257 11.1184 40.4089C10.9027 41.0336 9.79 41.2707 9.37706 41.7979Z" fill="#B78D95"/>
<path d="M32.6033 24.8381C33.1346 25.0779 33.3716 25.5526 33.7275 25.7582C34.8966 26.4336 35.7632 26.7197 36.4685 27.9648C36.5557 28.1186 36.772 28.0376 36.9329 28.199L36.8012 28.3989L36.828 28.5229C36.687 28.8113 36.5388 29.0848 36.3866 29.3668C35.7247 30.6448 35.4599 31.6544 35.3448 33.0724C35.3293 32.9093 35.3517 32.8576 35.2632 32.7411C35.0522 33.416 35.3314 35.8764 35.2067 36.1883L35.1058 36.1754C34.9303 35.9431 34.9762 35.239 34.9791 34.9231L34.9363 34.9427C34.8878 35.0786 34.6253 36.1504 34.6163 36.2815C33.4659 36.0838 32.6987 36.3786 31.9947 37.3143L31.9682 37.4795C31.9143 37.6609 31.8443 37.8767 31.8048 38.0585L31.5643 37.9679C29.8811 37.4951 30.0694 36.9944 27.8627 37.0638L27.803 37.0622C27.8257 36.9579 27.934 36.7626 27.9432 36.6161C27.9907 35.8551 28.0481 35.0221 28.0265 34.2644C27.3265 33.2588 25.3534 32.3274 24.449 31.4304C24.3061 31.2888 24.3347 31.2668 24.1293 31.1773C24.0183 30.8664 23.9207 30.5931 23.832 30.2731C24.2005 30.0601 24.6445 29.8389 25.0256 29.6444C26.938 28.6684 28.8707 27.4461 30.9213 26.7983L30.7573 26.4655C31.5523 26.5764 31.8887 26.0913 32.1008 25.3872C32.1478 25.2836 32.2455 25.1334 32.3071 25.0318L32.3418 25.0044L32.4143 25.2463C32.5173 25.1602 32.5505 24.9853 32.6033 24.8381Z" fill="#68676B"/>
<path d="M32.6034 24.8381C33.1347 25.0779 33.3717 25.5526 33.7275 25.7582C34.8967 26.4336 35.7632 26.7197 36.4686 27.9648C36.5558 28.1186 36.7721 28.0376 36.933 28.199L36.8013 28.3989L36.828 28.5229C36.6871 28.8113 36.5389 29.0848 36.3867 29.3668C35.7248 30.6448 35.46 31.6544 35.3449 33.0724C35.3294 32.9093 35.3517 32.8576 35.2633 32.7411C35.0523 33.416 35.3315 35.8764 35.2068 36.1883L35.1059 36.1754C34.9304 35.9431 34.9763 35.239 34.9792 34.9231L34.9364 34.9427C34.8879 35.0786 34.6254 36.1504 34.6164 36.2815C33.466 36.0838 32.6988 36.3786 31.9947 37.3143L31.9683 37.4795C31.9144 37.6609 31.8444 37.8767 31.8049 38.0585L31.5644 37.9679C29.8812 37.4951 30.0695 36.9944 27.8628 37.0638C28.402 36.8424 29.3532 36.3434 29.8947 36.0741C30.5 35.7731 32.4764 35.1037 32.8269 34.7523C33.148 33.6994 32.4825 30.0859 32.2229 28.8876C32.143 28.4916 32.1179 28.1061 32.0249 27.6948C31.7355 27.5932 31.6804 27.5482 31.4334 27.3606C31.2512 27.1307 31.1309 27.0053 30.9214 26.7983L30.7574 26.4655C31.5524 26.5764 31.8888 26.0913 32.1009 25.3872C32.1479 25.2836 32.2455 25.1334 32.3072 25.0318L32.3419 25.0044L32.4144 25.2463C32.5174 25.1602 32.5506 24.9853 32.6034 24.8381Z" fill="#419EA7"/>
<path d="M32.1008 25.3872C32.1478 25.2836 32.2455 25.1334 32.3071 25.0317C32.1318 25.8889 31.9284 26.8164 32.0249 27.6948C31.7355 27.5932 31.6804 27.5482 31.4333 27.3606C31.2512 27.1307 31.1309 27.0052 30.9214 26.7983L30.7573 26.4655C31.5523 26.5764 31.8888 26.0913 32.1008 25.3872Z" fill="#A17D34"/>
<path d="M31.5643 37.9678C31.4153 37.8217 31.269 37.7948 31.0537 37.5715L31.0867 37.4836C31.3909 37.4356 31.6936 37.3791 31.9946 37.3142L31.9682 37.4795C31.9143 37.6609 31.8443 37.8766 31.8048 38.0585L31.5643 37.9678Z" fill="#65787C"/>
<path d="M31.4333 27.3606C31.6803 27.5482 31.7355 27.5932 32.0248 27.6948C32.1178 28.1061 32.143 28.4915 32.2228 28.8876L32.1573 29.026L31.9605 29.0772C31.9272 29.0471 31.9035 29.0243 31.8723 28.9911L31.831 28.9464C31.4007 28.4852 31.4023 27.9497 31.4333 27.3606Z" fill="#9B676C"/>
<path d="M35.3447 33.0723C35.4598 31.6544 35.7246 30.6448 36.3865 29.3667C36.8473 29.9274 38.7728 29.917 39.4519 29.7597L39.3821 29.9606C39.71 30.3873 41.1927 30.5775 41.0283 31.6055C41.0029 31.7643 40.9576 31.9155 40.8058 32.004C39.8774 32.5448 38.4641 32.785 39.265 34.1909C39.3243 34.2951 39.6116 34.4484 39.7307 34.4754C40.3037 34.6406 45.6154 37.2001 45.7815 37.4618C45.7824 37.6922 45.7738 37.7643 45.7315 37.9913C45.2736 38.6213 44.3402 38.8179 43.8301 39.1893L43.6196 39.2461C43.3346 39.4402 36.2043 43.1434 36.1771 43.1456C36.1608 41.5755 36.3311 38.9099 36.0091 37.3801C35.9123 36.9199 35.1037 36.4628 34.6162 36.2815C34.6251 36.1504 34.8876 35.0786 34.9362 34.9426L34.979 34.923C34.9761 35.239 34.9301 35.9431 35.1057 36.1753L35.2066 36.1882C35.3313 35.8763 35.0521 33.416 35.2631 32.7411C35.3515 32.8575 35.3292 32.9093 35.3447 33.0723Z" fill="#65787C"/>
<path d="M34.6162 36.2816C34.6251 36.1505 34.8876 35.0787 34.9362 34.9428L34.979 34.9231C34.9761 35.2391 34.9301 35.9432 35.1057 36.1755L35.2066 36.1883C35.3313 35.8765 35.0521 33.4161 35.2631 32.7412C35.3515 32.8576 35.3292 32.9094 35.3447 33.0725C35.3085 33.6954 35.2686 34.4584 35.304 35.0789C35.7561 35.3619 37.0917 35.833 37.6788 36.1196C39.7055 37.1088 41.6856 38.0796 43.6196 39.2462C43.3346 39.4403 36.2043 43.1435 36.1771 43.1457C36.1608 41.5756 36.3311 38.91 36.0091 37.3803C35.9123 36.9201 35.1037 36.463 34.6162 36.2816Z" fill="#62C4C9"/>
<path d="M35.3042 35.0789C37.7384 35.4926 41.1786 37.8069 43.4872 38.8843C43.6191 38.9458 43.7744 39.0507 43.8303 39.1894L43.6198 39.2462C41.6858 38.0795 39.7056 37.1087 37.679 36.1195C37.0919 35.833 35.7563 35.3619 35.3042 35.0789Z" fill="#0B2B34"/>
<path d="M39.731 34.4756C40.304 34.6408 45.6156 37.2003 45.7817 37.462C45.7826 37.6924 45.7741 37.7645 45.7318 37.9915C45.7206 37.9243 45.6666 37.6221 45.5902 37.6076C45.0345 37.5018 43.5215 36.8633 43.1681 36.4645L43.177 36.4002L43.3721 36.3815C43.2035 36.018 40.3653 35.1018 39.731 34.4756Z" fill="#8F999E"/>
<path d="M14.5584 28.6867C15.3414 26.8062 18.0499 26.9165 18.7517 28.5787C19.0282 29.2338 18.9877 32.0676 18.8835 32.857C18.9853 33.3513 18.9269 35.1153 18.9556 35.7403C18.9767 36.2006 19.0321 37.3493 19.0156 37.7835C17.9492 38.3386 16.1907 38.9123 15.0471 38.2966L14.9804 38.278C14.923 38.162 14.6165 37.7867 14.5207 37.6643C14.4403 37.198 14.4442 36.7288 14.4355 36.2558C14.4817 35.9186 14.5155 35.5066 14.4229 35.1783C14.4741 34.7841 14.4363 34.088 14.451 33.6705C14.5041 32.1578 14.31 30.1352 14.5584 28.6867Z" fill="#CC9EA5"/>
<path d="M14.5584 28.6868C15.042 29.46 15.5074 29.9789 16.3682 30.2941L16.3409 30.3585L16.0767 30.3963C16.0898 30.363 16.299 31.7771 16.2677 32.1461C16.1733 33.2581 16.2371 34.4578 16.0909 35.5743C16.0129 36.2091 15.5085 37.7537 15.5217 38.3556C15.3372 38.3015 15.2322 38.2511 15.0471 38.2966L14.9804 38.278C14.923 38.1621 14.6165 37.7867 14.5207 37.6644C14.4403 37.1981 14.4442 36.7289 14.4355 36.2559C14.4817 35.9186 14.5155 35.5066 14.4229 35.1784C14.4741 34.7841 14.4363 34.0881 14.451 33.6705C14.5041 32.1578 14.31 30.1352 14.5584 28.6868Z" fill="#9F6A6F"/>
<path d="M49.1318 28.8153C49.6081 27.5295 50.9766 26.9901 52.2182 27.4759C52.7113 27.6691 53.1059 28.0527 53.3129 28.5402C53.8029 29.669 53.4596 33.6617 53.5662 35.1884C53.5485 35.9661 53.531 36.9637 53.3936 37.715C53.1086 38.0367 53.0393 38.0942 52.6746 38.3112C52.1344 38.5694 50.2815 38.7122 49.7921 38.2908C49.6539 38.0811 49.3454 37.8478 49.1444 37.6793C49.0787 37.16 49.0746 36.821 49.0729 36.2942C48.802 36.3344 48.397 36.4154 48.1411 36.3599C48.3194 36.1868 48.6422 36.3559 48.9977 36.0549C49.1548 35.7734 49.0817 33.4689 49.0772 32.9781C49.0255 31.9371 49.0372 29.8518 49.1318 28.8153Z" fill="#BE8B92"/>
<path d="M49.1323 28.8153C49.6086 27.5295 50.9771 26.9901 52.2187 27.4759C52.7118 27.6691 53.1064 28.0527 53.3134 28.5402C53.8034 29.669 53.4601 33.6617 53.5667 35.1884C53.549 35.9661 53.5315 36.9637 53.3941 37.715C53.1091 38.0367 53.0398 38.0942 52.6751 38.3112L52.3594 38.2847C52.2226 38.0291 52.4768 37.6729 52.5885 37.4117C52.7782 36.9727 52.9126 36.5119 52.9886 36.0398C53.2664 34.3712 53.1999 32.1202 52.6134 30.5196C51.8507 30.0064 52.0186 30.2817 51.2165 30.0569C51.0794 30.0185 50.2242 29.2699 49.9464 29.2278C50.1158 29.3953 50.242 29.5551 50.3922 29.7397C49.9296 29.5534 49.557 28.9962 49.1323 28.8153Z" fill="#DAB0B4"/>
<path d="M31.9944 37.3143C32.6985 36.3787 33.4657 36.0838 34.6161 36.2815C35.1036 36.4629 35.9122 36.92 36.0091 37.3802C36.331 38.91 36.1607 41.5756 36.177 43.1457C36.1682 44.1234 36.2296 45.5508 36.0439 46.4986C36.016 46.6411 35.7954 46.9368 35.6944 47.0609C34.8554 47.3684 33.3409 47.6814 32.4936 47.2843L32.5109 47.1812L32.3014 47.0282C32.082 46.9045 32.0173 46.844 31.8291 46.6754C31.7768 46.1507 31.7769 45.8412 31.79 45.3117C31.8068 45.1669 31.8103 44.9177 31.8175 44.7636C31.8107 44.16 31.8132 43.5563 31.8251 42.9528C31.7565 41.466 31.8161 39.5892 31.8046 38.0585C31.8441 37.8767 31.9141 37.661 31.968 37.4795L31.9944 37.3143Z" fill="#C8969C"/>
<path d="M31.8046 38.0585C31.8441 37.8767 31.9141 37.6609 31.968 37.4795C32.0241 38.2561 32.9906 38.8222 33.0325 39.0967C33.3756 41.3442 33.3559 43.9353 32.7409 46.1361C32.6733 46.3784 32.6839 46.8317 32.5478 47.0161C32.4342 46.9922 32.4219 46.9933 32.3132 46.9408L32.3014 47.0282C32.082 46.9045 32.0173 46.844 31.8291 46.6754C31.7768 46.1507 31.7769 45.8412 31.79 45.3117C31.8068 45.1669 31.8103 44.9176 31.8175 44.7636C31.8107 44.16 31.8132 43.5563 31.8251 42.9528C31.7565 41.4659 31.8161 39.5892 31.8046 38.0585Z" fill="#9B676C"/>
<path d="M39.9776 53.7531C40.5962 53.5991 43.7889 51.8814 44.5235 51.5078C46.1799 50.6758 47.8306 49.8323 49.4753 48.9774C50.3364 48.5348 51.3457 48.0733 52.1468 47.5674C52.5723 48.0404 53.2386 48.7331 53.1916 49.419C53.1703 49.7294 52.9596 49.9087 52.734 50.097C51.727 50.9376 44.3853 54.6103 43.116 54.9257C41.8113 55.1199 40.3358 54.5868 39.1841 54.0134C39.4613 53.8303 39.6582 53.8169 39.9776 53.7531Z" fill="#DECA85"/>
<path d="M39.1841 54.0134C39.4613 53.8304 39.6582 53.8169 39.9776 53.7532C40.7678 54.3602 41.946 54.5261 42.8878 54.739C42.9414 54.7512 43.0745 54.8814 43.116 54.9257C41.8113 55.1199 40.3358 54.5868 39.1841 54.0134Z" fill="#A17D34"/>
<path d="M27.8628 37.0638C30.0694 36.9945 29.8811 37.4951 31.5644 37.9679L31.8049 38.0585C31.8163 39.5892 31.7568 41.466 31.8253 42.9528C31.3178 42.8993 25.0376 39.616 24.1953 39.1119C24.7307 38.6008 27.0524 37.4835 27.803 37.0622L27.8628 37.0638Z" fill="#61C1C7"/>
<path d="M24.1293 31.1772C24.3346 31.2668 24.306 31.2887 24.4489 31.4304C25.3533 32.3274 27.3264 33.2587 28.0264 34.2644C28.048 35.0221 27.9906 35.8551 27.9431 36.6161C27.9339 36.7626 27.8256 36.9579 27.8029 37.0622C27.0523 37.4834 24.7306 38.6008 24.1952 39.1119C23.7368 38.7789 23.0574 38.4654 22.7261 38.073C22.7359 37.1011 27.0839 35.6164 27.5717 34.473C27.8543 33.8105 26.5194 33.3952 26.1855 33.0406C25.7638 32.5929 24.2413 31.6166 24.1293 31.1772Z" fill="#8F999E"/>
<path d="M14.4227 35.1782C14.5154 35.5065 14.4816 35.9185 14.4353 36.2557C14.4441 36.7287 14.4401 37.1979 14.5206 37.6642C14.6163 37.7865 14.9228 38.1619 14.9802 38.2778L14.1354 37.9701C13.5565 38.1305 12.4521 36.9173 11.9232 37.5207C11.6758 37.803 11.7041 38.7336 11.9961 38.8935C12.2484 39.4175 12.8528 39.8252 12.8667 40.294C12.2799 39.8769 11.4296 38.6179 11.3174 37.9065C11.5766 37.2667 11.8742 36.8693 12.3974 36.4149C12.8816 35.9329 13.8006 35.4557 14.4227 35.1782Z" fill="#8F999E"/>
<path d="M14.4352 36.2559C14.4439 36.7289 14.44 37.198 14.5204 37.6644C14.6162 37.7867 14.9227 38.162 14.98 38.278L14.1353 37.9702C14.007 37.8406 12.6105 37.3111 12.2046 37.0441C12.4994 36.73 12.6128 36.6672 13.004 36.4768C13.2166 36.3972 14.1843 36.285 14.4352 36.2559Z" fill="#68676B"/>
<path d="M11.9961 38.8935C12.6202 38.8013 12.9769 39.7833 13.4923 40.053C15.0563 40.8715 16.6304 41.6088 18.1198 42.574C18.9763 43.1092 19.7212 43.3989 20.5457 44.0414C19.9702 44.2012 17.3421 42.7687 16.769 42.4135C15.711 41.7577 13.7267 41.1062 12.8667 40.2941C12.8528 39.8253 12.2484 39.4176 11.9961 38.8935Z" fill="#868486"/>
<path d="M39.0542 54.0234C39.2149 53.7801 40.9215 53.0047 41.2961 52.8174L45.8958 50.502L49.6201 48.6078C50.3431 48.2386 51.3371 47.6939 52.0738 47.4221L52.1467 47.5676C51.3456 48.0734 50.3363 48.5349 49.4752 48.9776C47.8305 49.8325 46.1798 50.676 44.5233 51.508C43.7888 51.8816 40.5961 53.5993 39.9775 53.7533C39.6581 53.8171 39.4611 53.8305 39.1839 54.0136L39.0542 54.0234Z" fill="#986724"/>
<path d="M56.9202 39.6909C57.4787 39.9784 58.3672 40.3812 58.5807 41.0114C58.6569 41.2305 58.6401 41.4712 58.5343 41.6776C58.2861 42.1704 57.4549 42.6527 56.9576 42.8756C56.7869 42.4388 56.8664 40.2237 56.9202 39.6909Z" fill="#81CFD8"/>
<path d="M31.7902 45.3118C31.7771 45.8413 31.777 46.1508 31.8293 46.6755C32.0175 46.8441 32.0822 46.9046 32.3016 47.0283L32.5111 47.1812L32.4938 47.2844C32.169 47.1903 31.7119 47.0156 31.3819 46.9012C31.0808 46.7014 30.0093 46.3659 29.6112 46.1944C29.0919 45.9707 28.6287 45.7418 28.1216 45.4911C28.1901 45.4433 28.1851 45.4396 28.2672 45.4333C28.3004 45.4592 28.3334 45.485 28.3676 45.5093C28.8122 45.8263 31.1662 45.4128 31.7902 45.3118Z" fill="#68676B"/>
<path d="M48.1414 36.3598C48.3972 36.4153 48.8022 36.3344 49.0732 36.2942C49.0749 36.8209 49.079 37.1599 49.1447 37.6793C49.3457 37.8478 49.6541 38.0811 49.7924 38.2908C49.2176 38.1268 46.7571 36.7421 46.1724 36.4216C46.8454 36.4237 47.4783 36.3054 48.1414 36.3598Z" fill="#68676B"/>
<path d="M31.8176 44.7637C31.8104 44.9177 31.8069 45.167 31.7901 45.3118C31.1661 45.4129 28.8121 45.8263 28.3675 45.5094C28.3333 45.485 28.3003 45.4592 28.2671 45.4334C28.185 45.4397 28.19 45.4433 28.1215 45.4912C28.6286 45.7418 29.0918 45.9707 29.6111 46.1944C30.0093 46.3659 31.0808 46.7014 31.3818 46.9012C30.8234 46.9267 27.7276 45.562 27.3486 45.1606L27.4008 45.1134C28.0547 45.479 29.4883 45.18 30.2507 45.204C30.5127 45.2122 31.5119 45.2822 31.6606 45.1755L31.5331 45.0918C31.6309 44.9554 31.7035 44.8831 31.8176 44.7637Z" fill="#8F999E"/>
<path d="M57.7002 2C62.1185 2 65.7002 5.58172 65.7002 10C65.7002 14.4183 62.1185 18 57.7002 18C53.2819 18 49.7002 14.4183 49.7002 10C49.7002 5.58172 53.2819 2 57.7002 2ZM61.0586 7.64645C60.885 7.47288 60.6156 7.4536 60.4208 7.58859L60.3515 7.64645L56.7002 11.298L55.0537 9.65131L54.9845 9.59346C54.7896 9.45846 54.5202 9.47775 54.3466 9.65131C54.1731 9.82488 54.1538 10.0943 54.2888 10.2892L54.3466 10.3584L56.3466 12.3584L56.4159 12.4163C56.5864 12.5344 56.814 12.5344 56.9845 12.4163L57.0537 12.3584L61.0586 8.35355L61.1165 8.28431C61.2515 8.08944 61.2322 7.82001 61.0586 7.64645Z" fill="#10B981"/>
</svg>
