<svg width="68" height="68" viewBox="0 0 68 68" fill="none" xmlns="http://www.w3.org/2000/svg">
<circle cx="34" cy="34" r="34" fill="white"/>
<path d="M25.2941 26.5771C25.9833 25.5006 30.9989 22.7324 32.2197 21.7177C33.2579 20.8548 35.0624 19.8327 36.2087 18.9758C37.3496 18.1229 38.8226 17.2224 40.2659 17.0621C41.1235 16.9691 41.9909 17.0728 42.8024 17.3654C44.3656 17.9426 46.8869 19.8299 48.4133 20.7435C48.9725 21.0782 50.683 22.1733 51.12 22.5211C52.4554 23.224 56.483 25.6236 56.876 27.1191C57.1915 28.3196 57.2624 30.9706 56.6645 32.1385C56.1928 33.1298 54.1671 34.3619 53.2323 34.9986L49.0616 37.8214C47.2113 39.0646 45.3946 40.3785 43.5077 41.5619C42.5317 42.1741 40.8044 42.6046 39.6787 42.2368C38.671 42.2542 36.6353 40.8201 35.79 40.2465C35.8332 40.2196 36.1309 39.8631 36.186 39.7986C36.247 38.9588 36.2015 37.8976 36.1843 37.0368L36.0582 36.8163L35.9854 36.7441C35.5567 36.3104 33.4288 34.9751 32.7473 34.5373C31.0277 33.4324 29.2853 32.2376 27.5576 31.1629L27.2628 31.0313C26.6489 31.2714 25.5387 32.1399 24.8812 32.5328C24.3819 31.6537 24.4616 28.4085 24.78 27.4285C24.9811 27.0158 24.9986 26.9489 25.2941 26.5771ZM43.6642 29.2224L43.25 28.9485C42.2181 28.2805 41.5404 27.9453 40.2202 28.1566C39.6718 28.2444 38.4794 28.884 38.1812 29.2667C38.6661 29.6586 39.8102 30.2301 40.4464 30.3284C41.803 30.538 42.6449 29.9558 43.6642 29.2224Z" fill="#767676"/>
<path d="M51.12 22.5212C52.4554 23.2242 56.483 25.6237 56.876 27.1192C57.1915 28.3197 57.2624 30.9708 56.6645 32.1387C56.1928 33.13 54.1671 34.3621 53.2323 34.9988L49.0615 37.8216C47.2113 39.0648 45.3946 40.3787 43.5077 41.5621C42.5317 42.1742 40.8044 42.6047 39.6787 42.237C38.671 42.2544 36.6353 40.8202 35.79 40.2467C35.8332 40.2197 36.1309 39.8632 36.186 39.7987C36.247 38.9589 36.2015 37.8978 36.1843 37.037L36.0582 36.8164L36.1274 36.7544C36.6833 37.0913 37.2081 37.5482 37.8451 37.7156C38.7685 37.9582 41.2044 37.8812 42.0692 37.5295C42.7325 37.2598 43.3654 36.7201 43.9484 36.3044C45.4947 35.2021 46.9795 34.0257 48.5142 32.9131C49.152 32.4506 49.8427 32.0502 50.5027 31.6187C51.2899 31.1042 52.0601 30.5521 52.8292 30.0111C53.2671 29.703 53.6113 29.2877 54.0759 29.0148C54.9322 28.5119 55.4218 28.3025 55.9892 27.4292C56.1181 27.2307 56.2667 27.0189 56.3233 26.7867C56.3386 26.7239 56.405 26.4838 56.3863 26.4287C56.0263 25.3672 51.538 23.2771 51.1391 22.5596C51.1322 22.5471 51.1264 22.5341 51.12 22.5212Z" fill="#3E3E3E"/>
<path d="M36.1843 37.0369C36.5884 37.3026 37.9994 40.3959 38.4667 40.5827C38.5873 40.4624 38.6002 40.2111 38.6304 40.0264C38.8437 40.2188 38.5795 40.5219 38.5634 40.7821C38.8362 41.018 39.0727 41.1297 39.245 41.4296C39.2604 41.7497 39.1628 41.8706 39.2763 42.0727L39.6358 42.1442L39.6787 42.2369C38.671 42.2542 36.6353 40.8201 35.79 40.2466C35.8332 40.2196 36.1309 39.8631 36.186 39.7986C36.247 38.9588 36.2015 37.8977 36.1843 37.0369Z" fill="#262626"/>
<path d="M24.8812 32.533C24.3819 31.6539 24.4616 28.4087 24.78 27.4287C24.8398 27.902 25.0425 28.4793 25.3182 28.8716C25.2449 29.8361 27.0769 30.4496 27.2628 31.0315C26.6489 31.2716 25.5387 32.1401 24.8812 32.533Z" fill="#6A6A6A"/>
<path d="M25.2938 26.5771C25.3315 26.8286 24.5315 27.7781 25.2011 28.3545C25.3473 28.4805 25.9331 28.326 26.1618 28.5638C26.9645 29.3467 27.9618 30.024 28.7672 30.7806L28.7667 30.8749L28.6554 30.9743C30.0098 32.0051 31.7613 33.0315 33.1989 33.9834C34.6421 34.9389 36.0878 35.872 37.5609 36.7815C36.84 36.6448 28.8024 31.1978 27.4277 30.4036C27.2715 30.2012 25.7487 29.2701 25.3179 28.8715C25.0423 28.4791 24.8395 27.9018 24.7798 27.4285C24.9808 27.0158 24.9983 26.9489 25.2938 26.5771Z" fill="#ADADAD"/>
<path d="M43.3856 24.7832L43.3435 24.7487C42.9535 24.4327 41.8765 23.891 41.8213 23.4457C42.3351 23.1132 45.4815 25.0304 45.933 25.6325C46.1268 25.8909 46.2455 26.3515 46.1784 26.6931L46.0896 26.799C45.909 26.7944 45.9806 26.813 45.8128 26.7004C45.4531 26.9838 45.398 27.7076 45.0175 28.1502C44.586 28.6521 44.2098 28.8595 43.6642 29.2227L43.25 28.9487C42.2181 28.2807 41.5404 27.9455 40.2202 28.1569C39.6718 28.2446 38.4794 28.8842 38.1812 29.2669C36.9166 28.538 36.7406 28.2637 35.7077 27.4064C34.2007 26.4367 38.6188 24.0477 39.3217 23.7312C40.0906 23.385 40.8648 23.6802 41.582 23.9898C42.461 24.1719 42.8753 24.731 43.3856 24.7832Z" fill="#333333"/>
<path d="M43.3854 24.7832L43.3434 24.7487C42.9533 24.4327 41.8763 23.891 41.8211 23.4457C42.335 23.1132 45.4813 25.0304 45.9329 25.6325C46.1266 25.8909 46.2453 26.3515 46.1782 26.6931L46.0894 26.799C45.9089 26.7944 45.9805 26.813 45.8126 26.7004C45.4529 26.9838 45.3979 27.7076 45.0173 28.1502C44.5858 28.6521 44.2097 28.8595 43.6641 29.2227L43.2499 28.9487L43.3202 28.7997L43.5631 28.8436L43.6181 28.7933C43.0627 27.7419 41.7559 25.4953 41.4455 24.4946C40.7192 24.2845 40.8045 24.4119 40.2085 24.3662C40.2895 24.2866 40.3192 24.2465 40.3875 24.1552C40.6776 24.1789 41.5027 24.3697 41.6949 24.2341L41.5818 23.9898C42.4608 24.1719 42.8751 24.731 43.3854 24.7832Z" fill="#5A5A5A"/>
<path d="M43.3856 24.7832L43.3435 24.7487C42.9535 24.4327 41.8765 23.891 41.8213 23.4457C42.3352 23.1132 45.4815 25.0304 45.933 25.6325C46.1268 25.8909 46.2455 26.3515 46.1784 26.6931L46.0896 26.799C45.909 26.7944 45.9807 26.813 45.8128 26.7004C45.6832 26.0995 43.9205 25.0335 43.3856 24.7832Z" fill="#ADADAD"/>
<path d="M35.7077 27.4063C34.2007 26.4365 38.6188 24.0476 39.3217 23.731C40.0906 23.3849 40.8648 23.68 41.582 23.9897L41.695 24.234C41.5028 24.3695 40.6778 24.1788 40.3876 24.1551C40.1886 24.002 39.7819 23.805 39.5276 23.8943C38.1886 24.3647 36.6758 25.3757 35.705 26.4159C35.4325 26.7077 35.5883 27.0944 35.7077 27.4063Z" fill="#5A5A5A"/>
<path d="M27.2624 31.0315L27.5572 31.1631C29.2849 32.2377 31.0273 33.4326 32.7469 34.5374C33.4284 34.9753 35.5563 36.3106 35.985 36.7442L36.0578 36.8164L36.1839 37.037C36.2011 37.8978 36.2466 38.9589 36.1856 39.7987C36.1305 39.8632 35.8328 40.2197 35.7896 40.2467C35.1506 40.6239 33.4663 41.8853 32.9605 42.1077C32.8539 42.1582 32.6085 42.2885 32.5058 42.2957C32.488 42.2909 32.4703 42.2864 32.4526 42.2814C31.591 42.0354 30.6448 40.7438 29.4955 41.3666C29.2336 41.5085 29.096 41.7578 29.0198 42.0369C28.8473 42.6686 28.961 44.1286 28.366 44.4837C27.4398 45.0366 24.4075 44.3134 24.0085 45.3875C23.9749 46.1474 24.0076 47.266 23.6843 47.9106C23.1014 48.3934 20.3135 48.1797 19.5913 48.738C19.6623 49.1439 19.7166 50.1816 19.4712 50.5214C19.328 50.7196 18.3911 50.783 18.1306 50.7836C16.153 50.7877 13.7606 51.0074 11.8305 50.7606C11.7303 50.313 11.6357 49.8862 11.512 49.4444C11.2323 48.0037 10.6501 45.4041 11.0558 44.0635C11.3202 43.1899 14.5396 41.2618 15.3976 40.6762L21.6524 36.3849C22.3573 35.9091 23.1645 35.3976 23.8527 34.8918C23.9238 34.8396 23.9755 34.6879 24 34.6C23.9684 34.2442 24.0022 33.9374 24.0293 33.5831C24.2245 32.9002 24.3751 33.0473 24.8808 32.5329C25.5383 32.1401 26.6485 31.2716 27.2624 31.0315Z" fill="#D9D9D9"/>
<path d="M11.8105 48.1765C11.9403 47.6943 12.6155 47.0325 13.0142 46.7254C15.4185 44.8737 17.9712 43.2031 20.4622 41.4754L25.931 37.7173C27.144 36.895 29.3107 35.2735 30.6481 34.9727C29.402 36.0385 29.1684 37.856 28.184 38.587C25.1695 40.8257 21.7617 42.9404 18.702 45.1017C17.5305 45.7028 16.248 46.2907 15.0321 46.791C14.4919 47.0133 14.1084 47.2102 13.6184 47.5235C13.187 47.7207 12.7385 47.8994 12.4104 48.2493C12.1934 48.1524 12.0402 48.0862 11.8105 48.1765Z" fill="#ACACAC"/>
<path d="M29.855 38.5595L29.9157 38.5453C30.4858 38.4081 30.6018 38.033 31.134 38.3427C31.5691 38.596 31.9531 39.4536 32.5268 39.3539L32.5059 39.4013C32.1285 39.7665 32.3203 41.0842 32.1102 41.4812C32.3145 41.769 32.4298 41.9526 32.5061 42.2956C32.4883 42.2909 32.4706 42.2864 32.453 42.2813C31.5913 42.0353 30.6451 40.7437 29.4958 41.3665C29.2339 41.5084 29.0963 41.7577 29.0201 42.0369C28.8476 42.6685 28.9613 44.1285 28.3663 44.4837C27.4401 45.0365 24.4078 44.3134 24.0088 45.3874C23.9202 45.3641 23.7864 45.2889 23.6997 45.2454C23.9339 44.5015 23.6607 43.1742 23.9305 42.6567C24.4415 41.6764 27.0393 42.3002 28.0028 41.9553C29.1643 41.5395 28.4935 40.0292 28.9732 39.1256C29.185 38.7265 29.445 38.6951 29.855 38.5595Z" fill="#8B8B8B"/>
<path d="M29.855 38.5595L29.9157 38.5453C30.4858 38.4081 30.6017 38.033 31.1339 38.3427C31.569 38.596 31.9531 39.4536 32.5268 39.3539L32.5059 39.4013C32.1284 39.7665 32.3202 41.0842 32.1102 41.4812C31.7022 40.705 31.0642 39.3594 30.6145 38.6916C30.4125 38.5752 30.0963 38.5774 29.855 38.5595Z" fill="#ACACAC"/>
<path d="M12.4104 48.2493C13.4338 48.2667 14.3302 48.1776 15.352 48.126C16.6573 48.0675 17.9631 48.0178 19.2692 47.9768C19.4249 48.1424 19.4556 48.4668 19.5915 48.7379C19.6626 49.1438 19.7169 50.1815 19.4715 50.5212C19.3283 50.7195 18.3914 50.7829 18.1309 50.7834C16.1532 50.7876 13.7608 51.0073 11.8307 50.7604C11.7305 50.3129 11.636 49.8861 11.5122 49.4443C11.8481 49.0847 11.7784 48.7182 11.8105 48.1764C12.0402 48.0861 12.1933 48.1524 12.4104 48.2493Z" fill="#838383"/>
<path d="M35.9855 36.7441L36.0582 36.8163L36.1844 37.0369C36.2016 37.8977 36.2471 38.9588 36.1861 39.7986C36.1309 39.8631 35.8333 40.2196 35.7901 40.2466C35.151 40.6238 33.4667 41.8852 32.9609 42.1076C32.8544 42.1581 32.6089 42.2884 32.5062 42.2956C32.43 41.9526 32.3147 41.769 32.1104 41.4812C32.3204 41.0841 32.1286 39.7665 32.506 39.4013L32.527 39.3538C33.0727 38.7895 33.3537 38.6119 33.9508 38.1693C34.3306 37.8879 35.7946 37.0075 35.9855 36.7441Z" fill="#929292"/>
<path d="M32.506 39.4014C32.9809 39.9245 32.2761 41.2151 32.9609 42.1077C32.8544 42.1582 32.6089 42.2885 32.5062 42.2957C32.43 41.9527 32.3147 41.7691 32.1104 41.4813C32.3204 41.0842 32.1286 39.7666 32.506 39.4014Z" fill="#838383"/>
<path d="M23.6995 45.2454C23.7862 45.2889 23.92 45.3641 24.0086 45.3874C23.975 46.1473 24.0077 47.2659 23.6844 47.9105C23.1015 48.3933 20.3136 48.1796 19.5914 48.7379C19.4555 48.4669 19.4247 48.1424 19.269 47.9769L19.4274 47.9432C19.8888 47.3194 18.6783 45.9152 20.3545 45.7249C20.9609 45.656 23.361 45.5665 23.6995 45.2454Z" fill="#838383"/>
<path d="M18.7023 45.1018C17.7367 46.2096 15.6253 47.2829 14.1547 47.5858C14.0729 47.6026 13.7187 47.5416 13.6187 47.5236C14.1086 47.2103 14.4921 47.0134 15.0323 46.7911C16.2482 46.2908 17.5307 45.7029 18.7023 45.1018Z" fill="#C9C9C9"/>
<path d="M24.0298 33.583C24.4153 33.6754 24.6748 33.7566 24.6691 34.2086C24.5149 34.5272 24.3209 34.5521 24.0006 34.5999C23.9689 34.2441 24.0027 33.9374 24.0298 33.583Z" fill="#C9C9C9"/>
</svg>
