<svg width="68" height="68" viewBox="0 0 68 68" fill="none" xmlns="http://www.w3.org/2000/svg">
<circle cx="34" cy="34" r="34" fill="#EBEBE2"/>
<circle cx="34" cy="34" r="33.5" stroke="black" stroke-opacity="0.09"/>
<path d="M48.9592 32.0858C49.0895 31.6254 48.9866 30.8794 48.9819 30.392C48.9686 29.0166 48.7449 24.302 49.2906 23.1703C49.5621 22.6072 50.0462 22.2218 50.6333 22.0236C51.5116 21.7272 52.5955 21.7943 53.4237 22.2131C53.9733 22.491 54.284 22.9395 54.4781 23.5116C54.6484 24.2771 54.6095 25.645 54.6098 26.4636L54.6106 30.3353C54.6103 31.3431 54.6763 34.3233 54.5434 35.2192C54.5644 35.4076 54.5354 35.5252 54.7129 35.647C56.2509 36.7031 59.4669 37.764 60.3488 39.4304C60.7075 40.4101 60.7664 41.0754 60.5865 42.1117C60.4569 42.6151 60.3263 43.0105 59.9703 43.419C58.6789 44.901 56.4814 45.7804 54.8218 46.8146C53.0582 47.8945 51.3835 49.1295 49.5959 50.1696C46.5298 51.9537 43.1918 53.1852 40.1149 54.962C38.7594 55.7447 37.0044 56.6212 35.4516 56.7836C32.4089 57.1019 29.7016 54.9926 27.1062 53.7363C24.9801 52.6909 22.7627 51.8175 20.6613 50.7221C18.1883 49.4331 15.912 47.81 13.5184 46.3898C11.9679 45.4698 10.275 44.776 8.83682 43.6659C7.81766 42.8792 7.45922 42.1626 7.32629 40.904C7.31936 40.3805 7.37093 39.9472 7.50915 39.4458L7.52637 39.3902C8.32244 36.8653 12.7016 35.7684 14.6153 33.9723C15.1219 33.4968 17.9316 31.73 18.5292 31.4221C21.2813 29.7823 24.5661 28.9375 27.3848 27.1684C28.6976 26.5563 29.3816 25.9378 30.8394 25.502C30.8863 26.4474 30.9528 27.4448 30.9239 28.386C30.9606 29.2933 31.8686 29.819 32.683 29.9132C32.9087 30.0156 33.0184 30.0174 33.2634 30.0444C33.5607 30.0723 35.5324 30.2228 35.7868 30.2026C35.9723 29.6526 36.1426 29.1488 36.293 28.586C36.7051 27.5676 36.7622 26.8975 37.0418 26.1162C37.191 25.9332 37.4749 25.0794 37.5737 24.804L37.8199 24.8304C37.9338 24.889 38.1911 25.0294 38.2977 25.0693C38.4363 25.1271 38.636 25.2173 38.7721 25.2643C39.2351 25.3441 39.7895 25.4256 40.2389 25.5345C39.9631 26.1361 39.7798 26.9003 39.5018 27.4396C40.1726 27.8072 40.8082 28.1647 41.5023 28.4902C43.5942 29.471 47.1402 30.7329 48.9592 32.0858Z" fill="#CA7162"/>
<path d="M60.3487 39.4304C60.7074 40.4102 60.7663 41.0754 60.5864 42.1117C60.4568 42.6152 60.3262 43.0105 59.9702 43.419C58.6788 44.901 56.4813 45.7804 54.8217 46.8146C53.0581 47.8945 51.3834 49.1295 49.5958 50.1696C46.5297 51.9537 43.1917 53.1852 40.1148 54.962C38.7593 55.7447 37.0043 56.6212 35.4515 56.7837C32.4088 57.1019 29.7014 54.9927 27.1061 53.7363C24.9799 52.6909 22.7626 51.8175 20.6612 50.7221C18.1882 49.4331 15.9119 47.81 13.5183 46.3899C11.9678 45.4699 10.2749 44.776 8.8367 43.6659C7.81753 42.8792 7.4591 42.1626 7.32617 40.904C7.69664 41.3749 7.53308 42.2345 8.0927 42.7202C11.4861 42.7422 14.6331 46.8347 18.1876 47.6883C20.8254 48.3218 24.6111 50.0959 26.7586 51.8128C27.6825 52.5514 28.8683 52.9999 29.9292 53.4814C30.3636 53.4339 31.007 53.712 31.3314 53.7319C33.5203 53.8664 35.6928 53.2404 37.6234 52.2407C37.8033 52.1475 39.597 51.2888 39.6769 51.3229L39.6185 51.3466C38.4173 51.843 37.0198 52.8712 35.6403 53.1837L35.5831 53.2909C36.0581 53.2744 38.7558 51.9327 39.2897 51.6178C41.295 50.4351 43.2304 49.2444 45.4043 48.3734C45.7978 48.2157 46.4313 47.5752 46.8481 47.3814C49.6246 46.2176 52.1156 44.3795 54.7238 42.8785C55.5074 42.4274 56.43 42.1081 57.2345 41.6524C57.5608 41.08 59.2249 40.4172 59.8749 40.151L60.3487 39.4304Z" fill="#7F322C"/>
<path d="M60.349 39.4304C60.7077 40.4102 60.7666 41.0754 60.5867 42.1117C60.404 41.84 60.6875 40.5027 60.3826 40.1142C60.2128 40.1881 59.8074 40.4585 59.6947 40.4891C58.8073 40.7301 58.0546 41.2292 57.2349 41.6524C57.5612 41.08 59.2253 40.4172 59.8752 40.151L60.349 39.4304Z" fill="#AB4E45"/>
<path d="M34.9048 32.4014C35.2817 32.8599 35.5506 32.9189 36.0953 33.1608L36.2604 33.1651C36.5311 33.2732 36.9033 33.4084 37.1492 33.5485L37.1128 33.6552C37.4794 33.7534 37.5924 33.7599 37.9659 33.7779C37.8865 34.0932 37.7908 34.5194 37.6941 34.8203C37.586 35.1458 37.5061 35.4371 37.3188 35.7269C37.7843 35.9088 38.3023 36.0991 38.7558 36.2985L39.1127 36.4634L39.4851 36.6247C39.7201 36.7351 40.3888 37.0332 40.5699 37.1619C40.6626 37.284 40.7232 37.3403 40.7494 37.4922C40.6145 38.1003 39.8188 40.5453 39.5089 41.0244L39.0469 41.0179L38.7615 41.1461C38.6988 41.1634 36.5668 42.4509 36.4923 42.5156C36.1998 42.6469 35.6116 43.1834 35.2726 43.4149L35.2547 43.4558C35.0611 43.9024 35.021 44.4442 34.665 44.7227L34.5541 44.7144L34.6537 44.4911C34.2566 44.0911 34.185 44.0323 33.6305 43.8659C32.3606 44.1616 32.9905 44.7595 32.3423 44.9911L32.4768 44.7877C32.5349 44.4942 32.5785 44.0937 32.8605 43.9282L33.0473 43.7511C32.7979 43.5209 31.7489 43.6852 31.1746 43.5126L31.1398 43.4026C30.3586 43.2815 29.5085 43.1701 28.7675 42.9061C28.6963 42.7156 28.4331 42.3439 28.3243 42.1287C27.8723 41.2346 27.6168 40.603 27.9015 39.6101C28.2078 38.3883 29.2645 35.6739 29.7303 34.3762C29.8428 34.1409 30.0725 33.6982 30.1276 33.4624C30.8396 32.8937 33.1007 33.9056 33.91 34.2301C34.1091 33.5939 34.2646 32.6776 34.9048 32.4014Z" fill="#66A29F"/>
<path d="M27.9015 39.6101C28.0969 39.5456 28.0864 39.5524 28.1937 39.3424C28.7098 38.3322 29.8895 34.0956 30.5061 33.4695C30.9325 33.4809 32.3478 33.7334 32.5161 34.1267L32.4701 34.1321L32.5163 34.1039C32.3598 34.1288 32.2308 34.037 32.0908 33.9669L32.1191 34.0232C32.2968 34.386 32.2184 34.6749 32.181 35.0635C32.0515 36.4094 32.0005 37.7788 31.8666 39.1223C31.7741 40.0495 31.3228 42.5373 31.7255 43.3649C32.4029 43.3669 34.2605 43.3438 34.9051 43.4427L35.2726 43.4149L35.2547 43.4558C35.0611 43.9024 35.021 44.4442 34.665 44.7227L34.5541 44.7144L34.6537 44.491C34.2566 44.091 34.185 44.0323 33.6305 43.8659C32.3606 44.1616 32.9905 44.7595 32.3423 44.9911L32.4768 44.7877C32.5349 44.4942 32.5785 44.0937 32.8605 43.9282L33.0473 43.751C32.7979 43.5209 31.7489 43.6852 31.1746 43.5125L31.1398 43.4026C30.3586 43.2815 29.5085 43.1701 28.7675 42.9061C28.6963 42.7155 28.4331 42.3439 28.3243 42.1287C27.8723 41.2345 27.6168 40.603 27.9015 39.6101Z" fill="#48807F"/>
<path d="M31.1401 43.4026C32.0146 43.488 34.1157 43.6101 34.9054 43.4426L35.2729 43.4149L35.255 43.4558C35.0614 43.9024 35.0213 44.4442 34.6653 44.7227L34.5544 44.7143L34.654 44.491C34.2569 44.091 34.1853 44.0323 33.6308 43.8659C32.3609 44.1616 32.9908 44.7595 32.3426 44.9911L32.4771 44.7877C32.5352 44.4942 32.5788 44.0937 32.8608 43.9282L33.0476 43.751C32.7982 43.5209 31.7492 43.6852 31.1749 43.5125L31.1401 43.4026Z" fill="#D8887B"/>
<path d="M36.0955 33.1606L36.2606 33.165C36.5313 33.273 36.9035 33.4083 37.1494 33.5483L37.113 33.6551C37.4796 33.7532 37.5926 33.7598 37.9661 33.7777C37.8867 34.0931 37.791 34.5192 37.6943 34.8201C37.5862 35.1456 37.5064 35.437 37.319 35.7268C37.7845 35.9086 38.3025 36.099 38.756 36.2983C38.4587 36.629 38.1389 37.4743 37.933 37.9035C37.1054 39.6291 35.6639 42.4145 33.3051 41.8016C33.2392 40.8562 33.0739 40.7623 33.4445 39.7775C33.9434 38.4517 34.2615 37.0447 34.9814 35.8035C35.2505 35.3395 35.2877 34.6783 35.4637 34.1686C35.5834 33.8261 35.891 33.5196 36.0735 33.1996L36.0955 33.1606Z" fill="#3B5B5D"/>
<path d="M36.0955 33.1606L36.2606 33.165C36.5313 33.273 36.9035 33.4083 37.1494 33.5483L37.113 33.6551C36.8435 33.5849 36.7327 33.5435 36.4575 33.5673C36.2361 33.6984 36.0927 34.2763 35.9794 34.5423C35.4192 35.8562 34.9703 37.196 34.5197 38.5491C34.2198 39.4835 33.6072 40.578 33.3652 41.4902C33.3388 41.5927 33.3187 41.6966 33.3051 41.8016C33.2392 40.8562 33.0739 40.7623 33.4445 39.7775C33.9434 38.4517 34.2615 37.0447 34.9814 35.8035C35.2505 35.3395 35.2877 34.6783 35.4637 34.1686C35.5834 33.8261 35.891 33.5196 36.0735 33.1996L36.0955 33.1606Z" fill="#529392"/>
<path d="M40.5704 37.1619C40.663 37.2839 40.7237 37.3402 40.7499 37.4921C40.6149 38.1002 39.8192 40.5452 39.5094 41.0243L39.0474 41.0178C39.3116 40.4633 39.9369 38.6675 40.0362 38.0696C40.1649 37.6593 40.171 37.3462 40.5704 37.1619Z" fill="#3B5B5D"/>
<path d="M39.1132 36.4631L39.4856 36.6245C39.7206 36.7348 40.3892 37.0329 40.5704 37.1617C40.171 37.3461 40.1649 37.6591 40.0362 38.0694C39.9367 37.6691 40.2346 37.7103 39.5911 37.4289C39.3289 37.3143 39.1084 37.2006 38.9934 36.9253C38.9917 36.6984 38.9833 36.653 39.1132 36.4631Z" fill="#8DBBB8"/>
<path d="M37.5733 24.804L37.8196 24.8303C37.9334 24.889 38.1908 25.0293 38.2973 25.0693C38.4359 25.1271 38.6357 25.2172 38.7718 25.2643C39.2348 25.344 39.7892 25.4255 40.2385 25.5345C39.9628 26.1361 39.7795 26.9002 39.5015 27.4395C40.1722 27.8071 40.8078 28.1646 41.502 28.4901C43.5938 29.471 47.1398 30.7328 48.9588 32.0857C48.9232 32.7777 49.0438 34.3451 48.9459 34.8996C48.9484 35.0958 48.9582 35.3405 48.95 35.5319C48.79 35.533 48.4772 35.5171 48.3459 35.5778C47.7807 35.661 47.206 35.6286 46.649 35.6716C45.0223 35.7973 43.0991 35.6707 41.5057 35.7953C40.4233 36.8955 40.7338 36.3798 39.4851 36.6246L39.1127 36.4633L38.7558 36.2984C38.3022 36.099 37.7842 35.9087 37.3187 35.7268C37.5061 35.437 37.586 35.1457 37.694 34.8202C37.7907 34.5193 37.8864 34.0931 37.9658 33.7778C37.5923 33.7598 37.4793 33.7533 37.1127 33.6551L37.1492 33.5484C36.9032 33.4083 36.531 33.2731 36.2603 33.165L36.0952 33.1607C35.5506 32.9188 35.2817 32.8598 34.9048 32.4013C35.1737 32.3561 35.711 30.5435 35.7865 30.2026C35.972 29.6525 36.1423 29.1487 36.2927 28.586C36.7047 27.5675 36.7618 26.8974 37.0414 26.1161C37.1907 25.9331 37.4745 25.0793 37.5733 24.804Z" fill="#D26F5E"/>
<path d="M37.5733 24.804L37.8196 24.8303C37.9334 24.889 38.1908 25.0293 38.2973 25.0693C38.4359 25.1271 38.6357 25.2172 38.7718 25.2643C39.2348 25.344 39.7892 25.4255 40.2385 25.5345C39.9628 26.1361 39.7795 26.9002 39.5015 27.4395C38.5535 28.9054 38.3496 31.805 37.5633 33.4482C37.5417 33.4933 37.2101 33.5403 37.1492 33.5484C36.9032 33.4083 36.531 33.2731 36.2603 33.165L36.0952 33.1607C35.5506 32.9188 35.2817 32.8598 34.9048 32.4013C35.1737 32.3561 35.711 30.5435 35.7865 30.2026C35.972 29.6525 36.1423 29.1487 36.2927 28.586C36.7047 27.5675 36.7618 26.8974 37.0414 26.1161C37.1907 25.9331 37.4745 25.0793 37.5733 24.804Z" fill="#CA9487"/>
<path d="M38.7722 25.2642C39.2352 25.3439 39.7896 25.4254 40.2389 25.5343C39.9632 26.136 39.7799 26.9001 39.5019 27.4394C38.5539 28.9053 38.35 31.8048 37.5637 33.4481C37.5421 33.4932 37.2105 33.5402 37.1496 33.5483C36.9036 33.4082 36.5314 33.273 36.2607 33.1649C36.5113 32.8187 37.4921 29.5587 37.7262 28.8796C37.9729 28.2532 38.7641 25.857 38.7722 25.2642Z" fill="#98403A"/>
<path d="M38.2974 25.0693C38.4359 25.1271 38.6357 25.2173 38.7718 25.2643C38.7637 25.8571 37.9726 28.2534 37.7258 28.8798C37.3898 27.6708 38.9304 26.0035 38.2974 25.0693Z" fill="#C57260"/>
<path d="M37.3188 35.7267C37.5062 35.4369 37.5861 35.1456 37.6942 34.8201C37.7807 35.1257 38.1304 35.2933 38.431 35.289C38.7274 35.3436 39.116 35.5892 39.3912 35.7422C39.3941 36.5442 40.2592 36.2398 40.6822 36.0444L40.7402 36.2076C40.8673 36.247 40.8537 36.2175 41.0172 36.1418C41.1373 35.9329 41.0874 35.9266 41.0603 35.6351C41.0847 35.6076 41.1089 35.5801 41.1332 35.5527C42.0962 35.4931 48.4465 35.8244 48.8989 35.1929C48.8943 35.0933 48.9236 34.9978 48.946 34.8995C48.9485 35.0956 48.9583 35.3403 48.9501 35.5318C48.7902 35.5328 48.4773 35.5169 48.346 35.5776C47.7808 35.6608 47.2062 35.6284 46.6492 35.6714C45.0225 35.7971 43.0992 35.6706 41.5058 35.7952C40.4235 36.8954 40.7339 36.3796 39.4852 36.6245L39.1128 36.4631L38.7559 36.2983C38.3024 36.0989 37.7843 35.9086 37.3188 35.7267Z" fill="#C57260"/>
<path d="M38.4313 35.2891C38.1936 35.0078 38.1084 34.79 38.3862 34.4698C38.8536 34.3421 40.5356 35.3046 40.5814 35.8993C40.3022 36.2531 39.6869 35.9482 39.3914 35.7423C39.1163 35.5893 38.7276 35.3437 38.4313 35.2891Z" fill="#DCA8A8"/>
<path d="M54.4781 23.5115C54.6484 24.2769 54.6095 25.6448 54.6098 26.4635L54.6106 30.3351C54.6103 31.343 54.6762 34.3232 54.5434 35.219C54.4375 36.0457 54.1975 38.1728 54.2957 38.9347C53.2164 39.7167 52.6954 39.424 51.6517 39.814C50.4285 39.6412 50.9765 39.1311 50.8899 38.18C50.7219 36.334 50.8619 34.4144 50.7911 32.5814C50.7579 31.723 50.9194 29.2162 50.7524 28.5209C50.7507 27.6012 50.7344 26.6572 50.8028 25.7422C51.5714 24.5398 53.1188 23.7726 54.4781 23.5115Z" fill="#97425C"/>
<path d="M48.959 32.0858C49.0893 31.6254 48.9864 30.8794 48.9817 30.392C48.9684 29.0166 48.7447 24.302 49.2903 23.1703C49.5618 22.6072 50.046 22.2218 50.6331 22.0236C51.5114 21.7272 52.5953 21.7943 53.4235 22.2131C53.9731 22.491 54.2838 22.9395 54.4779 23.5116C53.1186 23.7728 51.5712 24.54 50.8026 25.7424C50.7342 26.6573 50.7505 27.6014 50.7522 28.5211C50.6861 28.893 50.7319 30.7031 50.7362 31.1753C50.7549 33.068 50.7607 34.9607 50.7536 36.8535C50.7512 37.4849 50.77 39.1346 50.7029 39.7075C48.1984 38.7409 49.0345 37.8192 48.9501 35.532C48.9583 35.3405 48.9485 35.0958 48.946 34.8997C49.044 34.3452 48.9233 32.7778 48.959 32.0858Z" fill="#CA849E"/>
<path d="M39.047 41.0178L39.509 41.0243C39.6667 41.059 40.3354 41.2444 40.4224 41.2243C40.5892 41.5318 41.1785 41.8938 41.2564 42.0823C41.3795 42.2117 41.4435 42.3028 41.6099 42.3665L41.6258 42.4467C41.8972 42.4891 42.1175 42.7239 42.2859 42.9327C42.4001 43.6074 42.7889 43.9953 43.3028 44.4171L43.2712 44.4319C43.1204 44.5008 43.0682 44.5104 42.9062 44.5431C42.9865 44.6102 43.3172 44.5846 43.4529 44.5848C42.1112 44.8181 41.9075 45.3278 40.8809 45.8687C40.374 46.0858 40.0452 46.6611 39.4609 46.6356C39.3652 46.5794 39.2755 46.5298 39.186 46.4638C39.0037 46.4241 38.8985 46.3631 38.7571 46.4711C38.1447 46.9392 37.3695 48.1269 36.6777 48.4359C36.5833 48.49 36.5498 48.4999 36.4884 48.5922C36.3379 48.5549 36.0251 48.3159 35.8798 48.2146C35.9247 48.1232 35.8699 47.8498 35.8544 47.7309L35.9028 47.457C35.8931 47.3592 35.9287 47.1732 35.9445 47.0685C36.0316 46.7963 36.0548 46.7309 36.2002 46.4866L36.4053 46.2008L36.4724 46.1121C36.428 45.9993 36.2405 45.6849 36.1714 45.563C36.1352 45.4499 35.822 45.0748 35.7269 44.957L35.7566 45.214C35.6374 45.3492 35.6169 45.3258 35.4348 45.3901L35.252 45.3506C34.8918 45.5838 34.5222 46.1997 33.9092 46.3589C33.5707 46.4468 33.1943 46.2729 33.0425 46.5646C33.0571 46.2614 33.1676 45.835 33.3775 45.6084C33.497 45.4548 33.6759 45.2757 33.8129 45.1309C34.0034 44.9493 34.3013 44.7935 34.5543 44.7143L34.6651 44.7227C35.0212 44.4442 35.0612 43.9024 35.2549 43.4558L35.2728 43.4149C35.6117 43.1833 36.1999 42.6469 36.4924 42.5155C36.5669 42.4509 38.6989 41.1634 38.7616 41.146L39.047 41.0178Z" fill="#AA544B"/>
<path d="M36.4924 42.5155C36.5669 42.4509 38.6989 41.1634 38.7616 41.146C38.834 41.3191 38.8905 41.406 38.8689 41.5911C38.9354 41.8626 39.0079 42.0608 38.9315 42.3315C38.8263 42.4941 38.6705 42.6291 38.4787 42.6746C38.2589 42.876 37.7032 43.3134 37.6977 43.6151L37.6451 43.6314L37.496 43.3924C36.6677 42.9444 36.1052 43.4315 35.8068 44.2101C35.9031 44.4113 36.0059 44.4842 36.1755 44.6216L36.1607 44.6698L35.8952 44.7224C35.8664 44.8104 35.8557 44.8182 35.8629 44.9091C35.7368 44.8007 35.6651 44.7309 35.5138 44.654L35.5777 44.7992C35.5351 44.7419 35.4918 44.6851 35.4479 44.6289C35.5564 44.8352 35.6223 44.8077 35.7269 44.957L35.7566 45.214C35.6374 45.3492 35.6169 45.3257 35.4348 45.3901L35.252 45.3506C34.8918 45.5838 34.5222 46.1997 33.9092 46.3589C33.5707 46.4468 33.1943 46.2729 33.0425 46.5646C33.0571 46.2614 33.1676 45.835 33.3775 45.6084C33.497 45.4548 33.6759 45.2757 33.8129 45.1309C34.0034 44.9492 34.3013 44.7935 34.5543 44.7143L34.6651 44.7227C35.0212 44.4442 35.0612 43.9024 35.2549 43.4557L35.2728 43.4149C35.6117 43.1833 36.1999 42.6469 36.4924 42.5155Z" fill="#D3867B"/>
<path d="M36.4927 42.5155C36.5672 42.4509 38.6992 41.1634 38.7619 41.146C38.8342 41.3191 38.8907 41.406 38.8691 41.5911L38.8316 41.6426C38.5041 42.1019 38.8574 42.9129 38.0749 42.5134L37.9732 42.4115L37.8924 42.1127C37.4351 41.9022 37.086 42.4706 36.4927 42.5155Z" fill="#D5978F"/>
<path d="M37.9731 42.4114C37.9949 42.1957 37.9944 42.1579 38.1156 41.9726C38.2968 41.8736 38.2176 41.8828 38.4115 41.9342C38.5806 42.1302 38.5392 42.0395 38.59 42.2776C38.4938 42.4913 38.5575 42.4239 38.3511 42.5316L38.0749 42.5133L37.9731 42.4114Z" fill="#DCA8A8"/>
<path d="M33.3774 45.6084C33.4969 45.4548 33.6758 45.2757 33.8128 45.1309C33.9953 45.3057 34.2129 45.4676 34.2414 45.7121C34.1912 45.9392 34.2388 45.864 34.0724 46.0045C33.7706 46.0181 33.5241 45.886 33.3774 45.6084Z" fill="#DCA8A8"/>
<path d="M37.4961 43.3924C37.5192 42.6754 37.876 42.7465 38.4788 42.6746C38.259 42.876 37.7033 43.3134 37.6978 43.6151L37.6452 43.6314L37.4961 43.3924Z" fill="#D8887B"/>
<path d="M39.0471 41.0178L39.5091 41.0243C39.6668 41.059 40.3355 41.2444 40.4224 41.2243C40.5893 41.5318 41.1786 41.8938 41.2564 42.0823C41.3796 42.2117 41.4436 42.3028 41.61 42.3665L41.6259 42.4467L41.5556 42.458C41.2749 42.3134 40.7996 42.2019 40.5003 42.3324C39.7401 42.7571 39.3674 43.407 38.7191 43.8259C38.7056 43.9058 38.6886 43.9829 38.6868 44.0632L38.4411 44.0211C38.0826 43.8894 38.0069 43.8414 37.6978 43.6151C37.7033 43.3134 38.2589 42.876 38.4788 42.6746C38.6706 42.6291 38.8264 42.4941 38.9316 42.3315C39.0079 42.0608 38.9355 41.8626 38.8689 41.5911C38.8906 41.406 38.8341 41.3191 38.7617 41.146L39.0471 41.0178Z" fill="#BD6659"/>
<path d="M38.687 44.063C38.6888 43.9827 38.7059 43.9057 38.7193 43.8258C39.3677 43.4068 39.7404 42.757 40.5005 42.3323C40.7083 42.4464 40.7371 42.4618 40.9753 42.4655C41.0413 42.7007 41.7206 43.2852 41.2363 43.7454C41.0539 43.9187 40.7246 44.1472 40.4757 44.1824C39.7449 44.214 39.3978 44.2207 38.687 44.063Z" fill="#812A25"/>
<path d="M35.8071 44.21C36.1056 43.4315 36.668 42.9443 37.4963 43.3923L37.6454 43.6313C37.6657 44.2391 37.4135 44.638 36.7715 44.6987C36.2721 44.7459 36.1356 44.3376 35.8071 44.21Z" fill="#DCA8A8"/>
<path d="M36.4728 46.112C36.735 45.9765 37.0219 45.7851 37.3023 45.7668C37.7458 45.9963 36.9971 47.7815 35.9448 47.0683C36.0319 46.7962 36.0551 46.7307 36.2006 46.4864L36.4056 46.2007L36.4728 46.112Z" fill="#D8887B"/>
<path d="M36.4057 46.2007C36.7247 46.3444 37.2031 46.4849 36.9305 46.9304C36.5233 47.1387 36.3052 46.8564 36.2007 46.4864L36.4057 46.2007Z" fill="#DCA8A8"/>
<path d="M37.6454 43.6312L37.698 43.615C38.0071 43.8413 38.0829 43.8893 38.4413 44.0209C38.1981 44.9552 36.7876 45.1628 35.9991 44.9486C35.9536 44.9362 35.9083 44.923 35.8632 44.909C35.856 44.8181 35.8668 44.8103 35.8955 44.7222L36.161 44.6697L36.1759 44.6214C36.0062 44.4841 35.9034 44.4112 35.8071 44.2099C36.1356 44.3376 36.2721 44.7458 36.7715 44.6986C37.4135 44.6379 37.6657 44.2391 37.6454 43.6312Z" fill="#D8887B"/>
<path d="M37.3673 47.3872C37.9195 46.9657 38.0273 46.0564 38.9794 46.1703C39.262 46.204 39.6004 45.9965 39.7782 46.0608L39.7288 46.1677C39.5659 46.2225 39.4036 46.279 39.2419 46.3372L39.1865 46.4636C39.0042 46.4239 38.899 46.3629 38.7576 46.471C38.1452 46.939 37.37 48.1268 36.6782 48.4358C36.7597 48.1147 37.1552 47.6562 37.3673 47.3872Z" fill="#AB4E45"/>
<path d="M35.9029 47.4568C36.5126 47.7945 36.7642 47.619 37.3669 47.3872C37.1548 47.6561 36.7593 48.1147 36.6778 48.4358C36.5834 48.4898 36.5499 48.4998 36.4885 48.592C36.338 48.5547 36.0252 48.3157 35.8799 48.2144C35.9248 48.123 35.8699 47.8496 35.8545 47.7307L35.9029 47.4568Z" fill="#C05B47"/>
<path d="M40.9752 42.4656C41.4361 42.6387 41.3886 42.8508 41.6136 43.2594C41.7285 43.4683 41.9141 43.7509 41.9623 43.976C41.7052 44.1633 40.8032 44.1726 40.4756 44.1824C40.7245 44.1473 41.0538 43.9188 41.2361 43.7454C41.7205 43.2853 41.0412 42.7008 40.9752 42.4656Z" fill="#98403A"/>
<path d="M24.0093 38.7524C24.0484 38.5077 24.0892 38.4216 24.254 38.2463C25.4002 37.027 25.9824 35.2195 27.7442 34.6865C28.1712 34.5573 29.3052 34.242 29.7306 34.376C29.2648 35.6737 28.2081 38.3881 27.9018 39.61C27.6171 40.6028 27.8725 41.2344 28.3246 42.1286C28.4334 42.3438 28.6966 42.7154 28.7678 42.906C26.5704 42.1571 24.8043 41.0277 24.0093 38.7524Z" fill="#903727"/>
<path d="M8.87645 40.365C8.6937 40.1692 8.52639 40.025 8.46826 39.763L8.49482 39.6436C8.93195 39.5368 9.70557 40.1723 10.1822 40.3548C11.2952 41.1964 13.7735 42.0582 15.0279 42.7727C16.6252 43.6824 18.0523 44.679 19.6536 45.6053C21.474 46.6583 23.5021 47.3634 25.2656 48.2822C27.1769 49.278 29.2813 50.5335 31.0898 51.6893C31.4673 51.9305 32.3706 52.2335 32.4998 52.6524C32.1303 53.1772 29.3883 51.4382 28.8718 51.2309C27.8459 50.8805 26.3992 49.7793 25.3771 49.2043C24.4138 48.6624 22.5574 48.0043 21.7388 47.4106C21.5886 47.3636 21.3474 47.2463 21.2006 47.1757C17.9772 45.6268 15.0219 43.591 11.8389 41.9617C10.8115 41.4358 9.82301 41.0402 8.87645 40.365Z" fill="#D7A7A4"/>
<path d="M21.7388 47.4104C22.3101 47.5455 22.7037 47.7847 23.2176 47.9952C24.9432 48.7019 26.5667 49.6841 28.102 50.7355C28.3268 50.8895 28.6781 51.0706 28.8718 51.2307C27.846 50.8803 26.3992 49.7791 25.3771 49.2041C24.4138 48.6622 22.5575 48.0041 21.7388 47.4104Z" fill="#D8887B"/>
<path d="M7.50928 39.4457L7.5265 39.3902C8.32257 36.8653 12.7018 35.7684 14.6154 33.9722C15.1221 33.4967 17.9318 31.7299 18.5293 31.4221C18.5356 31.5985 18.4823 31.7714 18.4926 31.9433C18.5002 32.072 18.6245 32.3539 18.5814 32.4649C18.5701 32.4942 18.5118 32.5509 18.4913 32.5739C18.4005 32.6764 18.2658 32.7294 18.1787 32.8377C18.0418 33.0079 17.968 33.2216 17.8253 33.3942C16.9298 34.4776 15.6363 35.392 14.3363 35.9211C13.409 36.2986 12.0724 36.5079 11.3256 37.1703C10.2153 38.1552 10.2978 39.9384 10.1174 40.096L9.92313 40.0807C10.0432 40.2779 10.0628 40.1754 10.1826 40.3547C9.70595 40.1722 8.93232 39.5367 8.4952 39.6436L8.46863 39.763C8.52676 40.025 8.69407 40.1692 8.87682 40.365C8.37295 40.2186 7.96956 39.5616 7.59673 39.5518L7.50928 39.4457Z" fill="#D8887B"/>
<path d="M40.8812 45.8685L40.8523 45.9069C40.5185 46.3423 39.7981 46.7353 39.6502 46.9721C40.2078 46.979 42.2043 45.6539 43.1013 45.736C43.4664 45.7694 43.9225 46.1066 44.1217 46.0755C44.1865 45.7158 44.0076 45.5996 44.1286 45.4668L44.2489 45.501C44.5479 46.0639 44.0108 46.2976 44.3838 46.7563L44.4981 46.7871C44.9981 46.2459 44.6084 45.8003 44.6638 45.3455C44.7771 45.3906 44.7833 45.4506 44.8431 45.5886C44.9611 45.8621 44.9638 46.1716 44.8506 46.4471C44.4665 47.3743 42.8468 48.1014 41.9359 48.3653L41.9541 48.446C42.4951 48.6958 44.1386 48.4156 44.4233 48.6964C43.712 48.9254 41.8385 48.4173 40.7771 48.5227C40.3086 49.0021 39.949 49.1146 39.2495 49.123C38.3022 49.142 37.3615 48.961 36.4888 48.592C36.5501 48.4998 36.5836 48.4898 36.6781 48.4358C37.3699 48.1268 38.145 46.939 38.7575 46.471C38.8989 46.3629 39.0041 46.4239 39.1863 46.4636C39.2759 46.5296 39.3656 46.5793 39.4613 46.6354C40.0455 46.6609 40.3743 46.0856 40.8812 45.8685Z" fill="#812A25"/>
<path d="M43.3659 42.8186C43.1556 42.3839 43.8604 42.47 44.1251 42.0684C44.3371 42.3637 44.4419 42.5305 44.6207 42.8455C45.1361 43.0679 46.0536 43.3351 45.9821 44.0154C45.7857 44.355 45.4731 44.4544 45.0998 44.5556C45.0254 44.5756 44.9508 44.594 44.8757 44.6109C45.145 44.7717 45.6356 45.0834 45.9011 45.21C46.1396 45.621 46.6195 46.9332 46.3795 47.3562C45.9849 46.9978 46.4221 45.7553 45.7513 45.2589C45.3858 44.9884 45.0249 44.9179 44.7974 44.5714C44.5954 44.4685 43.7886 44.591 43.4531 44.5846C43.3174 44.5844 42.9867 44.6101 42.9064 44.543C43.0684 44.5103 43.1206 44.5006 43.2714 44.4318L43.303 44.417C42.7891 43.9951 42.4003 43.6073 42.2861 42.9325C42.4867 43.0253 42.8814 43.0049 43.1179 43.0082C43.1692 43.0316 43.1834 43.0204 43.2499 43.0172L43.3659 42.8186Z" fill="#98403A"/>
<path d="M43.3659 42.8186C43.9913 43.3139 44.2527 43.8 44.6274 44.4872C44.3352 44.481 43.5133 44.5095 43.303 44.417C42.7891 43.9951 42.4003 43.6073 42.2861 42.9325C42.4867 43.0253 42.8814 43.0049 43.1179 43.0082C43.1692 43.0316 43.1834 43.0204 43.2499 43.0172L43.3659 42.8186Z" fill="#AB4E45"/>
<path d="M24.0094 38.7524C23.9488 38.1029 23.7153 37.8878 23.8934 37.0726C24.4028 34.7428 27.1751 35.1196 28.7502 33.8487C28.8199 33.7924 29.7415 33.7925 29.9616 33.6561C29.9796 33.5308 29.9742 33.5351 30.0578 33.4426L30.1279 33.4622C30.0729 33.698 29.8432 34.1407 29.7307 34.376C29.3053 34.242 28.1713 34.5573 27.7443 34.6864C25.9825 35.2194 25.4003 37.027 24.2541 38.2463C24.0893 38.4216 24.0485 38.5077 24.0094 38.7524Z" fill="#C05B47"/>
<path d="M32.3423 44.9909C32.9904 44.7593 32.3606 44.1614 33.6305 43.8657C34.1849 44.0321 34.2566 44.0908 34.6537 44.4908L34.5541 44.7142C34.3011 44.7933 34.0033 44.9491 33.8127 45.1307C33.6758 45.2755 33.4968 45.4547 33.3774 45.6083C33.1674 45.8348 33.0569 46.2613 33.0423 46.5645L32.9705 46.7655C32.71 46.8835 32.0659 46.5206 31.8068 46.4007C31.6169 46.3038 31.5398 46.1913 31.4019 46.0296L31.3941 46.0657C31.3683 46.0145 31.5163 45.3296 31.5408 45.2315L31.7189 45.165C31.9399 45.1633 31.9957 45.1705 32.2036 45.0876L32.3423 44.9909Z" fill="#C57260"/>
<path d="M33.8738 44.5028C34.1877 44.6514 34.2686 44.3724 34.654 44.4908L34.5544 44.7142C34.3014 44.7933 34.0036 44.9491 33.813 45.1307C33.6761 45.2755 33.4971 45.4547 33.3777 45.6083C33.1678 45.8349 33.0573 46.2613 33.0426 46.5645L32.9708 46.7655C32.7103 46.8835 32.0663 46.5206 31.8071 46.4007C31.8376 46.3665 32.1953 46.0882 32.2599 46.0316C32.9145 45.4597 33.2231 45.2647 33.6739 44.5427L33.8738 44.5028Z" fill="#B6372A"/>
<path d="M31.4019 46.0297C31.708 45.4805 32.587 45.259 33.0709 44.8536C33.2297 44.7207 33.6025 44.3812 33.7739 44.3738L33.8734 44.5028L33.6735 44.5428C33.2228 45.2647 32.9142 45.4598 32.2596 46.0317C32.1949 46.0882 31.8373 46.3665 31.8068 46.4008C31.6169 46.3039 31.5397 46.1914 31.4019 46.0297Z" fill="#C05B47"/>
<path d="M30.8394 25.502C30.8863 26.4473 30.9528 27.4447 30.924 28.386C30.8028 27.9943 30.8446 27.0416 30.7595 26.9221C29.8581 27.3878 28.9726 27.4911 27.9617 27.5545C27.7945 27.565 27.5911 27.3058 27.4219 27.1926L27.3848 27.1683C28.6976 26.5563 29.3816 25.9378 30.8394 25.502Z" fill="#D8887B"/>
<path d="M40.7498 37.492C40.8239 37.2652 40.8032 37.1857 40.966 37.0735C41.1247 37.1739 41.2447 37.4328 41.3437 37.6067C41.3272 38.0047 41.2821 39.1364 41.4618 39.4365C41.105 40.0781 40.8618 40.6399 40.4226 41.2242C40.3357 41.2444 39.667 41.0589 39.5093 41.0242C39.8192 40.5452 40.6148 38.1002 40.7498 37.492Z" fill="#812A25"/>
<path d="M33.6611 47.6117C34.3904 47.2417 35.2458 45.9368 36.1714 45.563C36.2405 45.6849 36.4281 45.9993 36.4724 46.1121L36.4053 46.2008L36.2003 46.4865C36.0548 46.7309 36.0316 46.7963 35.9445 47.0685C35.9288 47.1732 35.8931 47.3592 35.9028 47.457L35.8544 47.7309C35.8699 47.8497 35.9248 48.1232 35.8798 48.2146C35.726 48.1494 34.6928 47.9677 34.4761 47.9256C34.1088 47.8279 34.0004 47.784 33.6611 47.6117Z" fill="#98403A"/>
<path d="M34.4761 47.9257C35.1171 47.6634 34.9636 47.8126 35.69 47.4016L35.7975 47.4361L35.8544 47.7309C35.8698 47.8498 35.9247 48.1232 35.8798 48.2146C35.7259 48.1495 34.6927 47.9677 34.4761 47.9257Z" fill="#812A25"/>
<path d="M48.3462 35.5776L48.5801 35.669C46.6777 35.8711 43.6068 35.7359 41.6233 35.9157C41.4317 35.9331 40.9964 36.4043 40.8317 36.5743C41.3362 37.1156 41.3192 37.1437 41.6164 37.8291C41.7167 37.7293 41.7176 37.7177 41.7748 37.5855C43.0524 36.7132 45.0975 36.5289 46.623 36.5096C45.3056 36.7069 42.5507 36.7615 41.7803 37.7831C41.7268 37.8542 41.6777 37.9286 41.6334 38.0058L41.9227 38.7616L41.4617 39.4364C41.2819 39.1363 41.327 38.0046 41.3435 37.6066C41.2445 37.4327 41.1245 37.1738 40.9659 37.0734C40.803 37.1856 40.8237 37.2651 40.7496 37.4919C40.7234 37.3401 40.6628 37.2838 40.5701 37.1617C40.389 37.0329 39.7204 36.7348 39.4854 36.6245C40.734 36.3796 40.4236 36.8954 41.506 35.7952C43.0993 35.6706 45.0226 35.7971 46.6493 35.6714C47.2063 35.6284 47.7809 35.6608 48.3462 35.5776Z" fill="#98403A"/>
<path d="M35.7269 44.957C35.822 45.0748 36.1353 45.45 36.1714 45.563C35.2458 45.9368 34.3904 47.2417 33.6611 47.6117C33.5233 47.5792 33.3364 47.452 33.2627 47.3278C33.3048 46.738 34.2909 46.5902 34.6633 46.2693C34.8556 46.1035 35.2566 45.6035 35.4348 45.3902C35.6169 45.3258 35.6374 45.3492 35.7566 45.214L35.7269 44.957Z" fill="#C05B47"/>
<path d="M31.7192 45.1651C31.7297 44.9575 31.7442 44.719 31.5896 44.5745C31.433 44.6786 31.3498 44.9938 31.2779 45.1883C31.1711 44.722 31.843 43.8141 32.3265 43.7283C32.507 43.8406 32.3654 43.9249 32.5467 44.0988C32.6204 44.0577 32.6558 43.9965 32.7072 43.9285L32.8607 43.9281C32.5787 44.0936 32.5352 44.4942 32.4771 44.7876L32.3426 44.9911L32.2039 45.0878C31.996 45.1706 31.9402 45.1635 31.7192 45.1651Z" fill="#D8887B"/>
<path d="M32.2042 45.0876C32.0705 45.0565 32.0448 45.0421 31.9203 44.9816C31.7329 44.6806 31.5846 44.1424 32.0764 44.0857C32.3213 44.2707 32.3601 44.4784 32.4774 44.7875L32.3429 44.9909L32.2042 45.0876Z" fill="#D5978F"/>
<path d="M41.2563 42.0821C41.4497 41.6761 42.4719 41.2848 42.882 41.3864C43.0427 41.5101 43.0005 41.4411 43.0365 41.6464C42.6662 41.9336 42.4829 41.9987 42.4236 42.4587C42.2172 42.5176 42.0653 42.2281 41.6099 42.3663C41.4435 42.3026 41.3795 42.2115 41.2563 42.0821Z" fill="#D8887B"/>
<path d="M51.6519 39.8141C52.6955 39.4241 53.2165 39.7168 54.2959 38.9348L54.3281 39.0303C54.1293 39.2859 53.2192 39.9641 52.8885 39.9733C52.6242 39.9807 51.9369 39.8714 51.6519 39.8141Z" fill="#812A25"/>
<path d="M42.4236 42.4589C42.7042 42.4279 42.7774 42.4294 42.9974 42.261C42.9617 42.7679 43.2157 42.5482 43.1177 43.0084C42.8812 43.0051 42.4864 43.0255 42.2859 42.9327C42.1174 42.724 41.8972 42.4892 41.6257 42.4467L41.6099 42.3665C42.0652 42.2283 42.2171 42.5178 42.4236 42.4589Z" fill="#C05B47"/>
<path d="M42.9976 42.2608C43.4303 41.889 43.6092 41.6368 44.125 42.0684C43.8604 42.47 43.1556 42.3839 43.3659 42.8186L43.2499 43.0172C43.1834 43.0204 43.1692 43.0316 43.1179 43.0083C43.216 42.5481 42.9619 42.7678 42.9976 42.2608Z" fill="#AB4E45"/>
<path d="M36.945 13.6743C38.7745 13.0793 45.7817 15.8231 46.6831 17.4549C47.0888 19.9457 44.9252 23.3967 42.3281 23.8687C41.8503 24.0127 41.5835 24.0462 41.082 24.0859C40.8869 24.5682 40.7909 25.4245 40.239 25.5344C39.7896 25.4255 39.2352 25.344 38.7722 25.2642C38.6361 25.2172 38.4363 25.1271 38.2978 25.0692C38.1912 25.0293 37.9338 24.8889 37.82 24.8303L37.5738 24.8039C37.4685 24.6448 37.3703 24.4757 37.2718 24.3119C37.3536 23.8855 37.5145 23.4657 37.7058 23.0774C37.2315 22.6354 36.9395 22.2698 36.5422 21.7616L36.379 21.5561L36.089 21.0057C35.0794 19.0884 35.1122 17.096 35.9538 15.1186C36.1228 14.7516 36.3052 14.4151 36.4957 14.0594L36.945 13.6743ZM39.5883 20.6885L40.2043 21.0599C42.2706 21.5987 42.9914 20.2527 43.8547 18.7236C43.3443 18.6061 42.2516 18.1866 41.772 17.968C41.1672 17.7809 39.0945 16.9399 38.5721 16.6214C38.3415 16.8559 38.4263 17.3028 38.3223 17.5901C38.4225 18.9402 38.671 19.6747 39.5883 20.6885Z" fill="#74B2B3"/>
<path d="M36.945 13.6743C38.7745 13.0793 45.7817 15.8231 46.6832 17.4549C46.0146 17.6192 46.1977 17.0528 45.5518 17.5254C44.9894 18.0254 45.2619 18.3691 44.8231 18.7997L44.717 18.8071C44.5029 18.6333 44.718 18.5236 44.4269 18.1883C44.094 18.0326 43.9667 18.4676 43.8547 18.7236C43.3443 18.6061 42.2517 18.1866 41.772 17.968C41.1672 17.7809 39.0945 16.9399 38.5722 16.6214C38.4381 16.3874 37.7139 15.9792 37.4322 15.6277L37.511 15.5674L37.3755 15.2736C36.8109 15.4417 36.8164 16.3939 36.5828 16.8067C36.2119 17.0647 36.3875 17.3053 36.137 17.5095C36.0771 17.2128 36.4121 16.1384 36.5372 15.8335C36.6307 15.4185 36.7662 15.062 36.909 14.6626C36.9604 14.6703 37.1354 14.7229 37.1952 14.7395L37.3038 14.677L37.3358 14.6976L37.308 14.6469L37.487 14.7608C37.2895 14.4997 37.3065 14.6877 37.3037 14.392L37.4406 14.2799C37.2357 14.0731 37.1242 13.8961 36.945 13.6743Z" fill="#65A6A7"/>
<path d="M37.3755 15.2737C37.7169 15.5103 37.8886 15.5723 38.2674 15.7261L38.4682 15.8107L38.4341 15.8651L38.1822 15.8839C38.9114 16.2629 39.6057 16.6796 40.3459 17.0404C40.6012 17.1649 40.8072 17.4077 41.0026 17.5291C41.1848 17.6422 41.4109 17.5653 41.6232 17.7979L41.6656 17.8439C41.7039 17.886 41.7362 17.9244 41.7721 17.9681C41.1672 17.7811 39.0946 16.9401 38.5722 16.6215C38.4381 16.3875 37.7139 15.9793 37.4322 15.6279L37.5111 15.5675L37.3755 15.2737Z" fill="#529392"/>
<path d="M36.5372 15.8336C36.7782 15.637 36.8789 15.3189 37.0121 15.0264C37.3512 14.9 38.1365 15.3214 38.3496 15.6435L38.2674 15.7261C37.8886 15.5723 37.7169 15.5103 37.3755 15.2737C36.8109 15.4418 36.8164 16.394 36.5828 16.8068C36.2119 17.0648 36.3875 17.3054 36.137 17.5096C36.0771 17.2129 36.4121 16.1385 36.5372 15.8336Z" fill="#66A29F"/>
<path d="M45.5516 17.5254C46.1975 17.0529 46.0144 17.6193 46.6829 17.4549C47.0886 19.9458 44.925 23.3968 42.3279 23.8688C41.8501 24.0128 41.5833 24.0463 41.0818 24.086C40.8867 24.5683 40.7907 25.4246 40.2388 25.5345C39.7894 25.4256 39.235 25.3441 38.772 25.2643C38.6359 25.2173 38.4361 25.1271 38.2976 25.0693C38.191 25.0294 37.9336 24.889 37.8198 24.8304C37.9668 24.7602 38.0763 24.8031 38.2426 24.8338C38.8367 24.5274 38.8046 23.8596 39.1699 23.4958C39.3101 23.4773 39.3487 23.4656 39.4821 23.4181C39.4384 23.2961 39.4083 23.2433 39.4133 23.1164C39.7882 22.9832 40.228 23.0019 40.6243 22.95C43.0445 22.6328 44.1385 20.9485 44.8229 18.7998C45.2617 18.3692 44.9892 18.0254 45.5516 17.5254Z" fill="#3B5B5D"/>
<path d="M44.823 18.7997C45.2618 18.3691 44.9893 18.0254 45.5517 17.5254C44.9152 21.2201 43.4194 23.2215 39.6162 23.6244C39.2961 24.064 39.3266 24.7071 38.8617 24.9598C38.6578 24.9989 38.4101 24.9436 38.2427 24.8337C38.8368 24.5274 38.8047 23.8596 39.1701 23.4957C39.3102 23.4773 39.3488 23.4656 39.4822 23.4181C39.4385 23.2961 39.4084 23.2433 39.4134 23.1164C39.7883 22.9831 40.2281 23.0019 40.6244 22.95C43.0446 22.6328 44.1386 20.9485 44.823 18.7997Z" fill="#529392"/>
<path d="M39.6161 23.6243C40.0276 23.6547 41.4138 23.6521 41.6558 23.7103L41.5666 23.7286C41.7891 23.7864 42.2489 23.8451 42.3279 23.8686C41.8501 24.0126 41.5833 24.0461 41.0818 24.0858C40.8867 24.5681 40.7907 25.4244 40.2388 25.5343C39.7894 25.4254 39.235 25.3439 38.772 25.2641C38.6359 25.2171 38.4361 25.127 38.2976 25.0691C38.191 25.0292 37.9336 24.8888 37.8198 24.8302C37.9668 24.76 38.0763 24.8029 38.2426 24.8336C38.4099 24.9435 38.6577 24.9988 38.8616 24.9597C39.3265 24.707 39.2959 24.0639 39.6161 23.6243Z" fill="#3E5458"/>
<path d="M36.5828 16.8068C36.8164 16.3941 36.8109 15.4418 37.3755 15.2737L37.5111 15.5675L37.4322 15.6279C37.7139 15.9793 38.4381 16.3875 38.5722 16.6215C38.3416 16.8561 38.4264 17.3029 38.3224 17.5902C38.4225 18.9403 38.6711 19.6748 39.5883 20.6886L40.2044 21.0601C39.8672 21.1577 38.0714 21.3875 37.6846 21.3247C37.579 21.3076 37.4242 21.2007 37.3706 21.0921C36.5563 19.4442 36.0561 18.6899 36.5828 16.8068Z" fill="#529392"/>
<path d="M38.486 20.0563C38.4275 20.0681 38.288 20.1095 38.2446 20.0867C36.7367 19.2938 36.8946 16.8325 37.2925 15.6162L37.4321 15.6276C37.7138 15.9791 38.438 16.3873 38.5721 16.6213C38.3415 16.8558 38.4263 17.3027 38.3223 17.59C38.4224 18.9401 38.671 19.6746 39.5882 20.6884C38.9192 20.6123 38.9713 20.5191 38.486 20.0563Z" fill="#3B5B5D"/>
<path d="M38.4862 20.0564C38.1115 19.412 37.8391 18.2192 38.3225 17.5901C38.4227 18.9402 38.6712 19.6747 39.5885 20.6885C38.9194 20.6124 38.9716 20.5193 38.4862 20.0564Z" fill="#A09171"/>
<path d="M43.8547 18.7237C43.9666 18.4676 44.0939 18.0326 44.4268 18.1884C44.7179 18.5236 44.5028 18.6334 44.7169 18.8072L44.823 18.7997C44.1387 20.9485 43.0447 22.6328 40.6245 22.95C40.2282 23.0019 39.7883 22.9832 39.4134 23.1164C39.4085 23.2433 39.4385 23.2961 39.4822 23.4181C39.3488 23.4656 39.3102 23.4773 39.1701 23.4957C38.8048 23.8596 38.8368 24.5274 38.2427 24.8337C38.0765 24.803 37.967 24.7602 37.82 24.8304L37.5737 24.804C37.4685 24.6449 37.3703 24.4758 37.2718 24.312C37.3536 23.8855 37.5144 23.4657 37.7058 23.0774C37.2315 22.6355 36.9394 22.2699 36.5422 21.7617L36.3789 21.5562C37.6426 21.3675 37.5092 21.4185 38.1482 22.4937C41.0409 23.1371 43.6246 22.0482 44.1015 18.9375C44.3056 18.7939 44.4072 18.6834 44.4569 18.4538L44.3755 18.3325C44.237 18.3717 44.0611 18.6057 43.9554 18.7254L43.8547 18.7237Z" fill="#66A29F"/>
<path d="M31.4096 13.1845C32.4416 11.463 35.958 11.8257 36.4956 14.0594C36.3051 14.4152 36.1227 14.7517 35.9537 15.1187C35.1121 17.0961 35.0793 19.0884 36.0889 21.0058L36.3789 21.5562L36.5421 21.7617C36.5257 22.4771 36.3959 25.4638 36.6263 25.9234C36.8049 26.0393 36.8463 26.0521 37.0417 26.1162C36.7622 26.8974 36.705 27.5676 36.293 28.586C36.1426 29.1487 35.9723 29.6526 35.7868 30.2026C35.5324 30.2227 33.5607 30.0722 33.2634 30.0444C33.0184 30.0174 32.9087 30.0156 32.683 29.9132C31.8685 29.819 30.9605 29.2933 30.9239 28.386C30.9528 27.4447 30.8863 26.4474 30.8394 25.502C31.113 24.978 30.7193 15.6466 31.0471 14.0398C31.1048 13.6803 31.2079 13.4799 31.4096 13.1845Z" fill="#97425C"/>
<path d="M31.4096 13.1845C32.4416 11.463 35.958 11.8257 36.4956 14.0594C36.3051 14.4152 36.1227 14.7517 35.9537 15.1187C35.9342 14.7722 35.7725 14.3475 35.4424 14.1885C35.2189 14.1621 35.1922 14.1776 35.0081 14.2916C32.8935 15.6264 33.0803 16.9682 33.0428 19.1678C33.005 21.3861 32.9525 23.5987 33.0439 25.8202C33.0709 26.8746 33.2716 28.9284 33.1802 29.9276L33.2634 30.0444C33.0184 30.0174 32.9087 30.0156 32.683 29.9132C31.8685 29.819 30.9605 29.2933 30.9239 28.386C30.9528 27.4447 30.8863 26.4474 30.8394 25.502C31.113 24.978 30.7193 15.6466 31.0471 14.0398C31.1048 13.6803 31.2079 13.4799 31.4096 13.1845Z" fill="#D18CA4"/>
<path d="M32.683 29.9131C32.7964 29.6158 32.591 25.9785 32.6124 25.3036C32.6914 22.8163 32.9874 19.9886 32.7384 17.5238L32.8284 17.5989L32.8429 17.5784C32.7489 17.0981 32.8706 16.834 32.8745 16.4142C32.8768 16.1776 32.3766 15.8256 32.7702 15.4015L32.8552 15.5709L32.9215 15.5452C32.881 14.7146 34.3921 14.4404 35.0082 14.2915C32.8935 15.6263 33.0804 16.9681 33.0429 19.1678C33.005 21.3861 32.9526 23.5987 33.0439 25.8201C33.071 26.8746 33.2717 28.9283 33.1802 29.9275L33.2634 30.0443C33.0185 30.0173 32.9087 30.0156 32.683 29.9131Z" fill="#C56272"/>
<path d="M31.4094 13.1843L31.4406 13.4831C31.7523 13.7125 32.3097 13.8973 32.4968 14.1167L32.5187 14.2657L32.4613 14.3113L32.3467 14.237C31.9576 14.3831 31.512 14.5749 31.1253 14.3206L31.1069 14.3531C31.0089 14.2301 31.042 14.2276 31.0469 14.0396C31.1046 13.6801 31.2077 13.4797 31.4094 13.1843Z" fill="#DCA8A8"/>
<path d="M36.089 21.0059L36.379 21.5562L36.5422 21.7617C36.5258 22.4772 36.396 25.4639 36.6264 25.9234C36.805 26.0394 36.8464 26.0521 37.0418 26.1162C36.7623 26.8975 36.7051 27.5676 36.2931 28.586C36.2625 27.8134 36.7992 27.1841 36.7854 26.2656C36.722 26.2414 36.7018 26.2174 36.6621 26.163L36.5655 26.1834C36.4153 26.4094 36.1555 28.4624 35.9439 28.8944L35.8816 28.8645C35.8638 28.3912 35.9242 28.3585 35.9677 27.9271C35.9715 27.5725 35.935 27.1154 35.9494 26.775C35.9846 25.9422 35.7873 21.4664 36.089 21.0059Z" fill="#C56272"/>
<path d="M57.9004 2C62.3187 2 65.9004 5.58172 65.9004 10C65.9004 14.4183 62.3187 18 57.9004 18C53.4821 18 49.9004 14.4183 49.9004 10C49.9004 5.58172 53.4821 2 57.9004 2ZM61.2588 7.64645C61.0852 7.47288 60.8158 7.4536 60.621 7.58859L60.5517 7.64645L56.9004 11.298L55.2539 9.65131L55.1847 9.59346C54.9898 9.45846 54.7204 9.47775 54.5468 9.65131C54.3733 9.82488 54.354 10.0943 54.489 10.2892L54.5468 10.3584L56.5468 12.3584L56.6161 12.4163C56.7866 12.5344 57.0142 12.5344 57.1847 12.4163L57.2539 12.3584L61.2588 8.35355L61.3167 8.28431C61.4517 8.08944 61.4324 7.82001 61.2588 7.64645Z" fill="#10B981"/>
</svg>
