<svg width="68" height="68" viewBox="0 0 68 68" fill="none" xmlns="http://www.w3.org/2000/svg">
<circle cx="34" cy="34" r="34" fill="white"/>
<path d="M32.9903 6.94916C33.0238 5.52256 34.6194 5.47122 35.5031 6.22974C35.6837 6.38476 35.6952 6.80151 35.6977 7.03949C35.6904 8.15758 35.6274 9.79728 35.6884 10.8736C36.3824 11.2062 37.4464 11.7777 38.1219 12.1769C38.1802 12.0418 38.1292 9.68509 38.121 9.37409C38.5647 8.14107 40.5581 8.20859 40.8789 9.30972C40.8649 10.7315 40.8617 12.1534 40.869 13.5753C41.4056 13.8345 42.6713 14.4731 43.1506 14.7947C43.1055 13.9152 43.1299 12.8144 43.1256 11.918C43.3424 11.532 43.5589 11.3565 43.9997 11.2329C44.4824 11.0967 44.9994 11.1573 45.4375 11.4015C45.642 11.5176 45.7241 11.6657 45.8456 11.8586C45.943 13.1682 45.8569 14.971 45.8747 16.3341C46.2668 16.4945 46.7372 16.7175 46.9607 17.0989C47.0168 17.5062 47.0107 17.7015 46.9998 18.1092C46.6056 18.5224 45.9495 18.7933 45.8197 19.0555C45.9087 19.6776 45.7621 21.8808 46.0062 22.1117C46.9895 22.601 47.0474 22.8018 46.9978 23.9039C46.6209 24.3112 46.3408 24.4531 45.8455 24.6953L45.8536 24.995C45.8979 25.7777 45.8349 26.5569 45.8742 27.2922C46.5322 27.6117 47.1801 27.9517 47.8169 28.3116C48.124 28.4823 49.0004 28.9906 49.2988 29.0836C49.2889 27.5211 49.291 25.9586 49.3052 24.3962C49.3015 24.1951 49.2894 23.9425 49.386 23.7582C50.1154 22.3663 53.3076 22.3798 53.8379 23.9393C53.9393 24.566 53.904 25.7278 53.897 26.4023L53.8713 29.9154C53.8704 30.2683 53.8412 31.2443 53.9409 31.5196C54.6402 31.7614 55.2562 32.1286 55.8939 32.4897C57.0764 33.1592 57.648 33.813 57.645 35.2081C57.7916 36.1872 57.8174 39.2155 57.0713 39.8847C55.986 40.8581 54.1255 41.6841 52.8051 42.3883L45.4231 46.3109L38.6341 49.9132C37.3406 50.5945 35.9933 51.3326 34.6728 51.9458C33.3784 52.547 31.0092 52.6043 29.6739 52.0796C28.0049 51.4237 26.3038 50.4199 24.7137 49.572L16.5771 45.2574C14.9288 44.376 13.0984 43.5082 11.511 42.5157C10.8824 42.1227 10.3934 41.2165 10.3514 40.506C10.2839 39.4841 10.2722 38.0925 10.3453 37.0747C10.376 34.9918 12.3982 34.1634 14.0669 33.4547L14.0527 28.6268C14.0516 27.992 14.0157 26.4793 14.1209 25.9235C14.8459 24.3657 17.3697 24.5435 18.4762 25.6707C18.5826 25.9936 18.631 26.1157 18.6448 26.4641C18.7007 27.2596 18.718 30.23 18.6395 31.0101C19.3742 30.7121 20.375 30.0306 21.217 29.6563C21.2603 29.5198 21.2318 29.3092 21.2225 29.1582C21.2507 28.8384 21.2468 28.6456 21.472 28.4209C21.716 28.1597 22.0462 28.0277 22.3689 27.8958C22.4072 26.8811 22.3759 25.6917 22.3826 24.6547C21.8743 24.4427 21.6924 24.3453 21.304 23.9575C21.0725 23.038 21.289 22.4355 22.2533 22.138C22.4702 21.9058 22.3709 19.5214 22.387 18.9843C22.2801 18.813 21.571 18.4787 21.3832 18.2262C21.157 17.9222 21.2394 17.4719 21.2656 17.0998C21.5174 16.7171 21.9381 16.4751 22.3502 16.302C22.3765 17.3298 22.5427 17.7304 23.757 17.7059C24.4008 17.693 24.8856 17.4902 25.2372 16.9373L25.3745 16.8943C25.5326 16.6094 25.4302 16.1658 25.3781 15.8472C25.4281 15.6671 25.4238 15.6352 25.4089 15.4478C24.9924 15.1731 25.0439 14.9368 25.0662 14.4894C25.5445 14.1864 26.0939 13.7938 26.686 13.8093C26.9522 13.8162 27.0261 13.875 27.379 13.8622L27.441 13.8597C27.5079 14.106 27.4039 14.1773 27.3367 14.48C27.8543 15.6068 29.3018 15.2592 29.9873 14.5206L30.0854 14.5617C30.4696 13.91 30.216 13.0772 30.3649 12.3416C31.015 12.0731 32.1643 11.3168 32.9831 10.9327C33.0159 10.5993 32.9881 9.79697 32.985 9.44178C32.9786 8.61091 32.9804 7.78001 32.9903 6.94916Z" fill="#A2A2A2"/>
<path d="M32.9902 6.94916C33.0237 5.52256 34.6192 5.47122 35.503 6.22974C35.6836 6.38476 35.695 6.80151 35.6976 7.03949C35.6903 8.15758 35.6272 9.79728 35.6882 10.8736C36.3822 11.2062 37.4463 11.7777 38.1218 12.1769C38.18 12.0418 38.129 9.68509 38.1208 9.37409C38.5646 8.14107 40.558 8.20859 40.8787 9.30972C40.8648 10.7315 40.8615 12.1534 40.8689 13.5753C41.4055 13.8345 42.6712 14.4731 43.1505 14.7947C43.1054 13.9152 43.1298 12.8144 43.1255 11.918C43.3423 11.532 43.5588 11.3565 43.9995 11.2329C44.4822 11.0967 44.9993 11.1573 45.4374 11.4015C45.6419 11.5176 45.724 11.6657 45.8455 11.8586C45.9428 13.1682 45.8568 14.971 45.8746 16.3341C46.2667 16.4945 46.7371 16.7175 46.9605 17.0989C47.0167 17.5062 47.0106 17.7015 46.9997 18.1092C46.6055 18.5224 45.9494 18.7933 45.8195 19.0555C45.9086 19.6776 45.762 21.8808 46.0061 22.1117C46.9894 22.601 47.0473 22.8018 46.9977 23.9039C46.6207 24.3112 46.3407 24.4531 45.8453 24.6953L45.8535 24.995C45.8977 25.7777 45.8348 26.5569 45.874 27.2922C45.8271 27.4837 45.794 27.5585 45.86 27.7495C46.1167 28.0901 46.4657 28.0342 46.8692 28.5413L47.0102 28.8616C43.9934 30.6828 40.8838 32.2133 37.7536 33.8279C37.3884 34.0163 35.5454 34.9772 35.3193 34.9873L35.3287 34.5523L35.2592 34.4253L35.2274 34.1463C34.7318 33.1373 33.6892 33.0516 32.7008 32.9939L32.4245 33.0461L31.8184 33.1678C31.316 33.4021 31.0028 33.6655 30.6669 34.1131C30.6548 34.098 30.6428 34.0828 30.6308 34.0678C27.7046 32.3978 24.6408 30.8968 21.6858 29.253C21.5613 29.1837 21.3292 29.1644 21.2224 29.1582C21.2505 28.8384 21.2467 28.6456 21.4718 28.4209C21.7159 28.1597 22.046 28.0277 22.3687 27.8958C22.4071 26.8811 22.3757 25.6917 22.3825 24.6547C21.8742 24.4427 21.6923 24.3453 21.3039 23.9575C21.0723 23.038 21.2888 22.4355 22.2532 22.138C22.47 21.9058 22.3707 19.5214 22.3869 18.9843C22.28 18.813 21.5709 18.4787 21.3831 18.2262C21.1569 17.9222 21.2393 17.4719 21.2655 17.0998C21.5173 16.7171 21.938 16.4751 22.35 16.302C22.3763 17.3298 22.5426 17.7304 23.7568 17.7059C24.4007 17.693 24.8855 17.4902 25.237 16.9373L25.3744 16.8943C25.5325 16.6094 25.43 16.1658 25.378 15.8472C25.428 15.6671 25.4237 15.6352 25.4088 15.4478C24.9923 15.1731 25.0438 14.9368 25.066 14.4894C25.5444 14.1864 26.0938 13.7938 26.6859 13.8093C26.9521 13.8162 27.026 13.875 27.3788 13.8622L27.4409 13.8597C27.5077 14.106 27.4038 14.1773 27.3365 14.48C27.8542 15.6068 29.3017 15.2592 29.9872 14.5206L30.0852 14.5617C30.4695 13.91 30.2158 13.0772 30.3647 12.3416C31.0148 12.0731 32.1642 11.3168 32.983 10.9327C33.0158 10.5993 32.988 9.79697 32.9849 9.44178C32.9785 8.61091 32.9802 7.78001 32.9902 6.94916Z" fill="#B5B5B5"/>
<path d="M32.9903 6.94916C33.0238 5.52256 34.6194 5.47122 35.5031 6.22974C35.6837 6.38476 35.6952 6.80151 35.6978 7.03949C35.6904 8.15758 35.6274 9.79728 35.6884 10.8736C36.3824 11.2062 37.4464 11.7777 38.1219 12.1769C38.1802 12.0418 38.1292 9.68509 38.121 9.37409C38.5648 8.14107 40.5581 8.20859 40.8789 9.30972C40.8649 10.7315 40.8617 12.1534 40.8691 13.5753C41.4056 13.8345 42.6713 14.4731 43.1506 14.7947C43.1056 13.9152 43.1299 12.8144 43.1256 11.918C43.3424 11.532 43.5589 11.3565 43.9997 11.2329C44.4824 11.0967 44.9994 11.1573 45.4376 11.4015C45.6421 11.5176 45.7241 11.6657 45.8456 11.8586C45.943 13.1682 45.8569 14.971 45.8748 16.3341C46.2668 16.4945 46.7373 16.7175 46.9607 17.0989C46.9406 17.2717 46.9221 17.3792 46.8867 17.548C46.278 17.7495 45.6794 18.1033 45.1063 18.3965C41.6018 20.1899 38.135 22.0638 34.6218 23.8408C34.4907 23.9071 33.9016 24.0048 33.7277 24.0373C33.2839 23.7613 32.669 23.4939 32.1951 23.22C30.5374 22.262 28.7954 21.4417 27.1096 20.5544C25.2644 19.5833 23.4119 18.3434 21.4181 17.6403C21.2744 17.4639 21.3048 17.3625 21.2656 17.0998C21.5174 16.7171 21.9381 16.4751 22.3502 16.302C22.3765 17.3298 22.5428 17.7304 23.757 17.7059C24.4008 17.693 24.8856 17.4902 25.2372 16.9373L25.3746 16.8943C25.5326 16.6094 25.4302 16.1658 25.3781 15.8472C25.4281 15.6671 25.4238 15.6352 25.4089 15.4478C24.9924 15.1731 25.0439 14.9368 25.0662 14.4894C25.5446 14.1864 26.0939 13.7938 26.6861 13.8093C26.9523 13.8162 27.0261 13.875 27.379 13.8622L27.4411 13.8597C27.5079 14.106 27.4039 14.1773 27.3367 14.48C27.8543 15.6068 29.3018 15.2592 29.9873 14.5206L30.0854 14.5617C30.4696 13.91 30.216 13.0772 30.3649 12.3416C31.015 12.0731 32.1643 11.3168 32.9831 10.9327C33.0159 10.5993 32.9881 9.79697 32.9851 9.44178C32.9786 8.61091 32.9804 7.78001 32.9903 6.94916Z" fill="#C5C5C5"/>
<path d="M25.0664 14.4894C25.5448 14.1864 26.0942 13.7938 26.6863 13.8093C26.9525 13.8162 27.0264 13.875 27.3792 13.8622L27.4413 13.8597C27.5081 14.106 27.4042 14.1773 27.3369 14.48C27.8545 15.6068 29.302 15.2592 29.9875 14.5206L30.0856 14.5617C29.8811 15.3838 29.9415 17.9062 29.9947 18.8121L29.9203 19.1181L29.8814 19.1216L29.8669 19.9673L29.2526 20.2284C28.8224 20.4102 27.9421 20.4205 27.6069 20.0324C27.0549 19.3934 27.2415 18.1034 27.2645 17.2981C26.7429 17.4172 26.5394 17.4819 26.0132 17.3595C25.6885 17.2955 25.5025 17.1303 25.2374 16.9373L25.3748 16.8943C25.5328 16.6094 25.4304 16.1658 25.3784 15.8472C25.4284 15.6671 25.424 15.6352 25.4092 15.4478C24.9927 15.1731 25.0442 14.9368 25.0664 14.4894Z" fill="#7A7A7A"/>
<path d="M25.0664 14.4894C25.5448 14.1864 26.0942 13.7938 26.6863 13.8093C26.9525 13.8162 27.0264 13.875 27.3792 13.8622L27.4413 13.8597C27.5081 14.106 27.4042 14.1773 27.3369 14.48L27.2996 14.9967C27.3085 15.2902 27.3185 17.0921 27.2645 17.2981C26.7429 17.4172 26.5394 17.4819 26.0132 17.3595C25.6885 17.2955 25.5025 17.1303 25.2374 16.9373L25.3748 16.8943C25.5328 16.6094 25.4304 16.1658 25.3784 15.8472C25.4284 15.6671 25.424 15.6352 25.4092 15.4478C24.9927 15.1731 25.0442 14.9368 25.0664 14.4894Z" fill="#B5B5B5"/>
<path d="M27.2462 15.8458C27.2498 15.5169 27.2554 15.3272 27.2995 14.9966C27.3084 15.2901 27.3184 17.092 27.2644 17.298C26.7428 17.417 26.5393 17.4818 26.0131 17.3593C25.6884 17.2954 25.5024 17.1302 25.2373 16.9372L25.3747 16.8942C25.5327 16.6093 25.4303 16.1657 25.3782 15.847C25.4282 15.667 25.4239 15.6351 25.4091 15.4477L25.7597 15.6525C25.9706 15.7393 26.2666 15.9297 26.4707 16.052C26.7737 15.9475 26.9313 15.9071 27.2462 15.8458Z" fill="#A6A6A6"/>
<path d="M25.4091 15.4478L25.7597 15.6525C25.8236 16.0439 25.9134 16.9454 26.0856 17.2358L26.0131 17.3594C25.6884 17.2954 25.5024 17.1303 25.2373 16.9373L25.3747 16.8943C25.5327 16.6093 25.4303 16.1658 25.3782 15.8471C25.4282 15.667 25.4239 15.6351 25.4091 15.4478Z" fill="#959595"/>
<path d="M29.2521 20.2283L29.1679 20.1742C29.0952 19.7771 29.2271 19.2751 29.5441 19.0084C29.7367 18.9735 29.6736 18.979 29.8808 19.1215L29.8664 19.9673L29.2521 20.2283Z" fill="#616161"/>
<path d="M38.3839 14.2957C39.1082 13.8282 40.2301 13.6693 40.7934 14.4519L40.8742 14.4737C40.867 15.5635 40.8676 16.6533 40.876 17.7431C40.8814 18.3907 40.9024 19.0811 40.8608 19.7224C40.7841 20.4306 39.5538 20.4314 39.0464 20.368C38.6904 20.3235 38.1391 20.1138 38.1558 19.6922C38.2082 18.3634 38.1034 16.7908 38.2159 15.4869C38.1973 15.3667 38.1898 15.3696 38.1158 15.2787C37.5721 15.1921 37.185 15.8728 36.4814 15.5328C36.7926 15.2414 37.3866 15.1408 37.5804 14.8911L37.814 14.8476C38.0616 14.7544 38.0376 14.8053 38.1727 14.6194L38.2102 14.5766L38.3839 14.2957Z" fill="#A8A8A8"/>
<path d="M38.3837 14.2957C39.108 13.8282 40.2298 13.6693 40.7931 14.4519C40.6496 15.4062 39.9479 15.4238 39.0654 15.3573C38.5551 15.3189 38.296 15.0879 38.21 14.5766L38.3837 14.2957Z" fill="#C5C5C5"/>
<path d="M43.1253 11.918C43.3421 11.5319 43.5586 11.3564 43.9994 11.2329C44.4821 11.0967 44.9991 11.1573 45.4372 11.4015C45.6417 11.5175 45.7238 11.6657 45.8453 11.8585C45.9427 13.1682 45.8566 14.971 45.8744 16.334C45.836 16.5985 45.878 17.1001 45.6981 17.3035C45.2713 17.786 43.7138 17.7422 43.3251 17.3012C43.0106 16.9443 43.1302 15.2984 43.1503 14.7947C43.1052 13.9151 43.1296 12.8144 43.1253 11.918Z" fill="#7A7A7A"/>
<path d="M43.1255 11.918C43.3423 11.5319 43.5588 11.3564 43.9995 11.2329C44.4822 11.0967 44.9993 11.1573 45.4374 11.4015C45.6419 11.5175 45.724 11.6657 45.8455 11.8585C45.8312 12.051 45.8327 12.1102 45.7567 12.2957C45.3474 12.6599 43.8068 12.5982 43.3395 12.3029C43.1358 12.1742 43.1722 12.1307 43.1255 11.918Z" fill="#A8A8A8"/>
<path d="M32.9905 6.94916C33.024 5.52256 34.6196 5.47122 35.5033 6.22974C35.6839 6.38476 35.6954 6.80151 35.6979 7.03949C35.6906 8.15758 35.6276 9.79728 35.6886 10.8736C35.682 11.1258 35.7001 11.4997 35.5121 11.6757C34.9595 12.1923 33.8535 12.5377 33.2386 11.9394C32.9399 11.6488 32.9917 11.312 32.9833 10.9327C33.0161 10.5993 32.9883 9.79697 32.9852 9.44178C32.9788 8.61091 32.9806 7.78001 32.9905 6.94916Z" fill="#7A7A7A"/>
<path d="M32.9902 6.94916C33.0237 5.52256 34.6193 5.47122 35.503 6.22974C35.6837 6.38476 35.6951 6.80151 35.6977 7.03949C35.4197 6.97618 34.9539 7.12133 34.6177 7.14901C33.9162 7.20675 33.6607 7.12286 32.9902 6.94916Z" fill="#A8A8A8"/>
<path d="M38.121 9.37405C38.5647 8.14102 40.5581 8.20855 40.8788 9.30967C40.8649 10.7315 40.8616 12.1534 40.869 13.5752C40.8621 13.8903 40.8612 14.1562 40.8744 14.4737L40.7936 14.4519C40.2303 13.6692 39.1084 13.8282 38.3841 14.2956C38.2679 13.9561 38.2558 13.4106 38.1091 13.197L38.0356 13.0759C38.1328 12.7899 38.2386 12.4699 38.1219 12.1769C38.1801 12.0417 38.1291 9.68505 38.121 9.37405Z" fill="#7A7A7A"/>
<path d="M38.1211 9.37405C38.5648 8.14102 40.5582 8.20855 40.879 9.30967C40.5142 10.0321 38.4217 10.1137 38.1211 9.37405Z" fill="#A8A8A8"/>
<path d="M32.7682 17.354C33.077 17.8385 32.9983 17.9052 33.6385 18.1152C34.214 18.304 35.1921 17.7036 35.3925 17.6764C35.362 18.3614 35.504 22.5907 35.2392 22.8391C34.8851 23.1711 34.179 23.2034 33.7122 23.1797C33.4587 23.1668 33.1519 23.1235 32.973 22.9231C32.7115 22.6303 32.7331 22.1604 32.662 21.7951C32.6235 21.4308 32.6678 20.4203 32.6765 20.0146C32.7109 19.5119 32.7189 18.9762 32.7348 18.4701C32.7225 18.0888 32.6929 17.7283 32.7682 17.354Z" fill="#7A7A7A"/>
<path d="M38.0355 13.0758L38.109 13.1969C38.2556 13.4105 38.2677 13.956 38.384 14.2955L38.2102 14.5765L38.1727 14.6192C38.0377 14.8051 38.0616 14.7542 37.814 14.8474L37.5804 14.891C37.3867 15.1406 36.7926 15.2413 36.4815 15.5326C35.4979 15.7814 34.432 14.9465 33.5338 14.452C33.5142 14.0922 33.5717 13.3519 33.5908 12.9653C34.1715 13.3381 35.2632 13.8896 35.922 14.2688C36.4901 14.0389 37.1836 13.5243 37.7047 13.1638L38.0355 13.0758Z" fill="#A6A6A6"/>
<path d="M38.0356 13.0759L38.1091 13.197C38.2557 13.4106 38.2679 13.9561 38.3841 14.2956L38.2104 14.5766L38.1729 14.6193C38.0378 14.8052 38.0617 14.7543 37.8142 14.8475L37.5806 14.8911C36.9722 14.4044 37.5127 13.8417 37.8404 13.4435C37.7784 13.4059 37.7242 13.3806 37.6592 13.3487L37.7049 13.1639L38.0356 13.0759Z" fill="#959595"/>
<path d="M38.1091 13.197C38.2557 13.4106 38.2678 13.9561 38.3841 14.2956L38.2103 14.5766L38.1728 14.6193C37.6838 14.4811 37.9744 13.5414 38.1091 13.197Z" fill="#616161"/>
<path d="M29.9196 19.1182C30.9815 19.3444 30.9998 20.0158 32.5998 20.0685L32.6761 20.0147C32.6675 20.4203 32.6231 21.4309 32.6616 21.7951C32.5307 21.8149 32.4056 21.8089 32.2731 21.8082C31.5728 21.6246 30.5645 21.0145 29.9123 20.6341C29.8888 20.4372 29.8794 20.1709 29.8662 19.9674L29.8806 19.1217L29.9196 19.1182Z" fill="#9B9B9B"/>
<path d="M32.6766 20.0146C32.668 20.4203 32.6236 21.4308 32.6621 21.7951C32.5312 21.8149 32.406 21.8089 32.2736 21.8081C32.2721 21.3053 32.1364 20.7153 32.2469 20.2651C32.2774 20.1408 32.4562 20.1179 32.6002 20.0685L32.6766 20.0146Z" fill="#727272"/>
<path d="M29.9944 18.8121C30.6941 18.5033 31.8067 17.6192 32.56 17.9422C32.746 18.1535 32.6912 18.139 32.7348 18.4701C32.7189 18.9762 32.7109 19.5119 32.6765 20.0146L32.6001 20.0685C31.0001 20.0157 30.9818 19.3443 29.9199 19.1181L29.9944 18.8121Z" fill="#B8B8B8"/>
<path d="M32.7681 17.3539C33.4468 16.2424 35.6669 16.8216 35.3924 17.6764C35.192 17.7036 34.2139 18.3039 33.6384 18.1151C32.9982 17.9051 33.0769 17.8384 32.7681 17.3539Z" fill="#A8A8A8"/>
<path d="M44.4792 25.3786C44.675 25.2129 45.5789 24.7549 45.8457 24.6953L45.8538 24.9951C45.8981 25.7778 45.8351 26.5569 45.8744 27.2922C45.8275 27.4837 45.7944 27.5585 45.8603 27.7496C46.117 28.0901 46.466 28.0342 46.8696 28.5414L47.0106 28.8616C43.9938 30.6829 40.8842 32.2134 37.754 33.8279C37.3888 34.0163 35.5458 34.9773 35.3197 34.9873L35.329 34.5524L35.2595 34.4253L35.2278 34.1464C34.7322 33.1374 33.6896 33.0516 32.7011 32.9939C32.6746 32.1724 32.687 31.3133 32.666 30.4798L32.7159 30.0799C34.0704 30.5323 33.9044 30.6478 35.3685 30.0801C36.1544 29.7563 37.5573 28.9837 38.3616 28.5683C38.4193 28.4764 38.9092 28.2572 39.0461 28.1884C39.2193 28.0316 40.5984 27.3902 40.873 27.2729C40.8816 27.3758 40.9138 27.5728 40.8792 27.6538L40.9368 28.0958C41.18 28.0635 42.0006 27.6372 42.2573 27.5124L42.42 27.3462C42.4278 27.0599 42.4372 26.7979 42.4216 26.5107C42.6535 26.25 42.8245 26.4111 43.1183 26.3103C43.1566 26.0166 43.3028 26.0026 43.5577 25.8886C43.6591 25.7986 44.0884 25.6062 44.2338 25.5363L44.4792 25.3786Z" fill="#747474"/>
<path d="M38.3616 28.5681C38.2583 29.4631 37.9826 31.2078 38.8131 31.787C37.99 31.9048 35.6121 32.7682 35.5041 33.7054L35.4403 33.7534L35.4569 33.9374C35.697 34.0681 35.9024 34.0317 36.1532 33.966C36.042 34.2127 35.5756 34.5208 35.329 34.5522L35.2595 34.4252L35.2278 34.1462C34.7322 33.1372 33.6896 33.0515 32.7011 32.9938C32.6746 32.1723 32.687 31.3131 32.666 30.4797L32.7159 30.0798C34.0704 30.5322 33.9044 30.6477 35.3685 30.08C36.1544 29.7562 37.5573 28.9836 38.3616 28.5681Z" fill="#3D3D3D"/>
<path d="M32.7159 30.0798C34.0704 30.5322 33.9044 30.6477 35.3685 30.08L35.401 30.2938C35.5128 30.791 35.4125 33.1249 35.4403 33.7534L35.4569 33.9375C35.697 34.0681 35.9024 34.0317 36.1532 33.966C36.042 34.2127 35.5756 34.5208 35.329 34.5523L35.2595 34.4252L35.2278 34.1463C34.7322 33.1373 33.6896 33.0515 32.7011 32.9938C32.6746 32.1723 32.687 31.3131 32.666 30.4797L32.7159 30.0798Z" fill="#A8A8A8"/>
<path d="M32.7159 30.0798C34.0704 30.5322 33.9044 30.6477 35.3685 30.08L35.401 30.2938L35.378 30.3413C35.0055 30.3254 34.3966 30.6906 34.118 30.9331C33.5584 30.8251 33.5696 30.8688 33.1836 30.4461L33.2988 30.495C33.1081 30.3176 33.1788 30.3331 32.9502 30.2976C32.8095 30.3684 32.7851 30.3791 32.666 30.4797L32.7159 30.0798Z" fill="#949494"/>
<path d="M35.4008 30.2937C35.5125 30.791 35.4123 33.1248 35.44 33.7533L35.4567 33.9374C35.6967 34.068 35.9022 34.0316 36.153 33.966C36.0418 34.2126 35.5754 34.5208 35.3288 34.5522L35.2593 34.4251L35.2275 34.1462C35.5034 33.6785 35.3854 31.0555 35.3778 30.3412L35.4008 30.2937Z" fill="#7A7A7A"/>
<path d="M44.4788 25.3786C44.6746 25.2129 45.5785 24.7549 45.8453 24.6953L45.8534 24.9951C45.8976 25.7778 45.8347 26.5569 45.874 27.2922C45.827 27.4837 45.794 27.5585 45.8599 27.7496C46.1166 28.0901 46.4656 28.0342 46.8691 28.5414C46.5538 28.4439 46.2516 28.1502 46.0228 28.1131C45.4776 28.9604 45.6536 29.2091 44.4284 29.2513L44.0478 29.2311L43.9397 29.2304C43.7247 29.4111 43.4008 29.4151 43.219 29.1781C42.9915 28.8972 42.999 28.712 42.9665 28.3559C42.9561 28.2148 42.966 28.0934 42.8855 27.9844L42.8563 28.0229C42.4963 27.8571 42.6128 27.93 42.3578 27.5817L42.2568 27.5124L42.4196 27.3462C42.4274 27.0599 42.4368 26.7979 42.4212 26.5107C42.653 26.25 42.824 26.4111 43.1179 26.3103C43.1561 26.0166 43.3024 26.0026 43.5573 25.8886C43.6587 25.7986 44.088 25.6062 44.2333 25.5363L44.4788 25.3786Z" fill="#A8A8A8"/>
<path d="M43.5573 25.8884C43.6476 26.1141 43.4206 28.1984 43.4725 28.8489C43.6551 29.0374 43.7107 29.1054 43.9397 29.2303C43.7247 29.411 43.4008 29.4149 43.219 29.1779C42.9915 28.8971 42.999 28.7119 42.9665 28.3557C42.9561 28.2147 42.966 28.0933 42.8855 27.9843L42.8563 28.0228C42.4963 27.8569 42.6128 27.9299 42.3578 27.5816L42.2568 27.5122L42.4196 27.3461C42.4274 27.0597 42.4368 26.7978 42.4212 26.5106C42.653 26.2499 42.824 26.4109 43.1179 26.3102C43.1561 26.0164 43.3024 26.0024 43.5573 25.8884Z" fill="#616161"/>
<path d="M42.4215 26.5107C42.6534 26.25 42.8244 26.4111 43.1182 26.3103C43.0921 26.628 43.0847 27.4956 43.0002 27.7079L42.884 27.7803C42.4383 27.6519 42.6622 27.5746 42.4199 27.3462C42.4277 27.0599 42.4371 26.7979 42.4215 26.5107Z" fill="#7A7A7A"/>
<path d="M42.9668 28.3557L43.1025 28.1321L43.2052 28.1472C43.3173 28.3571 43.4249 29.0151 43.2193 29.1779C42.9918 28.897 42.9994 28.7118 42.9668 28.3557Z" fill="#4B4B4B"/>
<path d="M44.2335 25.5361C43.957 26.2478 43.78 28.5303 44.0479 29.231L43.9398 29.2303C43.7108 29.1054 43.6552 29.0374 43.4727 28.8489C43.4208 28.1984 43.6477 26.1141 43.5574 25.8884C43.6588 25.7985 44.0881 25.6061 44.2335 25.5361Z" fill="#7A7A7A"/>
<path d="M44.2332 25.5363L44.4787 25.3787C44.4797 25.7489 44.3412 25.8475 44.2824 26.1347C44.1431 26.5633 44.3265 28.7783 44.4283 29.2513L44.0477 29.2312C43.7797 28.5304 43.9567 26.248 44.2332 25.5363Z" fill="#949494"/>
<path d="M44.4785 25.3786C44.6744 25.2129 45.5782 24.7549 45.845 24.6953L45.8532 24.9951C45.7166 24.9424 45.0479 25.4191 44.7631 25.5401C44.5852 25.8402 44.5474 25.9149 44.2822 26.1347C44.341 25.8474 44.4796 25.7489 44.4785 25.3786Z" fill="#959595"/>
<path d="M39.0456 28.1883C39.2188 28.0315 40.5979 27.3901 40.8724 27.2727C40.8811 27.3756 40.9133 27.5726 40.8787 27.6536L40.9363 28.0956L40.905 29.2918C40.8654 31.4803 41.1759 31.8376 38.8126 31.787C37.9821 31.2078 38.2578 29.4631 38.3611 28.5681C38.4188 28.4762 38.9087 28.257 39.0456 28.1883Z" fill="#A6A6A6"/>
<path d="M39.0459 28.1883C39.219 28.0315 40.5981 27.3901 40.8727 27.2727C40.8813 27.3756 40.9135 27.5726 40.879 27.6536L40.7794 27.6185C40.0816 28.0515 39.6 27.9694 39.2186 28.8637L39.1423 28.8462C39.135 28.645 39.1471 28.3505 39.0459 28.1883Z" fill="#959595"/>
<path d="M42.257 27.5122L42.358 27.5815C42.209 27.7727 42.1879 27.7992 42.1845 28.042C42.3125 28.5168 42.7526 28.5383 42.7155 28.9479C42.4624 29.2242 42.1016 29.2835 41.874 29.4895C41.5671 29.7673 41.3323 30.2636 40.9649 30.5009C40.9659 30.1394 40.9911 29.6283 40.9053 29.2918L40.9365 28.0956C41.1797 28.0633 42.0003 27.6371 42.257 27.5122Z" fill="#4B4B4B"/>
<path d="M22.3872 18.9843C22.2803 18.813 21.5712 18.4787 21.3834 18.2262C21.1572 17.9221 21.2396 17.4719 21.2658 17.0998C21.305 17.3625 21.2745 17.4639 21.4182 17.6403C23.412 18.3434 25.2645 19.5833 27.1097 20.5544C28.7956 21.4417 30.5375 22.2619 32.1953 23.22C32.6692 23.4939 33.284 23.7613 33.7279 24.0373C33.9018 24.0048 34.4909 23.9071 34.622 23.8408C38.1352 22.0638 41.602 20.1899 45.1065 18.3965C45.6796 18.1033 46.2782 17.7495 46.8869 17.548C46.9222 17.3791 46.9407 17.2717 46.9609 17.0989C47.017 17.5061 47.0109 17.7014 47 18.1091C46.6058 18.5224 45.9497 18.7933 45.8199 19.0554C45.9089 19.6776 45.7623 21.8808 46.0064 22.1116C45.9084 22.5406 45.8717 22.6672 45.6873 23.0685C45.2464 23.2752 45.0749 23.3906 44.5872 23.4063C44.4412 23.3651 44.3011 23.3976 44.1474 23.4167C43.9312 23.6761 44.0407 23.5961 43.6863 23.689C43.5303 23.5163 43.4203 23.3559 43.1709 23.3363C42.4908 23.2829 41.3025 24.1948 40.9561 24.7416L40.8825 25.0211C40.875 25.298 40.8879 25.5012 40.6656 25.7094C40.3007 26.0511 39.2315 26.0572 38.7991 25.9201L38.7658 25.9466C37.8672 25.4239 38.4351 23.7164 38.4051 22.872L38.4031 22.8274C37.8847 23.1073 35.652 24.1766 35.43 24.4393L35.415 24.6202L35.3713 24.6201C34.4826 24.5016 34.7044 25.5962 32.7299 24.4882L32.6572 24.828C32.5597 25.0759 32.6794 25.3576 32.5292 25.4645L32.3925 25.4179L32.3526 25.4496C32.3458 25.9929 32.3852 26.9083 32.1491 27.3594C31.4252 27.1628 30.6138 26.7153 29.984 26.3089L29.8793 25.8814C29.701 25.8791 29.6349 25.8922 29.475 25.8101L29.439 25.6627C29.5307 25.3261 29.4966 24.9609 29.6584 24.6439C29.6813 24.2491 29.5812 23.0189 29.7419 22.8331C29.679 22.7769 29.3547 22.6009 29.2652 22.5502C28.9224 22.355 27.7207 21.5921 27.465 21.5108C27.0894 21.3545 26.6599 21.1894 26.294 21.0237C25.6152 20.9047 25.6727 20.5401 25.1464 20.5044C25.1412 20.501 25.1362 20.4976 25.131 20.4942C25.0015 20.2263 24.7543 20.1546 24.4624 20.0512C24.2007 19.8226 23.3505 19.4569 23.0091 19.3301C22.7875 19.1919 22.6209 19.1019 22.3872 18.9843Z" fill="#A8A8A8"/>
<path d="M45.8195 19.0554C45.9085 19.6775 45.7619 21.8808 46.006 22.1116C45.908 22.5406 45.8713 22.6672 45.6869 23.0685C45.246 23.2752 45.0745 23.3906 44.5868 23.4063C44.4408 23.3651 44.3006 23.3975 44.147 23.4167C43.8313 23.2858 43.7815 23.2393 43.5263 23.0066L43.4976 23.0884C43.153 22.7765 43.4877 22.5439 43.0636 22.0274C43.0769 21.8242 43.0685 21.7292 43.0513 21.5287C43.1046 21.2023 43.1383 20.6739 43.1738 20.3274C43.4444 20.1835 43.7726 20.0374 44.053 19.9039C44.1313 19.8587 44.5 19.7268 44.6418 19.6582C45.05 19.4609 45.4047 19.2364 45.8195 19.0554Z" fill="#B7B7B7"/>
<path d="M44.053 19.9038C43.4191 20.7152 43.4564 21.9867 43.5263 23.0066L43.4976 23.0884C43.153 22.7765 43.4877 22.5439 43.0636 22.0274C43.0769 21.8241 43.0685 21.7291 43.0513 21.5286C43.1046 21.2022 43.1383 20.6739 43.1738 20.3274C43.4444 20.1834 43.7726 20.0374 44.053 19.9038Z" fill="#7A7A7A"/>
<path d="M39.3887 22.3362C39.8091 22.2088 40.4672 21.8339 40.8663 21.6135C40.8674 22.5979 40.822 24.0885 40.8819 25.0211C40.8745 25.298 40.8874 25.5012 40.665 25.7093C40.3002 26.051 39.2309 26.0572 38.7985 25.9201L38.7652 25.9465C37.8667 25.4239 38.4345 23.7164 38.4045 22.872L38.4025 22.8274C38.519 22.6852 39.1869 22.4215 39.3887 22.3362Z" fill="#B8B8B8"/>
<path d="M38.4025 22.8274C38.519 22.6852 39.1869 22.4215 39.3887 22.3362C39.2771 22.4669 39.1155 22.6811 39.0417 22.8284C38.833 23.2447 38.5847 25.6293 38.7985 25.9201L38.7652 25.9466C37.8667 25.4239 38.4345 23.7164 38.4045 22.872L38.4025 22.8274Z" fill="#949494"/>
<path d="M40.9288 21.4974C41.1784 21.3403 41.6904 20.9884 41.978 20.9248C42.0875 20.9005 42.1992 21.0191 42.2957 21.0943C42.593 21.0891 42.5889 20.8661 42.8455 20.8306C43.0091 21.0519 43.0132 21.2575 43.0517 21.5286C43.069 21.7291 43.0774 21.8241 43.0641 22.0274C43.4882 22.5439 43.1535 22.7765 43.4981 23.0884L43.5267 23.0066C43.7819 23.2393 43.8318 23.2858 44.1474 23.4166C43.9313 23.676 44.0408 23.5961 43.6863 23.6889C43.5303 23.5163 43.4203 23.3559 43.1709 23.3363C42.4908 23.2828 41.3025 24.1948 40.9562 24.7415C40.9174 23.6868 40.9322 22.558 40.9288 21.4974Z" fill="#949494"/>
<path d="M43.0638 22.0273C43.4879 22.5438 43.1532 22.7765 43.4978 23.0883L43.5219 23.1698L43.4723 23.2202C43.4247 23.213 43.3806 23.2057 43.3341 23.1917C43.2036 23.153 43.0938 23.0638 43.0293 22.9438C42.8521 22.6215 42.9678 22.3703 43.0638 22.0273Z" fill="#777777"/>
<path d="M30.1051 24.4507C30.442 24.7525 31.9308 25.4955 32.352 25.4496C32.3452 25.9928 32.3846 26.9082 32.1485 27.3594C31.4246 27.1627 30.6132 26.7152 29.9834 26.3088L29.8787 25.8813C29.7004 25.8791 29.6344 25.8921 29.4745 25.81L29.4385 25.6626C29.5301 25.3261 29.496 24.9608 29.6579 24.6438L29.9288 24.6457L30.1051 24.4507Z" fill="#9B9B9B"/>
<path d="M29.4385 25.6626C29.5301 25.326 29.496 24.9608 29.6579 24.6438L29.9288 24.6457C29.8857 25.0893 29.8965 25.4441 29.8787 25.8813C29.7004 25.879 29.6344 25.8921 29.4745 25.81L29.4385 25.6626Z" fill="#616161"/>
<path d="M31.3685 23.7317C31.8436 23.9538 32.2285 24.142 32.6851 24.398L32.7297 24.4882L32.657 24.828C32.5595 25.0759 32.6792 25.3576 32.529 25.4645L32.3923 25.4179L32.3524 25.4496C31.9312 25.4956 30.4424 24.7526 30.1055 24.4508C30.2375 24.3151 30.5521 24.1736 30.7343 24.0814C30.96 23.9408 31.0822 23.9648 31.3685 23.7317Z" fill="#767676"/>
<path d="M31.3686 23.7317C31.8437 23.9538 32.2286 24.142 32.6852 24.398L32.5333 24.7188C32.1029 25.0185 30.9681 24.4341 30.7344 24.0814C30.9601 23.9408 31.0822 23.9648 31.3686 23.7317Z" fill="#5E5E5E"/>
<path d="M29.6581 24.6438C29.6809 24.2489 29.5809 23.0188 29.7415 22.833C30.2964 23.125 30.8333 23.4022 31.3684 23.7316C31.082 23.9647 30.9598 23.9406 30.7341 24.0813C30.5519 24.1734 30.2374 24.3149 30.1053 24.4506L29.929 24.6456L29.6581 24.6438Z" fill="#616161"/>
<path d="M22.3827 24.6548C22.7423 24.7087 23.279 25.079 23.61 25.2825L23.631 25.3255C23.8477 25.4317 24.4954 25.7318 24.6373 25.8941C24.713 25.9343 25.2378 26.207 25.2732 26.2346C25.6148 26.5524 26.8033 27.0276 27.3115 27.2834C27.9893 27.5132 28.6263 28.0112 29.218 28.2374L29.4127 28.3871C29.5047 28.4365 29.914 28.6492 29.9715 28.6967C30.421 28.9325 31.1902 29.3062 31.584 29.5784C31.957 29.755 32.3344 29.9222 32.7158 30.08L32.6659 30.4798C32.6868 31.3133 32.6745 32.1725 32.701 32.994L32.4247 33.0462L31.8187 33.1679C31.3163 33.4022 31.0031 33.6655 30.6672 34.1132C30.6551 34.098 30.6431 34.0829 30.6311 34.0678C27.7048 32.3978 24.6411 30.8969 21.6861 29.253C21.5615 29.1837 21.3294 29.1645 21.2227 29.1583C21.2508 28.8385 21.2469 28.6457 21.4721 28.421C21.7162 28.1597 22.0463 28.0278 22.369 27.8959C22.4073 26.8812 22.376 25.6918 22.3827 24.6548Z" fill="#747474"/>
<path d="M22.3823 24.6548C22.7419 24.7087 23.2786 25.079 23.6096 25.2825L23.6306 25.3255C23.8473 25.4317 24.495 25.7318 24.6369 25.8941C24.5517 26.0521 24.6743 28.6574 24.7386 28.8933C24.5701 29.051 24.5376 29.0808 24.3326 29.1888C24.1787 29.2082 23.9148 29.2487 23.7703 29.2536C23.3046 29.2122 22.7918 29.1705 22.4496 28.7949C22.2609 28.5878 22.3362 28.1664 21.9934 28.1706C21.8205 28.3237 21.6995 28.4755 21.4717 28.421C21.7157 28.1597 22.0459 28.0278 22.3686 27.8959C22.4069 26.8812 22.3756 25.6918 22.3823 24.6548Z" fill="#A8A8A8"/>
<path d="M23.6309 25.3254C23.8476 25.4316 24.4953 25.7318 24.6372 25.894C24.552 26.052 24.6746 28.6573 24.7389 28.8932C24.5704 29.0509 24.5379 29.0807 24.3329 29.1887C24.179 29.2081 23.9151 29.2486 23.7706 29.2535C23.8915 29.1944 24.0108 29.1321 24.1285 29.0666C24.2439 28.6114 24.0507 26.5826 23.8706 26.0268C23.7788 25.7439 23.6296 25.6227 23.6309 25.3254Z" fill="#7A7A7A"/>
<path d="M27.3109 27.2832C27.9888 27.513 28.6258 28.011 29.2174 28.2372L29.4121 28.3869C29.4312 29.1223 29.6454 30.8896 29.3276 31.5746C29.1688 31.7115 29.1154 31.7405 28.9059 31.7491C27.2385 31.8178 27.263 31.5369 27.2738 30.0226C27.2775 29.4978 27.2669 28.8104 27.2654 28.2855C27.2541 27.8691 27.2554 27.699 27.3109 27.2832Z" fill="#A0A0A0"/>
<path d="M27.3109 27.2832C27.9888 27.513 28.6258 28.011 29.2174 28.2372C29.1563 28.3608 29.0771 28.5613 28.9733 28.6355C28.3268 28.0537 28.1021 27.9579 27.3399 27.5355C27.3339 27.8541 27.326 27.9746 27.2654 28.2855C27.2541 27.8691 27.2554 27.699 27.3109 27.2832Z" fill="#959595"/>
<path d="M31.5836 29.5784C31.9566 29.7549 32.3339 29.9222 32.7153 30.0799L32.6654 30.4798C32.6864 31.3132 32.6741 32.1724 32.7006 32.9939L32.4243 33.0461L31.8182 33.1679C31.0859 32.6727 29.9309 32.6154 29.8558 31.5969C29.8681 31.0817 29.7779 30.6112 30.1169 30.2529L30.5821 29.99C30.8896 29.8267 31.2551 29.7084 31.5836 29.5784Z" fill="#9B9B9B"/>
<path d="M31.5838 29.5784C31.9568 29.7549 32.3342 29.9222 32.7156 30.0799L32.6657 30.4798C32.6866 31.3132 32.6743 32.1724 32.7008 32.9939L32.4245 33.0461L32.3279 32.9597C32.2691 31.4369 32.8235 31.4866 31.2458 30.8326C30.9651 30.7162 30.3084 30.4314 30.1172 30.2529L30.5823 29.99C30.8899 29.8267 31.2553 29.7084 31.5838 29.5784Z" fill="#727272"/>
<path d="M31.5835 29.5784C31.9565 29.7549 32.3339 29.9222 32.7153 30.0799L32.6654 30.4798L32.608 30.6021C32.2395 30.7854 30.8425 30.2821 30.582 29.99C30.8896 29.8267 31.255 29.7084 31.5835 29.5784Z" fill="#595959"/>
<path d="M29.9716 28.6965C30.4211 28.9323 31.1903 29.306 31.5841 29.5783C31.2556 29.7083 30.8902 29.8266 30.5826 29.9899L30.1175 30.2528C29.7785 30.6111 29.8686 31.0817 29.8563 31.5968C29.652 30.5715 29.9121 29.7776 29.9716 28.6965Z" fill="#4B4B4B"/>
<path d="M24.6371 25.894C24.7127 25.9343 25.2375 26.2069 25.2729 26.2345C25.0029 26.6289 25.0346 27.681 25.2127 28.1465C25.275 28.3093 25.3789 28.4062 25.4291 28.5995C25.2504 28.3857 25.2686 28.3249 25.0642 28.3052C24.8931 28.5214 24.8964 28.6814 24.7387 28.8932C24.6744 28.6574 24.5518 26.052 24.6371 25.894Z" fill="#616161"/>
<path d="M24.739 28.8932C24.8967 28.6814 24.8934 28.5214 25.0646 28.3052C25.2689 28.3249 25.2507 28.3857 25.4294 28.5996C25.3534 29.1791 25.1146 29.3943 24.5218 29.3247L24.333 29.1887C24.538 29.0807 24.5705 29.051 24.739 28.8932Z" fill="#4B4B4B"/>
<path d="M32.7297 24.4883C34.7042 25.5963 34.4824 24.5017 35.3711 24.6202C35.3812 25.6212 35.5102 27.7485 35.1892 28.584C34.3999 28.9228 33.2083 29.229 32.7342 28.2017C32.6712 28.0651 32.6939 27.6285 32.6981 27.4593C32.4451 27.4489 32.3926 27.4337 32.1489 27.3595C32.385 26.9084 32.3456 25.993 32.3524 25.4497L32.3924 25.418L32.5291 25.4646C32.6792 25.3577 32.5596 25.076 32.657 24.8281L32.7297 24.4883Z" fill="#BDBDBD"/>
<path d="M32.3524 25.4495L32.3924 25.4178L32.5291 25.4644C32.6792 25.3575 32.5596 25.0758 32.657 24.8279C32.7269 25.5872 32.7052 26.6851 32.6981 27.4591C32.4451 27.4487 32.3926 27.4335 32.1489 27.3593C32.385 26.9082 32.3456 25.9928 32.3524 25.4495Z" fill="#727272"/>
<path d="M22.3868 18.9841C22.6205 19.1018 22.7871 19.1918 23.0086 19.3299C23.3501 19.4568 24.2003 19.8224 24.462 20.0511C24.7539 20.1545 25.0011 20.2261 25.1306 20.4941C25.1358 20.4975 25.1408 20.5009 25.146 20.5043C25.0348 20.712 25.1005 21.3182 25.1133 21.5903C25.1173 21.7865 25.1019 22.0682 25.1839 22.2339C24.9136 22.6191 24.8994 22.7365 24.7006 23.0544L24.653 23.1354C24.4558 23.2741 24.3816 23.3217 24.1643 23.4241C23.2367 23.4073 23.1085 23.4503 22.3814 22.9183C22.3103 22.6515 22.2282 22.4136 22.2531 22.1378C22.47 21.9057 22.3706 19.5213 22.3868 18.9841Z" fill="#BDBDBD"/>
<path d="M23.0088 19.3301C23.3502 19.457 24.2005 19.8226 24.4621 20.0512C24.754 20.1546 25.0013 20.2263 25.1308 20.4942C25.1359 20.4976 25.141 20.501 25.1461 20.5044C25.0349 20.7121 25.1007 21.3183 25.1135 21.5904C25.1175 21.7866 25.102 22.0683 25.184 22.234C24.9138 22.6193 24.8995 22.7366 24.7008 23.0545L24.6531 23.1356C24.456 23.2743 24.3818 23.3218 24.1645 23.4243C24.1209 22.4948 24.1818 21.5585 24.0472 20.6236C23.9374 19.8608 23.6364 19.7718 23.0088 19.3301Z" fill="#B1B1B1"/>
<path d="M24.4619 20.0513C24.7539 20.1547 25.0011 20.2263 25.1306 20.4943C25.1357 20.4977 25.1408 20.5011 25.1459 20.5045C25.0347 20.7122 25.1005 21.3184 25.1133 21.5905C25.1173 21.7867 25.1019 22.0684 25.1839 22.2341C24.9136 22.6193 24.8994 22.7367 24.7006 23.0546C24.7926 22.5026 24.6254 20.6007 24.4619 20.0513Z" fill="#7A7A7A"/>
<path d="M27.4649 21.5107C27.7205 21.5921 28.9223 22.355 29.265 22.5502C29.3546 22.6009 29.6789 22.7769 29.7417 22.8331C29.5811 23.0189 29.6812 24.2491 29.6583 24.6439C29.4965 24.9609 29.5305 25.3261 29.4389 25.6627L29.4749 25.8101C29.6348 25.8922 29.7009 25.8791 29.8792 25.8814L29.9839 26.3089L29.9214 26.3377C29.6344 26.3061 29.6991 26.136 29.6284 26.1274C28.9338 26.0428 27.2263 26.2756 27.268 25.2029C27.2766 24.9827 27.2565 24.7648 27.2449 24.5472C27.2234 23.8842 27.1645 22.0152 27.4649 21.5107Z" fill="#A6A6A6"/>
<path d="M29.2652 22.5503C29.3547 22.601 29.679 22.777 29.7418 22.8332C29.5812 23.019 29.6813 24.2492 29.6584 24.644C29.4966 24.961 29.5307 25.3262 29.439 25.6628C29.267 25.2039 28.9913 22.8841 29.2652 22.5503Z" fill="#7A7A7A"/>
<path d="M38.4026 22.8274L38.4046 22.872C38.4346 23.7164 37.8668 25.4239 38.7653 25.9465L38.7795 26.0211C38.6951 26.1706 38.4666 26.1271 38.2831 26.1417C37.6573 26.1915 35.107 27.2565 35.5416 28.0594L35.6108 28.0419L35.6403 27.786C35.7993 27.6974 35.7439 27.7235 35.9515 27.7345L35.9608 27.8169L35.4268 28.3171C35.3908 27.0994 35.4459 25.8505 35.4145 24.6201L35.4296 24.4392C35.6515 24.1766 37.8842 23.1073 38.4026 22.8274Z" fill="#737373"/>
<path d="M25.1464 20.5044C25.6728 20.5401 25.6153 20.9047 26.2941 21.0237C26.6599 21.1894 27.0895 21.3545 27.4651 21.5108C27.1647 22.0152 27.2236 23.8843 27.245 24.5473C27.1503 24.174 25.5057 23.2156 25.0558 23.2428C24.8959 23.2524 24.741 23.4635 24.6403 23.5748L24.5238 23.5711L24.4766 23.4406L24.3893 23.408C24.277 23.4902 24.2685 23.4886 24.1289 23.5156L24.1648 23.4243C24.3821 23.3218 24.4563 23.2743 24.6534 23.1356L24.7011 23.0545C24.8998 22.7366 24.9141 22.6193 25.1843 22.234C25.1023 22.0683 25.1178 21.7866 25.1138 21.5904C25.101 21.3183 25.0352 20.7121 25.1464 20.5044Z" fill="#949494"/>
<path d="M25.1461 20.5044C25.6725 20.5401 25.615 20.9047 26.2938 21.0237C25.7218 21.1054 25.5493 21.4729 25.1135 21.5904C25.1007 21.3183 25.0349 20.7121 25.1461 20.5044Z" fill="#B5B5B5"/>
<path d="M24.701 23.0544C24.8998 22.7365 24.914 22.6191 25.1843 22.2339C25.3303 22.6089 25.3782 22.9226 24.9906 23.1707C24.7667 23.2026 24.8124 23.2318 24.6533 23.1355L24.701 23.0544Z" fill="#777777"/>
<path d="M40.8726 27.2729C41.3854 27.0121 41.9017 26.7581 42.4212 26.5107C42.4368 26.798 42.4274 27.0599 42.4196 27.3462L42.2569 27.5124C42.0002 27.6373 41.1796 28.0636 40.9364 28.0959L40.8788 27.6538C40.9134 27.5728 40.8812 27.3759 40.8726 27.2729Z" fill="#727272"/>
<path d="M57.645 35.208C57.7916 36.1871 57.8174 39.2154 57.0713 39.8846C55.986 40.858 54.1255 41.684 52.8051 42.3883L45.4231 46.3108L38.6341 49.9131C37.3406 50.5944 35.9933 51.3325 34.6728 51.9458C33.3784 52.5469 31.0092 52.6042 29.6739 52.0795C28.0049 51.4236 26.3038 50.4198 24.7137 49.5719L16.5771 45.2573C14.9288 44.3759 13.0984 43.5081 11.511 42.5156C10.8824 42.1226 10.3934 41.2164 10.3514 40.5059C10.2839 39.484 10.2722 38.0924 10.3453 37.0746L10.423 37.2179C10.4624 37.2203 10.4969 37.2228 10.5364 37.2273L10.5823 37.2328C10.4536 37.2179 18.319 41.4024 19.1014 41.8134L24.0139 44.4516C25.8107 45.4036 27.6602 46.4876 29.5094 47.2896C30.6299 47.7754 32.7383 47.8813 33.8974 47.5454C35.3509 47.1242 37.284 45.9913 38.6715 45.2424L44.2299 42.2274C45.4952 41.5326 46.8426 40.8699 48.1255 40.197L54.1112 37.0425C55.1992 36.4796 56.2291 35.9674 57.2241 35.2534C57.3136 35.1891 57.4976 35.2526 57.5893 35.2996L57.645 35.208Z" fill="#8B8B8B"/>
<path d="M49.3049 24.3961C49.3013 24.195 49.2892 23.9424 49.3858 23.7581C50.1152 22.3663 53.3074 22.3798 53.8376 23.9393C53.9391 24.5659 53.9038 25.7278 53.8968 26.4023L53.8711 29.9153C53.8702 30.2682 53.841 31.2443 53.9407 31.5195C54.2566 33.8221 53.8348 34.7592 51.3726 34.7601C51.2429 34.7602 51.0482 34.7562 50.9218 34.7701C50.4337 34.9511 50.0493 34.3927 49.7179 34.2258C49.7499 34.3953 49.7761 34.4459 49.8421 34.6034C50.2698 34.8673 50.3999 35.0305 50.8714 35.0043L50.905 35.0456C50.5829 35.0788 50.3134 35.0053 49.999 34.9336C49.6956 35.3443 49.8474 36.2051 48.8803 36.2873C48.359 36.5255 47.7949 36.7988 47.2459 36.9504C46.0574 36.8554 45.5389 36.2436 44.53 35.5981C44.4811 35.1254 44.5635 34.5007 44.4736 34.0601L44.5781 33.8108C44.4689 33.0227 45.1569 33.2594 45.3373 32.7739C45.5065 32.7203 45.634 32.6773 45.7998 32.6102L45.8848 32.6962C45.8813 32.094 45.8868 31.1939 45.7978 30.6131C46.6478 29.8306 47.0481 30.4398 47.0101 28.8615L46.8691 28.5413C46.4656 28.0341 46.1166 28.09 45.8599 27.7494C45.7939 27.5584 45.827 27.4836 45.8739 27.2921C46.532 27.6116 47.1799 27.9516 47.8166 28.3115C48.1238 28.4823 49.0001 28.9905 49.2986 29.0835C49.2887 27.521 49.2908 25.9585 49.3049 24.3961Z" fill="#B8B8B8"/>
<path d="M45.3373 32.7741C45.5065 32.7205 45.634 32.6775 45.7998 32.6104L45.8848 32.6964L45.9269 32.9365C46.551 32.7045 46.8131 32.5782 47.4856 32.8514C47.787 32.9739 48.8624 33.6445 49.1198 33.6959C49.3387 33.9399 49.3746 33.9905 49.5131 34.2857C49.612 34.7736 49.6281 35.374 49.3698 35.8157C49.1666 36.1451 48.9169 36.1892 48.8803 36.2874C48.359 36.5257 47.7949 36.799 47.2459 36.9506C46.0574 36.8556 45.5389 36.2437 44.53 35.5983C44.4811 35.1255 44.5635 34.5008 44.4736 34.0602L44.5781 33.811C44.4689 33.0229 45.1569 33.2595 45.3373 32.7741Z" fill="#B8B8B8"/>
<path d="M44.5781 33.8109L44.6194 33.8054C45.2136 34.502 45.4703 34.592 46.2954 35.0287C46.6393 35.1215 46.8479 35.3207 46.9454 35.3561C47.5316 35.569 48.7683 34.563 49.5131 34.2856C49.612 34.7735 49.6281 35.374 49.3698 35.8156C49.1666 36.145 48.9169 36.1892 48.8803 36.2874C48.359 36.5256 47.7949 36.7989 47.2459 36.9505C46.0574 36.8555 45.5389 36.2437 44.53 35.5982C44.4811 35.1255 44.5635 34.5008 44.4736 34.0602L44.5781 33.8109Z" fill="#878787"/>
<path d="M49.5132 34.2856C49.612 34.7736 49.6282 35.374 49.3698 35.8156C48.8808 36.0494 47.898 36.7267 47.4443 36.7836C46.5845 36.8914 47.0953 35.6437 46.3184 35.0461L46.2954 35.0288C46.6393 35.1216 46.848 35.3207 46.9455 35.3561C47.5317 35.5691 48.7683 34.563 49.5132 34.2856Z" fill="#9B9B9B"/>
<path d="M45.3373 32.7741C45.5065 32.7205 45.634 32.6775 45.7997 32.6104L45.8848 32.6964L45.9268 32.9365C45.5323 33.2118 44.9173 33.5149 44.6193 33.8055L44.5781 33.811C44.4688 33.0229 45.1568 33.2595 45.3373 32.7741Z" fill="#7A7A7A"/>
<path d="M45.874 27.2922C46.5321 27.6117 47.18 27.9517 47.8167 28.3116C48.1239 28.4824 49.0002 28.9906 49.2987 29.0836C49.2734 29.4736 49.4165 31.7687 49.3365 31.8578C49.1671 32.4629 49.3943 33.1761 49.1199 33.6959C48.8625 33.6445 47.7871 32.9739 47.4857 32.8514C46.8132 32.5782 46.5511 32.7045 45.927 32.9365L45.8849 32.6963C45.8814 32.0941 45.8869 31.194 45.7979 30.6132C46.6479 29.8307 47.0482 30.4399 47.0102 28.8616L46.8692 28.5414C46.4657 28.0342 46.1167 28.0901 45.86 27.7495C45.794 27.5585 45.8271 27.4837 45.874 27.2922Z" fill="#A5A5A5"/>
<path d="M49.3053 24.3961C49.3016 24.195 49.2895 23.9424 49.3861 23.7581C50.1155 22.3663 53.3077 22.3798 53.8379 23.9393C53.8183 24.2542 53.8679 24.3411 53.6162 24.5538C52.8785 25.1769 51.8532 25.1836 50.9509 25.1331C49.96 25.0777 49.8499 24.6493 49.3053 24.3961Z" fill="#DBDBDB"/>
<path d="M49.1199 33.6957C49.3943 33.176 49.1671 32.4627 49.3366 31.8577L49.3417 31.8997C49.4151 32.5224 49.2915 32.9325 49.5494 33.5286L49.5292 33.4884L49.6075 33.5517C49.6074 33.213 49.4681 32.3535 49.5114 32.1871C49.6377 32.7667 49.9754 34.1697 50.4696 34.6055C50.4907 34.6242 50.8662 34.7503 50.9219 34.7701C50.4338 34.951 50.0494 34.3927 49.7181 34.2257C49.7501 34.3953 49.7762 34.4459 49.8422 34.6034C50.2699 34.8672 50.4001 35.0305 50.8715 35.0042L50.9051 35.0455C50.5831 35.0788 50.3135 35.0053 49.9991 34.9336C49.6957 35.3443 49.8476 36.2051 48.8804 36.2872C48.917 36.189 49.1667 36.1449 49.3699 35.8155C49.6282 35.3739 49.6121 34.7734 49.5132 34.2855C49.3747 33.9903 49.3388 33.9397 49.1199 33.6957Z" fill="#8B8B8B"/>
<path d="M32.7008 32.9939C33.6893 33.0516 34.7319 33.1373 35.2275 34.1463L35.2592 34.4253L35.3287 34.5523L35.3194 34.9873C35.3067 35.3657 35.2793 35.813 35.3505 36.1825C35.3717 36.7922 35.3818 37.4023 35.3807 38.0125C35.374 38.4541 35.3601 38.8957 35.339 39.3369C35.2876 39.718 35.2933 40.2348 35.3215 40.6221C35.301 41.2835 35.2963 41.9453 35.3076 42.607C35.2576 43.0785 35.2427 43.5693 35.2216 44.0443C34.8005 44.7407 34.094 44.9676 33.3074 45.0228C32.4081 45.0858 31.0089 44.976 30.675 43.9711C30.6282 43.8293 30.6423 43.3426 30.645 43.1731C30.6837 41.876 30.6332 40.3689 30.6197 39.0555C30.6275 38.6416 30.6593 37.4288 30.5939 37.0574L30.5845 36.825C30.7083 36.0017 30.5165 35.1328 30.6752 34.2251L30.667 34.1131C31.0029 33.6655 31.3161 33.4021 31.8185 33.1678L32.4245 33.0461L32.7008 32.9939Z" fill="#BDBDBD"/>
<path d="M32.7009 32.9939C33.6893 33.0516 34.7319 33.1373 35.2275 34.1463L35.2592 34.4253C35.2519 34.592 35.2656 34.7072 35.1775 34.845C33.8615 35.3959 32.1425 35.7916 30.8034 34.805C30.647 34.6897 30.6825 34.4146 30.6752 34.2251L30.667 34.1131C31.0029 33.6655 31.3161 33.4021 31.8185 33.1678L32.4246 33.0461L32.7009 32.9939Z" fill="#DBDBDB"/>
<path d="M14.1206 25.9235C14.8456 24.3657 17.3694 24.5435 18.476 25.6707C18.5824 25.9936 18.6308 26.1157 18.6446 26.4641C18.7004 27.2596 18.7178 30.23 18.6393 31.0101C18.7591 32.2907 18.5279 34.2798 18.6314 35.6238C18.3831 36.5039 17.6567 36.7382 16.8011 36.771C15.6618 36.7621 14.8456 36.8494 14.0906 35.8245C14.0367 34.9729 14.0013 34.3072 14.0666 33.4547L14.0524 28.6268C14.0514 27.992 14.0155 26.4794 14.1206 25.9235Z" fill="#BBBBBB"/>
<path d="M14.1211 25.9235C14.8461 24.3657 17.3699 24.5435 18.4765 25.6707C18.5828 25.9936 18.6313 26.1157 18.645 26.4641C18.3674 26.5797 18.2212 26.798 17.8656 26.9407C16.4687 27.5013 15.4543 27.1762 14.1533 26.6354C14.1385 26.4013 14.1313 26.1586 14.1211 25.9235Z" fill="#DBDBDB"/>
<path d="M21.2168 29.6563C21.26 29.5198 21.2315 29.3091 21.2223 29.1582C21.329 29.1644 21.5612 29.1836 21.6857 29.253C24.6407 30.8968 27.7045 32.3978 30.6307 34.0678C30.6427 34.0828 30.6547 34.098 30.6668 34.1131L30.675 34.2251C30.5163 35.1328 30.7082 36.0017 30.5843 36.825L30.5575 36.7234C30.2669 36.6935 30.2033 36.7959 29.906 36.754C29.7576 36.9373 29.7828 36.8597 29.759 37.0614L29.8057 37.1616C29.7141 37.168 29.5294 37.1475 29.43 37.1397C28.431 37.0113 28.3964 37.3042 27.9487 37.342C27.6788 36.9651 27.4814 37.0987 27.2832 36.6786C25.787 36.2606 24.1019 35.2576 22.751 34.5037C22.6502 34.4475 22.6619 34.474 22.5107 34.5189C22.5155 34.6082 22.5218 34.6975 22.5295 34.7866C22.0984 34.63 22.3013 33.6915 22.3582 33.3485C22.4223 32.7656 22.3314 31.0781 22.4654 30.6575C22.0534 30.2582 21.6074 30.3006 21.2168 29.6563Z" fill="#7A7A7A"/>
<path d="M25.1061 32.0071C25.7355 32.2738 26.3813 32.7321 27.0245 32.9322C27.0659 32.9699 27.2628 33.144 27.2859 33.1742C27.2603 33.9564 27.2139 35.925 27.2832 36.6786C25.7871 36.2606 24.1019 35.2576 22.7511 34.5036C22.6503 34.4475 22.6619 34.4739 22.5108 34.5188C22.5156 34.6081 22.5219 34.6975 22.5296 34.7866C22.0985 34.63 22.3014 33.6915 22.3582 33.3485C22.3468 33.7275 22.2862 34.0062 22.5694 34.298C22.9841 34.7253 23.7236 34.7082 24.2702 34.6533L24.6511 34.5796C25.5788 34.8089 25.0287 32.5775 25.1061 32.0071Z" fill="#656565"/>
<path d="M27.2861 33.1743C29.6347 34.3276 29.3133 34.6817 29.4303 37.1398C28.4314 37.0113 28.3967 37.3043 27.949 37.3421C27.6791 36.9651 27.4818 37.0988 27.2835 36.6787C27.2141 35.9251 27.2606 33.9565 27.2861 33.1743Z" fill="#969696"/>
<path d="M22.4652 30.6575C22.8506 30.8638 23.7729 31.3494 24.1114 31.587C24.1846 32.2731 24.6622 34.0792 24.27 34.6533C23.7234 34.7083 22.9838 34.7253 22.5692 34.2981C22.2859 34.0063 22.3466 33.7275 22.358 33.3485C22.4221 32.7657 22.3312 31.0782 22.4652 30.6575Z" fill="#949494"/>
<path d="M27.0244 32.9321C27.706 32.9962 29.3924 34.0004 29.8295 34.4581C29.968 35.2805 30.0595 35.9346 29.906 36.7539C29.7576 36.9372 29.7828 36.8596 29.759 37.0613L29.8057 37.1614C29.7141 37.1679 29.5294 37.1473 29.43 37.1396C29.313 34.6815 29.6344 34.3274 27.2858 33.1741C27.2627 33.1439 27.0659 32.9698 27.0244 32.9321Z" fill="#616161"/>
<path d="M29.8296 34.4583C30.0807 34.5821 30.3262 34.7012 30.571 34.8379C30.575 35.2833 30.6101 36.3227 30.5576 36.7234C30.267 36.6935 30.2034 36.7959 29.9062 36.754C30.0596 35.9347 29.9682 35.2806 29.8296 34.4583Z" fill="#202020"/>
<path d="M24.6514 34.5795C25.1032 33.9959 24.5092 32.064 24.6941 31.782C24.8933 31.8127 24.9647 31.8134 25.1375 31.9292L25.1063 32.007C25.0289 32.5775 25.5791 34.8089 24.6514 34.5795Z" fill="#4B4B4B"/>
<path d="M47.0105 28.8616C47.0485 30.4399 46.6481 29.8307 45.7981 30.6132C45.8872 31.1939 45.8816 32.0941 45.8852 32.6963L45.8001 32.6103C45.6344 32.6774 45.5069 32.7204 45.3377 32.774C45.1572 33.2594 44.4692 33.0228 44.5785 33.8109L44.474 34.0601C44.4011 34.2511 44.4097 34.2951 44.4237 34.4936L44.3394 34.6581C43.9913 34.7578 43.4092 34.4715 43.2902 34.0861C43.3859 33.8067 43.3859 33.6834 43.4059 33.3856C43.4598 33.0399 43.6577 32.0176 43.5371 31.7601C43.336 31.7647 43.1866 31.8093 43.0868 31.9836C42.7844 32.0531 42.062 32.5055 41.6989 32.6592C41.4209 32.7879 41.0218 32.9135 40.9153 33.1852L40.8727 33.1982C40.6022 33.2486 40.3137 33.441 40.0694 33.5819C39.6717 33.7561 39.5393 33.8381 39.1811 34.0776C39.0312 35.149 38.8781 36.1808 38.9978 37.263L39.3644 37.3179C38.8201 37.6271 36.9897 38.7783 36.5319 38.8224C36.0901 38.9316 35.7481 39.142 35.3392 39.3369C35.3603 38.8957 35.3742 38.4541 35.3809 38.0124C35.382 37.4023 35.3719 36.7922 35.3507 36.1824C35.2796 35.813 35.3069 35.3657 35.3196 34.9873C35.5457 34.9772 37.3887 34.0163 37.7539 33.8279C40.8841 32.2133 43.9937 30.6828 47.0105 28.8616Z" fill="#7A7A7A"/>
<path d="M38.3616 34.3638C38.1961 34.9256 38.1381 36.285 38.3719 36.8912C38.3912 36.9413 38.5544 37.093 38.6045 37.1376C38.7593 37.1778 38.8487 37.2048 38.9974 37.263L39.364 37.318C38.8197 37.6271 36.9893 38.7783 36.5316 38.8224C36.0897 38.9316 35.7477 39.142 35.3389 39.3369C35.3599 38.8957 35.3739 38.4541 35.3805 38.0125C35.3816 37.4023 35.3716 36.7922 35.3504 36.1825C35.3734 36.0085 35.3509 35.9015 35.4804 35.8234C36.3696 35.2875 37.4522 34.8363 38.3616 34.3638Z" fill="#2F2F2F"/>
<path d="M35.3805 38.0123C35.4727 37.9002 35.4984 37.7702 35.5426 37.6291C36.5021 37.0623 37.518 36.875 38.6045 37.1375C38.7593 37.1776 38.8487 37.2046 38.9974 37.2629L39.364 37.3178C38.8197 37.627 36.9893 38.7781 36.5316 38.8223C36.0897 38.9315 35.7477 39.1419 35.3389 39.3368C35.3599 38.8956 35.3739 38.454 35.3805 38.0123Z" fill="#626262"/>
<path d="M45.3713 30.8507L45.7979 30.6133C45.887 31.194 45.8814 32.0942 45.885 32.6963L45.7999 32.6103C45.6342 32.6775 45.5067 32.7205 45.3375 32.7741C45.157 33.2595 44.469 33.0228 44.5783 33.811L44.4738 34.0602C44.4009 34.2512 44.4095 34.2952 44.4235 34.4937L44.3392 34.6582C43.9911 34.7579 43.409 34.4716 43.29 34.0862C43.3857 33.8068 43.3857 33.6835 43.4057 33.3857L43.53 33.4182C43.8624 33.0347 43.9418 32.1563 43.9674 31.6548C44.3937 31.3632 44.9122 31.0986 45.3713 30.8507Z" fill="#858585"/>
<path d="M45.3713 30.8507L45.7978 30.6133C45.8869 31.194 45.8813 32.0942 45.8849 32.6963L45.7998 32.6103C45.6341 32.6775 45.5066 32.7205 45.3374 32.7741L45.2506 32.8026C45.2609 32.7548 45.2593 32.712 45.2576 32.6633L45.2897 32.6495C45.0258 32.5706 45.01 32.6281 44.8508 32.3934C44.521 31.9068 45.0529 30.9846 45.635 31.2512C45.5928 31.4501 45.543 31.5697 45.7165 31.6877C45.7795 31.5826 45.7478 30.9478 45.6694 30.8376L45.3713 30.8507Z" fill="#949494"/>
<path d="M29.9064 36.754C30.2036 36.7958 30.2672 36.6935 30.5578 36.7233L30.5846 36.825L30.5941 37.0573C30.6594 37.4288 30.6277 38.6416 30.6199 39.0555C30.6334 40.3688 30.6838 41.8759 30.6451 43.1731C29.2606 43.3545 28.0056 43.5403 26.9362 42.4025C26.8842 41.3852 26.9107 39.2563 26.9661 38.2495C26.9771 38.2215 26.9884 38.1936 27.0002 38.166C27.2069 37.6811 27.4784 37.5303 27.949 37.342C28.3967 37.3041 28.4314 37.0112 29.4303 37.1396C29.5297 37.1474 29.7144 37.168 29.806 37.1615L29.7594 37.0613C29.7831 36.8596 29.7579 36.9373 29.9064 36.754Z" fill="#6A6A6A"/>
<path d="M29.9061 36.754C30.2033 36.7958 30.2669 36.6935 30.5575 36.7233L30.5843 36.825L30.5938 37.0573C30.6591 37.4288 30.6274 38.6416 30.6196 39.0555C29.8087 38.9195 28.0638 40.4168 26.9658 38.2495C26.9768 38.2215 26.9881 38.1936 26.9999 38.166C27.2066 37.6811 27.4781 37.5303 27.9487 37.342C28.3964 37.3041 28.4311 37.0112 29.43 37.1396C29.5294 37.1474 29.7141 37.168 29.8057 37.1615L29.7591 37.0613C29.7828 36.8596 29.7576 36.9373 29.9061 36.754Z" fill="#949494"/>
<path d="M29.9063 36.754C30.2035 36.7958 30.2671 36.6935 30.5577 36.7233L30.5845 36.825L30.594 37.0573L30.5682 37.2809C30.3236 37.3699 30.128 37.1916 29.8059 37.1615L29.7593 37.0613C29.783 36.8596 29.7578 36.9373 29.9063 36.754Z" fill="#393939"/>
<path d="M43.0865 31.9835C43.1863 31.8092 43.3357 31.7646 43.5368 31.76C43.6574 32.0175 43.4595 33.0398 43.4056 33.3854C43.3856 33.6833 43.3856 33.8066 43.29 34.0859C43.409 34.4714 43.991 34.7577 44.3392 34.658L44.4235 34.4935C44.4095 34.295 44.4009 34.251 44.4737 34.06C44.5636 34.5006 44.4812 35.1253 44.5301 35.5981C45.539 36.2435 46.0575 36.8554 47.246 36.9504L47.1262 37.0253C46.3129 37.0819 45.0273 36.2176 44.2907 35.7793C43.1423 35.7522 42.9008 35.8581 41.8249 36.2857C41.3802 36.2413 41.4469 36.4815 41.0122 36.4986C40.8955 36.3588 40.9257 33.5778 40.915 33.1851C41.0215 32.9134 41.4206 32.7878 41.6987 32.6591C42.0617 32.5054 42.7841 32.0529 43.0865 31.9835Z" fill="#5F5F5F"/>
<path d="M43.0868 31.9835C43.1865 31.8092 43.3359 31.7646 43.537 31.76C43.6576 32.0175 43.4598 33.0398 43.4058 33.3854C43.3858 33.6833 43.3858 33.8066 43.2902 34.0859C43.4092 34.4714 43.9913 34.7577 44.3394 34.658L44.4237 34.4935C44.4256 34.7461 44.4684 34.7674 44.3513 34.9405C44.068 34.9881 43.6024 34.6858 43.3089 34.5376L42.9893 34.0096C43.1068 33.2417 43.1446 32.7653 43.0868 31.9835Z" fill="#4B4B4B"/>
<path d="M41.6987 32.6592C42.0618 32.5055 42.7842 32.0531 43.0866 31.9836C43.075 32.3653 43.0705 32.7543 43.0274 33.1331C42.8851 33.0115 43.0345 32.9476 42.9129 32.9174C42.6009 32.8399 42.395 32.8086 42.148 32.5971C41.9689 32.7318 42.0081 32.6621 41.9784 32.8513C41.8894 32.7907 41.7835 32.7228 41.6987 32.6592Z" fill="#8B8B8B"/>
<path d="M36.5318 38.8223C36.9712 38.922 37.4515 39.1966 37.8566 39.4121C38.3893 39.8133 38.8693 39.7813 39.144 40.3686C38.7185 40.7519 37.6784 41.2896 37.1365 41.6105C36.7017 41.4105 35.7095 40.8783 35.3216 40.622C35.2933 40.2347 35.2877 39.7178 35.3391 39.3368C35.748 39.1419 36.0899 38.9315 36.5318 38.8223Z" fill="#B8B8B8"/>
<path d="M40.0691 33.582C40.3134 33.4411 40.602 33.2487 40.8725 33.1982C40.9048 34.1824 40.9357 35.7802 40.8825 36.7592C40.5902 37.0471 40.4472 37.1551 40.0585 37.2946C39.8438 37.3033 39.5738 37.3217 39.3641 37.318L38.9975 37.2631C38.8778 36.1808 39.031 35.1491 39.1808 34.0776C39.539 33.8382 39.6715 33.7562 40.0691 33.582Z" fill="#A8A8A8"/>
<path d="M40.0691 33.582C40.0242 34.2812 39.5447 34.3342 39.3986 34.7548C39.3329 34.944 39.1409 36.9982 39.2664 37.15C39.4945 37.197 39.8361 37.2787 40.0585 37.2946C39.8438 37.3033 39.5738 37.3217 39.3641 37.318L38.9975 37.2631C38.8778 36.1808 39.031 35.1491 39.1808 34.0777C39.539 33.8382 39.6715 33.7562 40.0691 33.582Z" fill="#949494"/>
<path d="M37.1364 41.6105C37.6783 41.2896 38.7184 40.7519 39.1439 40.3687C39.2327 41.0503 39.2183 41.4141 39.1945 42.0992C38.9423 42.239 37.5979 42.9935 37.3989 43.0442C36.9993 42.6498 36.905 43.2972 36.605 42.0976C36.7546 41.8564 36.8109 41.8236 37.0474 41.66L37.1059 41.7088L37.1364 41.6105Z" fill="#9B9B9B"/>
<path d="M35.3217 40.6221C35.7096 40.8783 36.7018 41.4105 37.1366 41.6105L37.1061 41.7088L37.0475 41.66C36.811 41.8237 36.7548 41.8564 36.6052 42.0976C36.9052 43.2973 36.9995 42.6498 37.3991 43.0443C36.6591 43.4038 36.011 42.8926 35.3077 42.6069C35.2965 41.9453 35.3011 41.2834 35.3217 40.6221Z" fill="#7A7A7A"/>
<path d="M40.9151 33.1853C40.9258 33.5781 40.8956 36.3591 41.0122 36.4988C41.447 36.4817 41.3803 36.2416 41.8249 36.2859C41.6602 36.3902 40.4217 37.2591 40.4045 37.2612C39.0973 37.4259 38.3066 38.3464 37.1834 38.8861L37.1846 38.9625C37.3673 39.0606 37.8381 39.2319 37.8565 39.4124C37.4514 39.1969 36.9711 38.9222 36.5317 38.8225C36.9895 38.7784 38.8199 37.6272 39.3642 37.3181C39.5739 37.3217 39.8439 37.3034 40.0585 37.2946C40.4472 37.1552 40.5903 37.0471 40.8826 36.7592C40.9357 35.7802 40.9049 34.1824 40.8726 33.1983L40.9151 33.1853Z" fill="#8B8B8B"/>
<path d="M18.6316 35.6238C18.6593 35.375 18.6789 34.7546 18.7686 34.583C19.0813 34.8637 18.8928 35.3698 18.9282 35.662C19.0033 36.2818 17.8651 37.062 17.396 36.8984C17.4735 36.8631 17.555 36.8279 17.6305 36.7894C17.432 36.8089 16.9228 36.8855 16.7676 36.8228L16.8012 36.771C17.6568 36.7382 18.3832 36.5039 18.6316 35.6238Z" fill="#878787"/>
<path d="M27.6115 9.49571C27.9079 7.98767 30.3644 8.01848 30.4001 9.70877C30.4054 10.6106 30.4039 11.4415 30.3651 12.3416C30.2162 13.0772 30.4699 13.91 30.0856 14.5616L29.9875 14.5206C29.302 15.2591 27.8545 15.6068 27.3369 14.48C27.4042 14.1773 27.5081 14.106 27.4413 13.8597C27.4491 13.8515 27.457 13.8435 27.4646 13.8351C27.8085 13.4541 27.646 10.1836 27.6115 9.49571Z" fill="#B1B1B1"/>
<path d="M27.6113 9.49571C27.9076 7.98767 30.3642 8.01848 30.3999 9.70877C29.7709 9.67396 28.1691 10.21 27.6113 9.49571Z" fill="#DBDBDB"/>
<path d="M22.3507 12.3799C22.441 11.1642 23.7468 11.0465 24.6729 11.5152C24.9378 11.6493 25.0098 11.8809 25.069 12.16C25.1338 12.9351 25.1329 13.7144 25.0661 14.4893C25.0438 14.9367 24.9923 15.173 25.4088 15.4477C25.4237 15.6351 25.428 15.667 25.378 15.847C25.4301 16.1657 25.5325 16.6093 25.3745 16.8942L25.2371 16.9372C24.8855 17.49 24.4007 17.6929 23.7569 17.7058C22.5427 17.7303 22.3764 17.3297 22.3501 16.3019C22.4433 16.0039 22.3657 12.8781 22.3507 12.3799Z" fill="#7A7A7A"/>
<path d="M22.3506 12.3799C22.4409 11.1642 23.7466 11.0465 24.6728 11.5152C24.9377 11.6493 25.0096 11.8809 25.0688 12.16C23.8188 13.1472 23.5454 12.5484 22.3506 12.3799Z" fill="#A8A8A8"/>
<path d="M25.3744 16.8944C25.3007 16.886 25.2097 16.8646 25.1354 16.8497C24.8777 16.5321 24.8948 15.8123 25.1767 15.52L25.2781 15.5393L25.3779 15.8472C25.43 16.1659 25.5324 16.6095 25.3744 16.8944Z" fill="#616161"/>
</svg>
