<svg width="68" height="68" viewBox="0 0 68 68" fill="none" xmlns="http://www.w3.org/2000/svg">
<circle cx="34" cy="34" r="34" fill="#EBEBE2"/>
<circle cx="34" cy="34" r="33.5" stroke="black" stroke-opacity="0.09"/>
<path d="M31.5144 14.7169C31.655 12.6341 35.154 12.6452 36.1211 13.7433C37.1163 14.8733 36.0979 18.2535 36.6331 19.5251C36.8907 19.6298 37.2064 19.7428 37.4277 19.9004C37.5391 19.6744 37.4899 19.3783 37.4736 19.1162C37.4013 17.0282 41.6455 17.021 41.9723 18.732C42.087 19.6678 41.9354 21.7973 42.1029 22.4351C43.4597 23.0477 45.5274 24.2516 46.8343 25.0268C46.8649 24.8278 46.798 24.3704 46.7731 24.1475C47.0838 22.275 50.1342 22.2108 51.1379 23.4895C51.3602 23.7728 51.3464 24.2669 51.3311 24.6167C51.327 25.5571 51.3309 26.5023 51.2895 27.4414C51.4871 27.5338 51.824 27.6801 51.9994 27.785C52.0121 27.5616 51.9571 26.9212 51.9422 26.6677C52.0879 24.3998 56.9777 24.4503 56.9727 26.7151C56.9877 27.3999 56.9352 30.2212 56.9927 30.5822C58.4253 31.3215 62.4546 33.1995 63.0564 34.3517C63.6694 35.5251 63.6419 39.6684 63.1511 40.9402C62.7148 42.0708 58.9559 43.8878 57.8656 44.4741L51.3553 47.9756L42.5816 52.7194C40.3526 53.917 37.8668 55.523 35.359 55.8764C32.1806 56.5093 29.3599 54.7566 26.726 53.3346L20.8305 50.1634L11.6279 45.1812C9.80919 44.1929 6.6374 42.6542 5.10293 41.2822C4.30498 40.5687 4.51937 36.4673 4.62836 35.2448L4.6782 34.8598C4.77113 34.6191 4.89641 34.3521 5.00206 34.113C5.61296 33.342 6.49502 32.8567 7.36834 32.4318C8.39126 31.8101 9.93304 31.0311 11.0235 30.502C11.0759 29.7902 11.0188 26.8079 10.9395 26.2006C11.1273 25.645 11.4203 25.2511 11.9765 25.0244C13.4409 24.4273 14.9466 24.6581 15.9218 25.8526C15.9532 26.2311 15.9433 27.5692 15.9881 27.7071C16.1667 27.5858 16.5324 27.4147 16.7397 27.3106C16.832 26.8134 16.7303 24.5362 16.6383 24.0313C16.9252 22.1873 19.953 22.0672 20.9861 23.266C21.3222 23.6562 21.2493 24.4046 21.2372 24.8904C21.5722 24.7724 22.8628 24.0456 23.2443 23.84C23.9462 23.4485 25.1679 22.7375 25.8821 22.4518C25.9483 21.6022 25.8649 19.5956 25.8556 18.6589C25.8135 16.5906 30.8195 16.5718 30.82 18.8379C30.8201 19.1101 30.7175 19.4648 30.8359 19.6986C31.0343 19.7648 31.188 19.6754 31.3965 19.5995L31.4669 19.6028C31.6173 19.2104 31.548 15.3726 31.5144 14.7169Z" fill="#B1ACB4"/>
<path d="M4.62893 35.0095C4.72457 35.2354 4.71786 35.3227 4.89245 35.4565C5.11754 35.8541 5.51386 36.4654 5.90051 36.7087C7.46199 37.691 9.17624 38.5755 10.7961 39.4656L19.9281 44.4793C22.3806 45.8478 24.8408 47.203 27.3083 48.5449C28.7987 49.363 30.5136 50.3435 32.1113 50.9451C32.4039 51.0553 33.365 51.0461 33.6469 51.1543L33.4565 51.2895L33.4591 51.19C33.466 51.2628 33.9451 51.8192 34.1228 52.4522C34.3604 53.2988 34.3699 55.0906 34.5857 55.6889C34.8208 55.8047 35.2427 55.8384 35.5181 55.8749C32.3234 56.515 29.4881 54.7424 26.8405 53.3042L20.9146 50.0971L11.6646 45.0585C9.83648 44.059 6.64833 42.5029 5.10595 41.1153C4.30388 40.3937 4.51938 36.2458 4.62893 35.0095Z" fill="#4A4958"/>
<path d="M31.1016 14.7595C31.2506 12.6248 34.9582 12.6361 35.983 13.7616C37.0376 14.9197 35.9584 18.3841 36.5255 19.6873C36.7985 19.7947 37.133 19.9104 37.3675 20.072C37.655 20.559 37.443 23.7824 37.4395 24.5129C37.4303 24.6664 37.4294 24.8671 37.3823 25.0095L36.4329 24.9251C36.0069 24.9576 35.4259 24.8569 34.9902 24.7989C33.4669 24.5654 32.463 25.0869 31.1941 23.7754C31.1331 23.4229 31.1119 23.226 31.099 22.8691C31.0734 22.336 31.0632 21.9031 30.959 21.3768L30.5181 20.9672C30.5483 20.7039 30.8009 20.5076 30.9989 20.3207C31.0722 20.0716 31.0416 20.0054 30.9766 19.7636L31.0512 19.7669C31.2106 19.3648 31.1372 15.4314 31.1016 14.7595Z" fill="#D8B6C1"/>
<path d="M31.1082 14.0095C31.5216 14.4747 32.6598 15.0558 33.2582 15.2575C33.3086 16.2953 33.263 19.6137 33.9356 20.3279C34.1944 20.6027 34.8508 20.619 35.1324 20.9552L35.2423 20.64L35.4041 20.578C35.9404 21.3237 35.7813 21.8434 36.0272 22.5612C36.0119 22.9597 35.8439 23.8952 35.8807 24.1113C35.9962 24.2129 35.991 24.2215 36.1485 24.246C36.5879 24.2565 37.1038 24.3266 37.5181 24.4765C37.5088 24.6413 37.5078 24.8567 37.4602 25.0095L36.5 24.9189C36.0692 24.9538 35.4817 24.8457 35.041 24.7835C33.5004 24.5329 32.485 25.0926 31.2018 23.6851C31.1401 23.3069 31.1187 23.0955 31.1055 22.7125C31.0797 22.1404 31.0693 21.6758 30.964 21.111L30.5181 20.6715C30.5487 20.3889 30.8041 20.1782 31.0043 19.9776C31.0785 19.7103 31.0475 19.6393 30.9818 19.3798L31.0572 19.3834C31.2184 18.9518 31.1442 14.7307 31.1082 14.0095Z" fill="#9F708B"/>
<path d="M35.5181 20.4351L35.6102 20.0794L35.7459 20.0095C36.1955 20.8509 36.0621 21.4372 36.2682 22.2471C36.2554 22.6968 36.1146 23.7522 36.1454 23.9961C36.2422 24.1107 36.2379 24.1204 36.3699 24.1481C36.7383 24.1599 37.1708 24.239 37.5181 24.4082C37.5103 24.5941 37.5095 24.837 37.4696 25.0095L36.6646 24.9073C36.3987 24.8231 36.0034 24.7476 35.7245 24.6817C35.6851 24.2686 35.5524 20.9012 35.608 20.6734L35.5181 20.4351Z" fill="#A79DB3"/>
<path d="M35.5181 20.4091L35.6262 20.0752L35.7855 20.0095C36.3133 20.7994 36.1566 21.35 36.3987 22.1104C36.3836 22.5325 36.2183 23.5235 36.2545 23.7525C36.3682 23.86 36.3631 23.8692 36.5181 23.8952C36.2467 24.0296 36.3426 24.0304 36.1079 23.9748C35.6646 22.9549 35.9127 21.1753 35.6236 20.6328L35.5181 20.4091Z" fill="#DFBFC9"/>
<path d="M31.5181 22.0095C31.7507 22.7235 31.7084 22.8562 32.345 23.2089C33.5261 23.8634 34.6298 22.8332 35.2588 23.8815C35.4216 23.7747 35.4173 23.5945 35.4608 23.3566C35.475 23.2784 35.4862 23.1998 35.4941 23.1208C35.5163 23.4696 35.5469 23.6715 35.4608 24.0095C33.9173 23.7675 32.9001 24.308 31.6145 22.9488C31.5527 22.5835 31.5312 22.3793 31.5181 22.0095Z" fill="#846078"/>
<path d="M31.3613 19.0137C31.6202 19.3448 31.5093 20.5157 31.3785 20.899L31.2155 21.0095L30.5181 20.5018C30.5659 20.1753 30.9655 19.9319 31.2786 19.7002C31.3945 19.3914 31.3461 19.3093 31.2434 19.0095L31.3613 19.0137Z" fill="#A79DB3"/>
<path d="M36.3523 19.0095C36.6729 19.1208 37.0658 19.2407 37.3412 19.4081C37.6789 19.9127 37.4299 23.2526 37.4257 24.0095C36.9446 23.8648 36.3455 23.7971 35.8352 23.787C35.6523 23.7633 35.6583 23.755 35.5242 23.6569C35.4814 23.4482 35.6765 22.545 35.6943 22.1602C35.7037 21.7886 35.7099 21.4169 35.7129 21.0452L35.796 20.9947L35.7626 20.7918L35.7697 20.7878C35.7725 20.9349 35.7452 20.8723 35.8404 20.9852C35.914 21.6948 36.0014 22.739 35.7253 23.4123L35.8116 23.4836C35.9413 23.3892 36.124 23.1629 36.1108 23.0234C35.9798 21.6456 36.2519 20.368 36.3523 19.0095Z" fill="#C3B5BE"/>
<path d="M10.5181 26.4279C10.7401 25.9001 11.0865 25.526 11.7442 25.3105C13.4757 24.7433 15.2559 24.9626 16.4089 26.0974C16.4461 26.4569 16.4344 27.728 16.4874 27.859C16.5634 28.3713 16.478 29.2826 16.4472 29.8274C16.4425 30.4295 16.3994 31.6447 16.4985 32.2024C16.4823 32.6885 16.3966 34.0521 16.4519 34.4702L16.1828 34.6026L15.968 34.927L15.7508 34.9208C15.5616 35.1102 15.5294 35.165 15.402 35.3762C14.9778 35.6241 14.6681 35.7899 14.2217 36.0095C13.3975 35.7481 12.7807 35.855 12.034 35.6736C11.7729 35.6656 11.6291 35.6215 11.3844 35.5617L11.4812 35.5186C11.6206 35.287 10.9077 34.9616 10.7837 34.6472C10.5553 34.068 10.5988 33.3438 10.5972 32.7392C10.6568 32.2832 10.6189 31.0435 10.6173 30.5142C10.6794 29.838 10.6119 27.0048 10.5181 26.4279Z" fill="#D1A8AC"/>
<path d="M10.5181 26.0095C10.9321 26.6408 11.7907 27.2028 12.5181 27.3127C12.4136 29.014 12.4805 30.8487 12.4411 32.5616C12.4147 33.7032 12.3431 34.8191 12.3231 35.9589C12.0028 35.9913 11.9016 35.8571 11.7713 36.0095C11.5554 36.0009 11.4366 35.9532 11.2342 35.8886L11.3143 35.8419C11.4295 35.5914 10.8401 35.2395 10.7376 34.8995C10.5488 34.273 10.5848 33.4897 10.5835 32.8357C10.6328 32.3426 10.6014 31.0017 10.6001 30.4292C10.6514 29.6978 10.5956 26.6335 10.5181 26.0095Z" fill="#846078"/>
<path d="M10.5181 26.4881C10.7401 25.9379 11.0865 25.5479 11.7442 25.3233C13.4757 24.732 15.2559 24.9606 16.4089 26.1435C16.4461 26.5183 16.4344 27.8433 16.4874 27.9799C16.5634 28.5138 16.478 29.4638 16.4472 30.0318C16.4425 30.6594 16.3994 31.9261 16.4985 32.5074C16.4823 33.0142 16.3966 34.4357 16.4519 34.8714L16.1828 35.0095C15.2154 32.9452 15.6325 31.6354 15.6915 29.4876C15.711 28.7747 15.5994 28.1763 15.6339 27.4635C14.6718 27.6446 13.7867 27.5802 12.9374 27.7441C12.0575 27.6381 11.0188 27.0965 10.5181 26.4881Z" fill="#DFBFC9"/>
<path d="M51.5559 26.6724C51.699 24.4226 56.5033 24.4727 56.4984 26.7195C56.5131 27.3988 56.4615 30.1976 56.5181 30.5557C56.2122 33.2619 57.5053 36.4913 53.3426 35.9494L52.3669 35.7464L52.3226 35.4344C52.3158 34.8364 51.9947 34.8365 51.5181 34.5272C51.6301 34.0211 51.648 33.3508 51.5928 32.8362L51.6119 32.4344L51.6121 27.7808C51.6246 27.5593 51.5706 26.9239 51.5559 26.6724Z" fill="#B85139"/>
<path d="M51.5719 27.0095C52.3864 27.1968 52.6522 27.5877 54.1529 27.8999C54.6512 28.8866 54.4027 29.6157 54.4984 30.6094C54.6699 32.393 53.6509 34.2757 54.1099 36.0095L52.7239 35.8126L52.661 35.5099C52.6513 34.9297 52.1952 34.9298 51.5181 34.6297C51.6773 34.1387 51.7027 33.4884 51.6243 32.9892L51.6513 32.5994L51.6517 28.0848C51.6694 27.8699 51.5926 27.2535 51.5719 27.0095Z" fill="#7A3029"/>
<path d="M51.5181 26.8753C51.6628 24.3509 56.523 24.4072 56.5181 26.9281C55.487 27.7954 54.9989 28.1502 53.7013 27.9592C53.5861 27.9422 53.471 27.9241 53.3561 27.9051C52.2874 27.544 52.0981 27.092 51.5181 26.8753Z" fill="#D36E62"/>
<path d="M16.2931 23.6606C16.6129 21.6938 19.9874 21.5657 21.1388 22.8444C21.5135 23.2606 21.4323 24.0589 21.4187 24.577C21.433 24.8026 21.462 25.1145 21.4612 25.3323L21.4641 26.2118C21.4474 27.2865 21.4541 28.3614 21.4838 29.4359C21.5344 31.7806 21.8584 32.9794 18.8012 33.0095C18.4516 32.9801 17.94 32.9617 17.6276 32.8437C16.9917 32.7957 16.3596 32.4965 15.579 32.4579C15.4856 31.8318 15.5262 30.4675 15.5306 29.7914C15.5596 29.1796 15.6402 28.1564 15.5685 27.5813C15.7675 27.4519 16.1751 27.2695 16.4062 27.1584C16.5091 26.6281 16.3957 24.1992 16.2931 23.6606Z" fill="#DBB6BE"/>
<path d="M16.3903 24.0095C16.8111 24.23 17.2286 24.4516 17.6778 24.6401C18.1583 24.8417 19.2911 24.8275 19.5181 25.2006C18.9694 26.6382 19.4838 29.3324 19.2442 30.9079C19.2034 31.1758 19.1476 32.7956 19.2128 33.0095C18.8193 32.9812 18.2436 32.9635 17.8921 32.8499C17.1764 32.8037 16.4651 32.5156 15.5866 32.4785C15.4815 31.8758 15.5273 30.5623 15.5322 29.9115C15.5649 29.3226 15.6555 28.3376 15.5748 27.7839C15.7988 27.6593 16.2575 27.4837 16.5175 27.3768C16.6333 26.8663 16.5057 24.528 16.3903 24.0095Z" fill="#BD7991"/>
<path d="M15.5299 30.0885C15.76 29.9217 16.087 30.0608 16.3539 30.1259L16.3676 30.2005C16.4933 30.9197 16.3239 31.5756 16.5607 32.2677C16.7106 32.706 17.4925 32.7604 17.5181 33.0095C16.9151 32.9637 16.3159 32.6773 15.5758 32.6404C15.4873 32.0412 15.5258 30.7355 15.5299 30.0885Z" fill="#6D608E"/>
<path d="M16.4444 27.0095C16.5836 27.4029 16.4928 29.5193 16.4376 30.0095C16.1397 29.9331 15.7748 29.77 15.5181 29.9657C15.5488 29.2788 15.634 28.13 15.5582 27.4843C15.7687 27.339 16.2 27.1342 16.4444 27.0095Z" fill="#A4A6AF"/>
<path d="M46.62 23.6459C46.9112 21.6383 49.77 21.5695 50.7106 22.9405C50.919 23.2442 50.906 23.774 50.8917 24.149C50.8879 25.1572 50.8916 26.1707 50.8528 27.1776C51.0379 27.2766 51.3537 27.4335 51.5181 27.5459L51.5178 32.5752L51.4997 33.0095C50.9285 32.966 50.3572 32.9275 49.7855 32.8941L49.7091 32.6626C49.2312 32.7331 48.4297 32.6863 47.9641 32.6276C46.0404 32.3849 46.933 30.3622 46.5181 29.7601L46.6183 29.6573C46.7744 28.7747 46.7363 25.5789 46.6773 24.5887C46.706 24.3754 46.6433 23.8849 46.62 23.6459Z" fill="#9F708B"/>
<path d="M46.5181 23.5583C46.8154 21.6582 49.7337 21.5931 50.6938 22.8906C50.9065 23.1781 50.8933 23.6795 50.8787 24.0345C50.8747 24.9887 50.8786 25.9479 50.8389 26.9009C51.0279 26.9946 51.3503 27.1431 51.5181 27.2495L51.5178 32.0095C51.0542 31.8952 50.9096 31.8521 50.4203 31.8936L50.3149 31.8703C50.0306 31.1751 50.579 28.7566 49.8409 27.9782C49.8497 27.786 49.8503 27.8419 49.9703 27.6577C49.8439 27.2836 49.292 26.9014 49.1075 26.4808C48.9664 26.1591 48.8759 24.8655 48.7214 24.6385L48.5466 24.728C48.2047 25.2777 48.4049 27.2033 48.2314 28.2821C48.2329 27.1005 48.2027 25.7108 48.1266 24.5351C47.7516 24.3896 46.6582 23.9146 46.5181 23.5583Z" fill="#D6ADAF"/>
<path d="M46.5181 23.8482C46.8584 21.5925 50.1991 21.5152 51.2982 23.0555C51.5417 23.3968 51.5266 23.992 51.5098 24.4134C50.3103 24.7309 49.6071 25.0356 48.3594 25.0077C47.9302 24.835 46.6784 24.2712 46.5181 23.8482Z" fill="#DFBFC9"/>
<path d="M50.8995 27.0095C51.0717 27.1012 51.3653 27.2466 51.5181 27.3507L51.5179 32.0095C51.0956 31.8976 50.9639 31.8555 50.5183 31.896C50.5068 30.676 50.9087 28.2103 50.8995 27.0095Z" fill="#C3B5BE"/>
<path d="M49.9079 32.6399C50.0225 31.5063 50.1701 29.8935 50.0437 28.7708C49.8384 28.5521 49.7553 28.8883 49.5181 28.7893C49.754 28.4025 49.7335 28.2583 50.0557 28.0095C50.6993 28.8855 50.2211 31.6078 50.469 32.3902L50.561 32.4164C50.9876 32.3697 51.1137 32.4182 51.5181 32.5469L51.5019 33.0095C50.9935 32.9631 50.4848 32.9221 49.976 32.8865L49.9079 32.6399Z" fill="#B1828F"/>
<path d="M37.5672 18.7493C37.4898 16.5077 42.0289 16.4999 42.3783 18.3368C42.5011 19.3415 42.3389 21.6277 42.5181 22.3124C42.3601 23.7984 42.4179 25.5622 42.4355 27.0659C41.5333 27.836 40.5932 28.1872 39.3791 27.9217C38.9143 27.861 38.6571 27.8284 38.1983 27.6941C38.1874 27.3799 37.8192 27.0629 37.6777 26.4822C37.5099 25.7931 37.5427 25.4751 37.5329 24.7633C37.5805 24.614 37.5814 24.4038 37.5907 24.243C37.5942 23.4778 37.8082 20.1013 37.5181 19.5912C37.6372 19.3485 37.5845 19.0307 37.5672 18.7493Z" fill="#99C2BE"/>
<path d="M37.5709 19.0095C38.1017 19.3028 38.7924 19.722 39.3903 19.8508C39.4444 22.2052 39.4995 24.5599 39.4632 26.9147C39.4575 27.2825 39.4686 27.6439 39.5181 28.0095C39.0186 27.9499 38.7422 27.9179 38.2491 27.7862C38.2374 27.4779 37.8417 27.1668 37.6897 26.597C37.5093 25.921 37.5446 25.6088 37.5341 24.9104C37.5851 24.764 37.5861 24.5578 37.5961 24.4C37.5999 23.6491 37.8299 20.3361 37.5181 19.8355C37.6461 19.5975 37.5895 19.2856 37.5709 19.0095Z" fill="#669095"/>
<path d="M37.5189 18.9804C37.4546 16.441 41.2276 16.4322 41.5181 18.5131C41.4684 18.9992 41.5227 19.0929 41.228 19.4168C40.6646 20.0361 39.6281 20.0786 38.9262 19.9517C38.4637 19.803 37.9295 19.3189 37.5189 18.9804Z" fill="#B0D5D3"/>
<path d="M26.1411 18.0095C27.2775 18.8655 27.0744 19.0273 28.5164 19.1139C28.5393 19.6214 28.3178 19.8819 28.3914 20.4749C28.4426 20.8864 28.3874 21.8089 28.3771 22.2563C28.3608 23.1647 28.3589 24.0732 28.3715 24.9817C28.3802 25.4874 28.559 26.5496 28.4679 26.9134C28.1753 27.1042 27.4032 26.9765 27.1034 26.8287C26.3284 26.6805 25.0676 26.2993 24.2651 26.0845C23.0479 26.226 22.7101 26.2273 21.5588 25.8377L21.5563 25.0064C21.5569 24.8005 21.5309 24.5056 21.5181 24.2924C21.8534 24.1734 23.1453 23.4406 23.5272 23.2333C24.2297 22.8386 25.4527 22.1217 26.1676 21.8336C26.2339 20.9771 26.1504 18.9539 26.1411 18.0095Z" fill="#836E9B"/>
<path d="M21.5181 24.8932C21.8182 24.7939 22.9748 24.1825 23.3166 24.0095C23.4901 24.2063 23.4891 24.2755 23.7881 24.2889C24.2187 24.3081 24.6445 24.2365 25.0745 24.3139C25.2411 24.3386 25.5066 24.3409 25.5698 24.456C25.8466 24.9597 25.6551 25.5279 25.8819 26.0981C26.0256 26.4598 26.4998 26.8396 26.5181 27.0095C25.8243 26.8859 24.6956 26.5678 23.9772 26.3885C22.8876 26.5067 22.5851 26.5077 21.5545 26.1826L21.5523 25.4889C21.5528 25.3172 21.5295 25.0711 21.5181 24.8932Z" fill="#6D608E"/>
<path d="M21.5181 25.0095C21.5471 25.1173 21.5819 25.247 21.6226 25.3984C22.171 25.8689 22.9982 26.3726 23.5181 26.8604C22.6194 27.1034 22.37 27.1056 21.5199 26.4367L21.5181 25.0095Z" fill="#968DA6"/>
<path d="M25.4775 22.0095C25.4993 22.6552 25.5752 23.2545 25.4376 23.8338C25.2562 24.0664 25.2699 23.9912 24.9753 24.0095C24.6188 23.9043 24.2659 24.0017 23.9089 23.9755C23.661 23.9574 23.6619 23.8634 23.5181 23.5961C24.0394 23.1487 24.947 22.3361 25.4775 22.0095Z" fill="#A79DB3"/>
<path d="M7.61607 32.1888C8.52302 31.4867 9.89 30.607 10.8568 30.0095C10.858 30.6387 10.8864 32.1124 10.8417 32.6544C10.8429 33.3731 10.8103 34.234 10.9815 34.9225C11.0745 35.2962 11.6091 35.6829 11.5046 35.9582L11.432 36.0095L9.48939 35.4602L8.7516 35.2266C8.03854 34.9539 6.02194 34.4016 5.51807 34.0873C6.05971 33.2165 6.84177 32.6685 7.61607 32.1888Z" fill="#6D608E"/>
<path d="M7.51807 32.4814C8.63407 31.6851 10.3161 30.6872 11.5058 30.0095C11.5072 30.7232 11.5422 32.3948 11.4872 33.0095C10.2572 32.816 9.06042 32.7198 7.8204 32.712C7.8204 32.712 7.54018 32.4983 7.51807 32.4814Z" fill="#A79DB3"/>
<path d="M46.4478 31.9276L45.7479 32.5571C45.7903 32.3473 45.7779 32.2905 45.7509 32.0773C45.6969 31.9913 45.5852 31.8212 45.4694 31.7817C44.4994 31.4513 39.9471 30.6011 39.5181 29.8705C39.9667 29.7793 44.4738 31.7513 45.3218 31.4872L45.1767 31.306C45.141 29.6583 45.3629 30.5472 45.9343 29.6308C45.7188 29.4906 43.1328 29.274 42.6873 29.2027C42.0838 29.1062 40.2662 29.7504 39.765 29.4755C40.3847 28.4612 45.4736 29.3913 46.7783 29.5759C47.2531 30.114 46.2315 31.9217 48.4333 32.1386C48.9662 32.1911 49.8836 32.2329 50.4306 32.1698L50.5181 32.3767C50.4702 32.7229 50.4637 32.8092 50.2982 33.1218C49.6101 33.3632 49.0061 33.7246 48.3553 34.0095C48.2638 34.0012 47.7818 33.8171 47.5868 33.7867C47.1862 33.7244 46.6923 33.459 46.4902 33.1289L46.5559 33.0992C46.4791 32.5553 46.4553 32.4965 46.4478 31.9276Z" fill="#675980"/>
<path d="M50.1942 33.0095C50.7454 33.0417 51.2962 33.0788 51.8469 33.1208C51.8977 33.6566 51.8812 34.3547 51.7781 34.8817C52.2165 35.2038 52.5118 35.2038 52.5181 35.8265C51.9483 35.9363 50.5244 36.6647 49.9521 37.0095C49.6639 36.7762 47.8852 35.6894 47.5181 35.4745L47.5258 35.2615C47.8759 35.0978 48.046 34.9903 48.3724 34.77C48.9206 34.4628 49.4293 34.0732 50.009 33.8128C50.1484 33.4758 50.1539 33.3828 50.1942 33.0095Z" fill="#B0D5D3"/>
<path d="M49.7166 33.0095C50.3074 33.0439 50.898 33.0835 51.4883 33.1284C51.5427 33.7008 51.5251 34.4465 51.4146 35.0095C51.0109 34.8476 49.9146 34.1265 49.5181 33.8677C49.6675 33.5076 49.6734 33.4083 49.7166 33.0095Z" fill="#846078"/>
<path d="M31.5683 23.0095C32.8561 24.3106 33.8751 23.7933 35.4211 24.0249C35.8634 24.0824 36.453 24.1824 36.8854 24.1501L37.849 24.2338C37.8588 24.908 37.8258 25.2092 37.9946 25.8617C38.1368 26.4117 38.5071 26.7119 38.5181 27.0095C37.6924 26.7313 36.7284 26.5043 35.8727 26.2424C35.4261 26.1001 33.2244 25.3524 32.8731 25.1615C32.6665 24.9791 31.9226 24.5545 31.646 24.3895C31.6048 24.0368 31.4349 23.2824 31.5683 23.0095Z" fill="#6D5D7E"/>
<path d="M17.9677 33.0095C18.5172 33.4278 20.0495 34.5848 20.5181 35.0944C20.4858 35.178 20.4471 35.2782 20.402 35.3951C19.7018 35.8136 18.5162 36.6975 17.8491 37.0095C17.1584 36.6356 16.1649 35.7612 15.5181 35.1908L15.6856 34.7411L15.8955 34.5575C16.4681 34.1148 17.4064 33.3436 17.9677 33.0095Z" fill="#DDD0C4"/>
<path d="M15.5181 35.5485C15.6248 35.2986 15.6517 35.2336 15.81 35.0095L15.9919 35.0168C16.6859 35.5038 17.752 36.2503 18.4931 36.5695C18.5356 37.0691 18.5195 37.8887 18.477 38.3975L18.4397 38.9097L18.3315 39.0095L18.0243 38.9023C16.922 38.6916 16.6917 38.6318 15.7069 38.0613C15.7705 37.8415 15.8613 37.5906 15.9357 37.3712C15.6467 36.6352 15.9093 36.0291 15.5181 35.5485Z" fill="#9A7C71"/>
<path d="M15.7128 37.0095C16.1498 37.5273 17.3949 38.4055 17.5181 38.9222L17.4902 39.0095C16.5521 38.7342 16.3561 38.6561 15.5181 37.911C15.5722 37.6237 15.6495 37.2961 15.7128 37.0095Z" fill="#4A4958"/>
<path d="M46.7352 35.0095C47.1545 35.2427 49.1863 36.4218 49.5156 36.675C49.5249 37.6003 49.5107 38.1002 49.4222 39.009C49.2855 39.0138 49.2328 38.9836 49.0989 38.9445C48.083 38.7177 47.7353 38.5772 46.7981 38.0897C46.8867 37.8022 46.8868 37.6617 46.9079 37.362C46.4251 36.9777 46.7791 36.4222 46.5181 35.7942C46.6064 35.5181 46.666 35.2921 46.7352 35.0095Z" fill="#669095"/>
<path d="M47.6127 37.0095C48.097 37.512 49.1738 38.3829 49.5077 38.8331C49.5145 38.9499 49.5301 38.9492 49.5013 39.0095C48.6256 38.7229 48.3259 38.5453 47.5181 37.9292C47.5945 37.5659 47.5945 37.3883 47.6127 37.0095Z" fill="#2F4358"/>
<path d="M49.6086 37.0702C50.2422 36.7611 51.8188 36.108 52.4497 36.0095L52.4948 36.3009C52.489 36.755 52.4968 37.2091 52.5181 37.6629C51.8442 38.0551 50.2516 39.1264 49.5181 38.9991C49.6038 38.248 49.6176 37.8349 49.6086 37.0702Z" fill="#A5CAC4"/>
<path d="M20.5084 35.0095C20.5033 35.7768 20.5065 36.5441 20.5181 37.3111C20.1919 37.6458 18.8453 39.0876 18.5877 39.0062C18.5233 38.7747 18.5264 38.6967 18.5181 38.4488C18.5474 37.9435 18.5586 37.1295 18.5292 36.6333C19.0239 36.3688 19.9031 35.6193 20.4223 35.2644C20.4558 35.1653 20.4845 35.0804 20.5084 35.0095Z" fill="#D6C9B7"/>
<path d="M30.587 24.0095C30.8194 24.3302 30.5635 24.6658 30.768 25.1322C31.0828 25.0899 31.0545 24.8722 31.2868 24.8473C31.5379 25.2874 31.3489 25.1744 31.9008 25.3972C32.1198 25.4856 32.3601 25.5807 32.5845 25.6634C32.928 25.8691 35.0813 26.6752 35.5181 26.8285C34.3477 27.1929 33.8389 26.9266 32.6728 26.73C30.423 26.3507 30.4063 26.2532 30.587 24.0095Z" fill="#9E97A7"/>
<path d="M30.6826 21.0095L31.0952 21.3386C31.1926 21.7616 31.2023 22.1095 31.2261 22.5379C31.2383 22.8247 31.2581 22.983 31.3152 23.2662C31.1922 23.4872 31.3488 24.0984 31.3869 24.3841C31.6418 24.5178 32.3276 24.8617 32.5181 25.0095C32.3066 24.9474 32.0801 24.876 31.8736 24.8095C31.3534 24.6421 31.5315 24.727 31.2948 24.3963C31.0758 24.415 31.1025 24.5786 30.8057 24.6104C30.6129 24.2599 30.8542 24.0077 30.6352 23.7667C30.4369 22.9345 30.516 21.8428 30.6826 21.0095Z" fill="#6D608E"/>
<path d="M4.88984 34.0095C5.45521 34.3633 7.71797 34.9849 8.51807 35.2918C7.95752 35.3207 7.6895 35.3967 7.14928 35.4858C6.55314 35.5724 5.17605 35.3908 4.88976 35.6945L4.77889 36.0095C4.60609 35.8414 4.61273 35.7317 4.51807 35.4479L4.56765 34.9585C4.6601 34.6526 4.78474 34.3134 4.88984 34.0095Z" fill="#968DA6"/>
<path d="M4.5746 35.0126C5.0222 34.9726 7.10473 35.329 7.51807 35.5127C6.83838 35.5949 5.26827 35.4226 4.94186 35.7107L4.81544 36.0095C4.61842 35.8501 4.626 35.746 4.51807 35.4768L4.5746 35.0126Z" fill="#A79DB3"/>
<path d="M15.18 36.0095C15.4967 36.392 15.2841 36.8745 15.5181 37.4603C15.4579 37.6349 15.3843 37.8345 15.3328 38.0095C14.8224 37.7643 14.0283 37.252 13.5181 36.9451C13.9062 36.8842 14.0517 36.8378 14.3801 36.6061C14.6826 36.3992 14.8925 36.2431 15.18 36.0095Z" fill="#846078"/>
<path d="M47.1723 36.0095C47.4038 36.5567 47.0898 37.0407 47.5181 37.3755C47.4994 37.6366 47.4993 37.7591 47.4207 38.0095C46.7934 37.6649 46.1591 37.3349 45.5181 37.0195C46.0257 36.8175 46.7374 36.3572 47.1723 36.0095Z" fill="#575572"/>
<path d="M47.5012 35.0095C47.1107 34.9133 46.1921 34.6473 45.9082 34.3424C46.2081 34.3382 46.2949 34.4026 46.4944 34.2221C46.1812 33.9888 45.4484 33.5688 45.5234 33.1084C45.7792 32.9469 46.4005 32.9925 46.6309 33.178C46.8354 33.6303 47.3351 33.9941 47.7404 34.0795C47.9378 34.1211 48.4254 34.3734 48.5181 34.3848C48.126 34.6649 47.9218 34.8014 47.5012 35.0095Z" fill="#968DA6"/>
<path d="M29.4409 40.0095C29.9273 40.1578 31.6713 40.9316 32.1085 41.2893C32.1905 41.3563 32.1346 41.675 32.1147 41.806L32.2083 41.9095C32.2178 42.7342 32.1964 43.559 32.144 44.3824L32.1322 44.6487C32.1198 45.5719 31.9799 46.2344 32.5181 47.0095C31.1265 46.8517 29.0454 46.2473 27.6048 45.9008C27.162 45.8394 25.7202 45.6711 25.755 45.1666C25.8841 45.2224 25.9211 45.2539 26.0299 45.332L26.2469 45.297C26.3392 45.1762 26.2931 44.5887 26.2535 44.4404C26.0853 43.8102 25.0964 43.4412 24.5181 43.1498C25.1949 42.8514 25.7235 42.4594 26.4628 42.2253C26.4876 41.9839 26.4943 41.6756 26.6191 41.4708C27.2199 40.9148 28.6374 40.2625 29.4409 40.0095Z" fill="#575572"/>
<path d="M29.0682 40.0095C29.5077 40.1252 31.0838 40.7289 31.4789 41.0079C31.553 41.0602 31.5025 41.3089 31.4844 41.411C31.176 41.4561 30.5522 41.5303 30.3877 41.7513C30.1994 41.8024 30.0543 41.8302 29.8963 41.9258L29.7723 41.9667L29.4902 41.9665C28.5763 42.1886 27.3762 41.4958 26.5181 41.1496C27.0611 40.7158 28.342 40.2069 29.0682 40.0095Z" fill="#A6CECD"/>
<path d="M26.5181 41.9502C26.5397 41.6493 26.5455 41.2649 26.6542 41.0095C27.4811 41.563 28.6375 42.6702 29.5181 42.3152L29.4748 42.3689C28.8363 43.1737 29.5486 44.2777 29.0608 44.9939C28.5617 45.1794 27.3075 43.655 26.6735 43.5968C26.6084 43.0499 26.5959 42.5424 26.5181 41.9502Z" fill="#3F6F7B"/>
<path d="M24.5181 43.0157C25.1759 42.6909 25.6896 42.2643 26.4081 42.0095C26.4951 42.5264 26.5089 42.9693 26.5817 43.4466L26.5481 43.5422C26.4535 44.0764 26.6309 43.8538 26.7299 44.2297C26.7557 44.3275 26.6492 45.2717 26.6356 45.3733C26.9071 45.6518 27.2914 45.7606 27.5181 46.0095C27.0877 45.9427 25.6864 45.7595 25.7203 45.2105C25.8458 45.2712 25.8817 45.3055 25.9875 45.3905L26.1983 45.3524C26.2881 45.2209 26.2433 44.5816 26.2048 44.4202C26.0412 43.7344 25.0801 43.3328 24.5181 43.0157Z" fill="#6D608E"/>
<path d="M31.4449 41.0095L31.5164 41.13C31.5236 42.0904 31.5073 43.0507 31.4673 44.0095C31.1302 43.7708 31.0172 43.745 30.6569 43.6469C30.6541 43.241 30.6612 42.3545 30.5705 41.9714C30.5119 41.7241 30.5256 41.8054 30.5181 41.5174C30.657 41.1875 31.1842 41.0768 31.4449 41.0095Z" fill="#A5CAC4"/>
<path d="M29.2256 42.0095L29.4817 42.0099C29.5215 42.415 29.4359 42.9839 29.4314 43.4203C29.4265 43.9088 29.4691 44.3502 29.5181 44.8343C28.8449 45.5326 27.0788 43.9581 26.5181 43.3612L26.5464 43.2547C27.1435 43.3112 28.3248 44.7924 28.7949 44.6122C29.2543 43.9163 28.5834 42.8436 29.1848 42.0617L29.2256 42.0095Z" fill="#385A5D"/>
<path d="M30.1268 42.0095C30.1377 42.3178 30.1178 42.2308 30.2036 42.4956C30.3366 42.9058 30.3261 43.8548 30.3303 44.2893C30.8584 44.3944 31.0239 44.422 31.5181 44.6776L31.5049 45.0095C30.7992 44.9776 30.3157 44.9554 29.6223 44.839C29.509 44.0809 29.6191 42.7834 29.5181 42.2883C29.7137 42.1355 29.8935 42.0912 30.1268 42.0095Z" fill="#A4A6AF"/>
<path d="M31.5934 38.1343L31.6788 38.0095C32.1977 38.7045 32.756 38.9494 33.6148 39.1151C35.1886 39.0688 34.7519 39.192 36.3712 38.5511L36.4614 38.739C36.449 39.213 36.3998 40.1199 36.4355 40.5607C36.4298 41.6876 36.42 43.2117 36.5181 44.3284C36.4757 45.2596 36.4487 46.1913 36.437 47.1233C35.4536 47.9849 34.0064 48.2071 32.7588 47.8384C32.5738 47.8211 32.1687 47.716 31.9688 47.6699C31.3789 46.7512 31.5323 45.9661 31.5459 44.872L31.5588 44.5564C31.6162 43.5805 31.6397 42.603 31.6293 41.6255C31.6428 40.4667 31.6772 39.2892 31.5934 38.1343Z" fill="#B74E37"/>
<path d="M31.5852 38.1238L31.6612 38.0095C32.1234 38.6459 32.6205 38.8701 33.3854 39.0219C33.3972 39.0397 33.5181 39.2211 33.5181 39.2211C33.3739 40.9396 33.5223 42.7296 33.305 44.4372C33.1843 45.3854 33.1962 45.9828 33.3644 46.9389C32.975 47.1163 32.9932 46.7768 32.623 47.0095C32.4583 46.9936 32.0975 46.8975 31.9195 46.8553C31.3941 46.014 31.5308 45.2951 31.5428 44.2933L31.5543 44.0043C31.6055 43.1106 31.6264 42.2156 31.6171 41.3206C31.6291 40.2594 31.6598 39.1813 31.5852 38.1238Z" fill="#7A3029"/>
<path d="M38.9733 39.0095C39.4178 39.2654 41.3752 40.453 41.4711 40.9405C41.4608 41.6627 41.4957 42.436 41.5181 43.162C40.7212 43.8501 39.8055 44.4116 38.9578 45.0095C38.9606 44.2718 38.9677 43.5406 38.9401 42.8033L38.9308 42.8817C38.8535 43.5764 39.0564 44.4247 38.79 44.8358C38.6919 44.8105 38.6128 44.8024 38.5307 44.7319C37.745 44.3856 37.5666 44.5969 36.6759 43.9956L36.5849 44.0247C36.5086 42.9164 36.5162 41.4037 36.5206 40.2854L36.5662 40.738C37.3954 40.0188 38.0697 39.5788 38.9733 39.0095Z" fill="#DDD0C4"/>
<path d="M36.5202 41.0095L36.5578 41.4074C36.7169 41.6411 38.1795 42.6327 38.499 42.8709C38.503 42.9361 38.5203 43.1718 38.5178 43.2229L38.5102 43.2919C38.4464 43.9025 38.6139 44.6482 38.3939 45.0095C38.3129 44.9874 38.2476 44.9802 38.1798 44.9182C37.5311 44.6139 37.3838 44.7996 36.6484 44.271L36.5732 44.2966C36.5102 43.3223 36.5165 41.9926 36.5202 41.0095Z" fill="#9A7C71"/>
<path d="M36.6126 43.0095C36.8913 43.1382 37.476 43.6924 37.7428 43.9576C37.9447 44.1721 38.501 44.6267 38.5181 45.0095C37.687 44.5256 37.4983 44.8208 36.5562 43.9805C36.5298 43.4509 36.4623 43.3292 36.6126 43.0095Z" fill="#4A4958"/>
<path d="M36.5181 43.1824C36.8441 43.024 36.9349 42.9341 37.2542 43.0925C37.4727 43.4213 37.4855 43.5215 37.5181 44.0095C37.282 43.7781 36.7646 43.2947 36.5181 43.1824Z" fill="#98705A"/>
<path d="M38.5181 42.4471C39.6047 42.2277 40.4074 41.3757 41.4639 41.0095C41.452 41.7195 41.4923 42.4796 41.5181 43.1933C40.5989 43.8698 39.5426 44.4218 38.5648 45.0095C38.568 44.2843 38.5763 43.5655 38.5443 42.8407C38.5479 42.7836 38.5236 42.52 38.5181 42.4471Z" fill="#D6C9B7"/>
<path d="M31.5837 38.2837C30.8859 36.8164 35.9732 36.5368 36.465 37.8636C36.5441 38.0771 36.5362 38.5494 36.4314 38.7311L36.3416 38.5921C34.729 39.0664 35.1639 38.9752 33.5967 39.0095C32.7414 38.8869 32.1855 38.7056 31.6687 38.1913L31.5837 38.2837Z" fill="#D36E62"/>
<path d="M57.5 2C61.9183 2 65.5 5.58172 65.5 10C65.5 14.4183 61.9183 18 57.5 18C53.0817 18 49.5 14.4183 49.5 10C49.5 5.58172 53.0817 2 57.5 2ZM60.8584 7.64645C60.6849 7.47288 60.4154 7.4536 60.2206 7.58859L60.1513 7.64645L56.5 11.298L54.8536 9.65131L54.7843 9.59346C54.5894 9.45846 54.32 9.47775 54.1464 9.65131C53.9729 9.82488 53.9536 10.0943 54.0886 10.2892L54.1464 10.3584L56.1464 12.3584L56.2157 12.4163C56.3862 12.5344 56.6138 12.5344 56.7843 12.4163L56.8536 12.3584L60.8584 8.35355L60.9163 8.28431C61.0513 8.08944 61.032 7.82001 60.8584 7.64645Z" fill="#10B981"/>
</svg>
