<svg width="332" height="262" viewBox="0 0 332 262" fill="none" xmlns="http://www.w3.org/2000/svg">
<g clip-path="url(#clip0_2316_23821)">
<path d="M277.783 126.313C280.45 126.498 284.218 127.466 286.918 128.096C293.038 129.483 299.113 131.072 305.128 132.857C314.18 135.446 322.988 137.806 332 140.571V166.374C328.46 165.275 324.213 164.341 320.925 162.682C318.723 161.4 316.798 159.079 314.613 157.811C312.078 156.183 305.68 154.567 303.763 152.371C299.503 147.487 292.64 146.753 288.205 142.839C282.635 137.924 274.96 135.946 269.663 131.129C272.168 128.753 274.638 127.671 277.783 126.313Z" fill="#E8E2E0"/>
<path d="M118.726 136.088C118.692 135.91 118.662 135.731 118.636 135.551C118.213 132.606 118.426 126.678 120.517 124.671C124.386 120.957 131.303 117.524 135.921 114.917L153.61 104.883C162.522 99.818 171.384 94.506 180.532 89.904C184.442 88.0277 192.778 87.0975 196.888 88.8C208.441 93.5868 218.42 104.336 228.619 111.47C234.91 115.871 242.51 119.136 248.371 123.64C255.23 127.261 264.973 132.777 271.53 137.137C275.475 138.789 283.723 143.765 284.7 148.151C285.07 149.541 285 150.292 284.97 151.706L285.1 153.645C285.723 154.115 286.453 153.72 286.628 153.839C287.585 154.491 292.023 156.822 292.495 157.486C291.66 158.216 291.158 157.797 290.718 158.494C292.258 161.587 304.563 164.628 302.163 171.243C300.455 175.946 294.408 178.513 290.25 180.868C284.87 183.911 279.47 186.916 274.05 189.885L254.353 200.796C249.855 203.302 245.397 205.782 240.842 208.123C232.698 212.31 223.77 211.008 215.272 208.75C210.933 207.597 205.253 206.858 201.748 203.882C198.544 202.458 193.346 199.239 190.152 197.37C183.134 193.302 176.147 189.181 169.191 185.006L138.02 166.793C132.69 163.644 126.403 160.3 121.725 156.305C117.322 152.545 118.692 141.657 118.726 136.088Z" fill="#B1C9DB"/>
<path d="M118.774 131.824C124.386 138.953 131.32 142.575 137.438 148.541C146.924 157.791 155.517 162.154 166.669 168.91C173.162 172.848 179.681 176.742 186.225 180.592C191.48 183.695 199.511 188.972 205.477 190.419C209.032 191.281 216.113 190.481 219.685 189.402C225.597 187.085 232.325 182.901 237.872 179.725L261.308 166.446C265.485 164.104 269.638 161.721 273.768 159.297C277.878 156.931 282.528 155.054 283.845 150.083C284.033 149.383 284.23 148.723 284.7 148.151C285.07 149.541 285 150.292 284.97 151.706L285.1 153.645C285.723 154.115 286.453 153.72 286.628 153.839C287.585 154.491 292.023 156.822 292.495 157.486C291.66 158.216 291.158 157.797 290.718 158.494C292.258 161.587 304.563 164.628 302.163 171.243C300.455 175.946 294.408 178.513 290.25 180.868C284.87 183.911 279.47 186.916 274.05 189.885L254.353 200.796C249.855 203.302 245.397 205.782 240.842 208.123C232.698 212.31 223.77 211.008 215.272 208.75C210.933 207.597 205.253 206.858 201.748 203.882C198.544 202.458 193.346 199.239 190.152 197.37C183.134 193.302 176.147 189.181 169.191 185.006L138.02 166.793C132.69 163.644 126.403 160.3 121.725 156.305C117.322 152.545 118.692 141.657 118.726 136.088C118.791 134.579 118.81 133.334 118.774 131.824Z" fill="#859DBB"/>
<path d="M284.97 151.706L285.1 153.645C285.723 154.115 286.453 153.72 286.628 153.839C287.585 154.491 292.023 156.822 292.495 157.486C291.66 158.216 291.158 157.797 290.718 158.494C292.258 161.587 304.563 164.628 302.163 171.243C300.455 175.946 294.408 178.513 290.25 180.868C284.87 183.911 279.47 186.916 274.05 189.885L254.353 200.796C249.855 203.302 245.397 205.782 240.842 208.123C232.698 212.31 223.77 211.008 215.272 208.75C210.933 207.597 205.253 206.858 201.748 203.882C216.079 207.67 220.813 204.021 232.973 197.273C240.376 193.16 247.755 189.003 255.11 184.803L270.588 176.075C274.593 173.814 281.555 170.616 283.708 166.563C285.94 162.358 284.055 156.006 284.97 151.706Z" fill="#E8E2E0"/>
<path d="M237.705 128.766L240.522 127.755C243.553 129.009 248.446 129.329 251.652 131.125C252.6 131.656 253.43 131.682 254.502 131.528C258.047 133.269 261.335 135.248 264.815 137.034C268.207 139.309 271.68 140.508 273.39 144.044C272.265 147.637 264.052 150.667 260.457 150.145C260.145 149.98 258.72 149.69 257.665 149.127C251.52 145.854 245.758 141.879 239.578 138.714C238.24 138.029 235.135 135.66 233.918 135.608L233.517 136.284C233.572 135.655 233.417 133.701 233.376 132.976C234.66 130.552 235.458 130.201 237.705 128.766Z" fill="#EEB9B5"/>
<path d="M236.814 120.852C240.287 121.263 245.989 124.699 248.371 123.64C255.23 127.261 264.973 132.777 271.53 137.137C270.623 138.198 267.47 136.73 264.815 137.034C261.335 135.248 258.048 133.269 254.503 131.528C253.43 131.682 252.6 131.655 251.653 131.125C248.446 129.329 243.553 129.009 240.523 127.755L237.705 128.766C233.244 128.516 233.761 131.459 228.96 131.395C225.906 131.775 225.079 131.711 222.368 130.27C223.441 128.537 223.547 128.49 225.55 128.279C228.487 128.34 231.803 126.296 234.273 124.811C235.789 124.205 236.073 123.355 236.849 121.957L236.814 120.852Z" fill="#8098BD"/>
<path d="M236.849 121.957C237.964 130.096 231.514 127.684 228.96 131.395C225.906 131.775 225.079 131.711 222.368 130.27C223.441 128.537 223.547 128.49 225.55 128.279C228.487 128.34 231.803 126.297 234.273 124.811C235.789 124.205 236.073 123.355 236.849 121.957Z" fill="#CB7C7C"/>
<path d="M240.522 127.755C245.364 124.984 250.585 128.521 254.502 131.528C253.43 131.682 252.6 131.655 251.652 131.125C248.446 129.329 243.553 129.009 240.522 127.755Z" fill="#DA9897"/>
<path d="M215.121 123.478C215.114 123.301 215.111 123.124 215.111 122.947C215.126 118.925 219.986 117.065 223.242 116.08C224.683 115.643 226.35 115.754 227.851 115.782C230.79 115.944 234.728 118.848 236.814 120.852L236.848 121.957C236.073 123.355 235.788 124.205 234.272 124.811C231.803 126.297 228.487 128.34 225.55 128.279C223.547 128.49 223.441 128.537 222.367 130.27C219.19 129.577 215.473 126.966 215.121 123.478Z" fill="#EEB9B5"/>
<path d="M227.851 115.782C230.79 115.944 234.728 118.848 236.814 120.851L236.848 121.957C236.073 123.355 235.788 124.205 234.272 124.811C233.252 123.425 224.171 119.006 222.054 118.183C224.403 116.679 225.13 116.318 227.851 115.782Z" fill="#DA9897"/>
<path d="M215.121 123.478C219.864 125.704 219.65 127.875 225.55 128.279C223.547 128.489 223.441 128.537 222.368 130.269C219.19 129.576 215.473 126.966 215.121 123.478Z" fill="#DA9897"/>
<path d="M233.517 136.283L233.918 135.608C235.135 135.66 238.24 138.029 239.578 138.714C245.758 141.879 251.52 145.854 257.665 149.127C258.72 149.69 260.145 149.98 260.457 150.145C259.397 150.558 259.325 151.179 258.692 152.343C258.357 152.225 258.027 152.099 257.697 151.966C256.105 151.31 251.415 148.448 249.857 147.368C246.265 144.878 234.945 139.749 233.517 136.283Z" fill="#DA9897"/>
<path d="M273.39 144.044L273.472 144.237L273.447 144.435C273.212 146.416 274.562 147.466 271.747 149.606C268.63 151.976 266.217 152.919 262.472 153.621C261.027 153.23 260.075 152.875 258.692 152.343C259.325 151.179 259.397 150.558 260.457 150.145C264.052 150.667 272.265 147.637 273.39 144.044Z" fill="#CB7C7C"/>
<path d="M273.473 144.237C274.285 145.007 275.698 146.225 275.593 147.385C275.185 151.837 266.798 154.038 263.375 153.757C263.07 153.732 262.77 153.687 262.473 153.621C266.218 152.918 268.63 151.976 271.748 149.606C274.563 147.465 273.213 146.416 273.448 144.435L273.473 144.237Z" fill="#6F8DAF"/>
<path d="M130.682 130.548C130.702 129.965 130.013 128.417 130.435 127.742C131.924 125.361 136.948 123.274 139.298 121.871C147.718 116.839 156.304 112.148 164.8 107.282C169.599 104.505 174.413 101.753 179.242 99.028C184.092 96.271 187.379 93.128 193.061 95.684C196.878 97.3443 208.381 105.692 211.013 109.388C211.321 109.821 211.136 110.853 210.833 111.369C209.286 113.445 201.527 117.445 198.912 118.923L181.59 128.701C171.37 134.472 160.893 141.018 150.249 145.859C147.72 147.009 134.95 135.286 133.18 133.273C132.119 132.278 131.521 131.766 130.682 130.548Z" fill="#99C8B2"/>
<path d="M130.682 130.548C130.702 129.965 130.013 128.417 130.435 127.742C131.924 125.361 136.948 123.274 139.298 121.871C147.718 116.839 156.304 112.148 164.8 107.282C169.599 104.505 174.413 101.753 179.242 99.028C184.092 96.271 187.379 93.128 193.061 95.684C193.055 96.3603 193.011 97.3063 193.107 97.9533L193.33 99.009C191.387 98.9515 190.416 99.2925 188.613 100.021C182.049 103.246 175.955 107.292 169.586 110.827C159.382 116.489 149.368 122.413 139.165 128.067C136.758 129.387 134.262 130.672 133.18 133.273C132.119 132.278 131.521 131.766 130.682 130.548Z" fill="#6F8DAF"/>
<path d="M187.226 98.5948C188.292 99.1573 187.956 98.9178 188.613 100.021C182.049 103.246 175.955 107.292 169.586 110.827C159.382 116.489 149.368 122.413 139.164 128.067C136.758 129.387 134.261 130.672 133.18 133.273C132.119 132.278 131.52 131.766 130.682 130.548C132.716 129.116 136.946 126.912 139.234 125.633C143.912 123.023 148.565 120.369 153.193 117.673L172.947 106.359C176.538 104.275 183.532 99.9578 187.226 98.5948Z" fill="#67A087"/>
<path d="M187.227 98.5948C188.82 97.6808 191.212 97.9305 193.107 97.9532L193.33 99.009C191.387 98.9515 190.416 99.2925 188.613 100.021C187.956 98.9178 188.292 99.1573 187.227 98.5948Z" fill="#728C7F"/>
<path d="M193.061 95.684C196.878 97.3442 208.381 105.692 211.013 109.388C211.321 109.821 211.136 110.853 210.833 111.369C209.216 110.597 202.814 105.513 200.784 104.081C198.687 102.6 195.266 100.433 193.33 99.009L193.107 97.9532C193.011 97.3062 193.055 96.3602 193.061 95.684Z" fill="#95B2D0"/>
<path d="M158.009 123.061C163.67 122.986 173.752 130.568 166.13 131.638C161.653 131.468 157.273 128.344 155.05 124.545C156.193 123.807 156.673 123.447 158.009 123.061Z" fill="#1E1817"/>
<path d="M158.347 123.751C160.615 123.922 167.865 127.706 166.978 130.145L166.08 130.552C163.599 130.532 157.782 127.543 157.318 124.995C157.573 124.141 157.514 124.384 158.347 123.751Z" fill="#99C8B2"/>
<path d="M172.712 114.526C175.735 114.47 184.005 118.56 183.246 122.186C182.746 122.912 182.01 123.127 181.192 123.479C177.103 123.718 171.498 120.183 170.099 116.27C170.991 115.51 171.714 115.113 172.712 114.526Z" fill="#1E1817"/>
<path d="M173.134 115.406C175.173 115.456 181.764 119.331 181.76 121.737L181.052 122.395C178.29 122.368 172.473 119.701 171.891 116.891C172.196 115.92 172.199 116.153 173.134 115.406Z" fill="#99C8B2"/>
<path d="M188.255 105.817C190.036 104.887 191.231 104.875 193.154 105.523C195.724 106.387 201.035 109.17 200.675 112.265C198.139 115.782 191.473 111.639 189.211 109.405C188.359 108.825 187.536 108.044 187.359 106.994C187.6 106.179 187.513 106.427 188.255 105.817Z" fill="#1E1817"/>
<path d="M189.35 106.711C189.994 106.102 189.964 105.951 190.991 105.866C193.002 105.7 200.346 110.486 198.507 112.622C196.049 113.158 191.881 109.93 190.098 108.366L189.35 106.711Z" fill="#99C8B2"/>
<path d="M188.255 105.817L189.35 106.71L190.098 108.366L189.211 109.405C188.359 108.825 187.536 108.044 187.359 106.994C187.6 106.179 187.513 106.427 188.255 105.817Z" fill="#41413E"/>
<path d="M182.965 108.97C185.662 108.575 194.242 112.938 193.255 116.449C192.77 117.221 192.084 117.41 191.239 117.775C188.188 117.917 179.677 113.743 180.8 110.3C181.291 109.512 182.088 109.317 182.965 108.97Z" fill="#1E1817"/>
<path d="M183.2 109.896C185.839 110.18 190.676 112.91 191.802 115.343C191.801 116.298 191.871 115.965 191.075 116.808C188.344 116.714 183.547 114.16 182.426 111.585C182.464 110.565 182.476 110.845 183.2 109.896Z" fill="#99C8B2"/>
<path d="M165.334 118.989C168.217 118.649 176.398 122.427 175.85 126.031C175.503 126.865 174.745 127.211 173.967 127.702C171.075 128.015 162.533 123.894 163.271 120.292C163.791 119.518 164.465 119.345 165.334 118.989Z" fill="#1E1817"/>
<path d="M165.929 119.955C168.232 119.935 174.203 123.068 174.604 125.579C174.208 126.43 174.168 126.242 173.187 126.804C170.805 126.43 165.305 123.309 164.571 120.936C164.901 120.226 165.047 120.354 165.929 119.955Z" fill="#99C8B2"/>
<path d="M151.503 126.435C151.909 126.586 152.047 126.711 152.408 126.946L152.407 127.419C151.703 128.232 150.18 128.879 149.174 129.388C154.603 132.549 151.546 130.787 156.219 130.045C160.543 129.358 164.483 135.834 156.566 136.547L156.117 136.066C156.582 134.937 158.969 135.037 159.644 133.635C159.531 132.99 159.52 132.796 158.949 132.322C154.809 128.886 153.366 135.392 148.618 129.839C148.176 129.322 147.962 129.343 147.967 128.597C149.206 127.892 150.305 127.201 151.503 126.435Z" fill="#1E1817"/>
<path d="M148.329 135.805C147.324 136.241 146.433 136.74 145.397 136.078C145.728 135.036 146.559 135.569 147.278 134.195C146.986 133.141 145.958 132.772 145.035 132.399C143.037 131.592 142.681 133.515 141.09 134.303L140.707 134.065L140.532 133.31C141.54 130.582 147.06 130.685 148.434 133.41C148.235 134.059 148.128 134.358 148.27 135.045L148.329 135.805Z" fill="#1E1817"/>
<path d="M148.27 135.045C152.66 133.321 157.734 138.852 150.794 140.411C149.908 140.61 149.804 140.6 149.004 140.182L149.068 139.824C150.153 139.264 151.811 138.738 152.461 137.96C152.685 136.199 149.855 135.399 148.328 135.805L148.27 135.045Z" fill="#1E1817"/>
<path d="M202.198 148.227L202.303 148.21C204.024 147.922 205.783 147.153 207.414 146.555C210.572 145.395 213.827 147.122 216.525 148.687C218.521 149.844 220.27 151.103 220.25 153.579C222.583 155.259 222.603 156.022 221.765 158.682C220.595 159.358 219.43 159.976 218.487 160.961L216.923 160.925C214.866 161.946 213.089 162.436 210.744 162.182C209.548 162.187 206.764 161.275 205.489 160.897C202.4 159.713 198.827 158.361 198.502 154.743C198.293 152.049 198.666 151.008 200.797 149.202L202.198 148.227Z" fill="#E8E2E0"/>
<path d="M220.25 153.579C222.582 155.259 222.603 156.022 221.764 158.682C220.595 159.358 219.429 159.976 218.487 160.961L216.923 160.925C214.865 161.946 213.089 162.436 210.743 162.182C209.547 162.187 206.764 161.275 205.488 160.897C205.912 160.327 206.23 159.665 206.564 159.034C212.776 159.477 215.006 157.035 220.028 154.316L220.25 153.579Z" fill="#CFB8AE"/>
<path d="M220.25 153.579C222.583 155.259 222.603 156.022 221.765 158.682C220.595 159.358 219.43 159.976 218.487 160.961L216.923 160.925L217.151 160.753C218.454 159.761 218.546 159.778 218.745 158.324C220.3 157.02 220.138 156.202 220.028 154.316L220.25 153.579Z" fill="#8098BD"/>
<path d="M218.745 158.324C218.546 159.778 218.454 159.761 217.151 160.753L216.923 160.925C214.866 161.946 213.089 162.436 210.744 162.182C210.914 162.074 210.96 162.044 211.158 161.992C213.866 161.275 216.364 159.773 218.745 158.324Z" fill="#6F8DAF"/>
<path d="M198.502 154.743C200.349 155.433 203.964 157.871 206.565 159.034C206.23 159.665 205.912 160.327 205.489 160.897C202.4 159.713 198.827 158.361 198.502 154.743Z" fill="#E0D1C8"/>
<path d="M180.288 140.594C182.454 138.274 186.222 136.213 189.297 135.33C192.133 134.515 196.127 136.463 198.577 137.921C201.166 139.463 201.482 140.087 202.123 142.73C203.267 143.119 204.011 144.642 204.57 145.67C203.68 146.78 203.246 147.27 202.198 148.227L200.797 149.202C199.411 149.351 199.136 149.47 197.844 150.028C195.659 151.173 194.226 152.2 191.764 151.44C191.237 151.274 190.719 151.078 190.214 150.853L187.255 149.82C184.817 149.114 181.056 147.483 180.172 144.94C180.313 143.514 180.284 142.03 180.288 140.594Z" fill="#E8E2E0"/>
<path d="M187.6 147.678C192.103 149.514 198.529 145.165 202.122 142.73C203.267 143.119 204.011 144.641 204.57 145.67C203.679 146.78 203.245 147.27 202.197 148.227L200.797 149.201C199.411 149.35 199.136 149.47 197.843 150.028C195.659 151.173 194.226 152.2 191.764 151.44C191.236 151.274 190.719 151.078 190.213 150.853L187.254 149.819C187.867 148.69 187.714 149.113 187.6 147.678Z" fill="#CFB8AE"/>
<path d="M202.123 142.73C203.267 143.119 204.011 144.641 204.57 145.67C203.68 146.78 203.246 147.27 202.198 148.227L200.797 149.201C199.411 149.35 199.136 149.47 197.844 150.028C198.194 149.485 198.481 148.913 198.783 148.342C199.6 147.73 200.7 146.969 201.243 146.124L201.315 146.009C201.925 145.056 201.983 143.862 202.123 142.73Z" fill="#8098BD"/>
<path d="M198.783 148.342C198.48 148.913 198.194 149.485 197.843 150.028C195.659 151.173 194.226 152.2 191.764 151.44C191.236 151.274 190.719 151.078 190.213 150.853C194.308 150.468 195.236 150.415 198.783 148.342Z" fill="#6F8DAF"/>
<path d="M180.172 144.939C180.578 144.631 180.949 144.203 181.399 144.403C183.671 145.412 185.236 146.728 187.601 147.678C187.715 149.113 187.867 148.691 187.255 149.82C184.817 149.114 181.056 147.483 180.172 144.939Z" fill="#E0D1C8"/>
<path d="M203.291 169.118C207.595 167.461 210.851 166.444 215.318 168.506C218.537 169.993 220.076 171.265 220.983 174.666L221.168 174.757C227.779 179.526 214.411 184.356 209.96 183.189C208.904 183.165 207.824 182.566 206.844 182.119C205.176 181.836 200.891 179.387 199.832 177.938C199.061 176.883 199.287 176.727 199.389 175.512L199.495 172.798C200.131 171.877 200.82 170.946 201.475 170.034L203.291 169.118Z" fill="#E8E2E0"/>
<path d="M220.983 174.666L221.168 174.757C227.779 179.526 214.411 184.356 209.96 183.189C208.904 183.165 207.824 182.566 206.844 182.119C207.07 181.303 207.206 180.538 207.362 179.707C212.918 180.117 216.756 178.087 220.983 174.666Z" fill="#CFB8AE"/>
<path d="M209.96 183.189C210.669 182.732 211.564 182.914 212.369 182.643C216.989 181.086 220.622 180.19 221.168 174.757C227.779 179.526 214.411 184.356 209.96 183.189Z" fill="#8098BD"/>
<path d="M199.389 175.512C200.403 175.805 205.097 178.747 207.362 179.707C207.206 180.538 207.07 181.303 206.844 182.119C205.176 181.836 200.891 179.387 199.832 177.938C199.061 176.883 199.287 176.726 199.389 175.512Z" fill="#E0D1C8"/>
<path d="M185.015 157.807C187.071 157.742 188.172 156.644 189.837 156.365C194.008 155.665 202.008 158.19 202.31 163.196C205.883 164.86 204.099 166.538 203.291 169.118L201.476 170.034C201.092 170.077 200.146 170.156 199.817 170.23C196.747 172.604 193.786 172.91 190.192 171.607L188.259 170.968C185.165 169.765 183.886 169.058 181.316 166.983C180.878 165.875 180.745 163.597 181.137 162.484L181.19 162.339C181.785 160.667 182.756 159.655 183.989 158.392C184.197 158.316 184.79 157.942 185.015 157.807Z" fill="#E8E2E0"/>
<path d="M202.31 163.196C205.883 164.86 204.099 166.538 203.291 169.118L201.475 170.034C201.092 170.077 200.145 170.156 199.817 170.23C196.747 172.603 193.786 172.91 190.192 171.607L188.259 170.968C188.384 170.092 188.458 169.479 188.712 168.627C188.971 168.661 189.232 168.689 189.492 168.713C194.25 169.138 198.665 166.513 202.211 163.569L202.31 163.196Z" fill="#CFB8AE"/>
<path d="M202.31 163.196C205.883 164.86 204.099 166.538 203.291 169.118L201.476 170.034C201.092 170.077 200.146 170.156 199.817 170.23L200.124 168.778C202.185 166.837 202.62 166.469 202.212 163.569L202.31 163.196Z" fill="#8098BD"/>
<path d="M190.192 171.607C195.464 171.5 195.513 171.418 200.124 168.778L199.817 170.23C196.747 172.604 193.786 172.91 190.192 171.607Z" fill="#6F8DAF"/>
<path d="M181.663 164.323C185.278 167.295 185.263 166.711 188.712 168.627C188.458 169.479 188.384 170.092 188.259 170.968C185.165 169.766 183.885 169.058 181.315 166.983C181.656 165.845 181.648 165.525 181.663 164.323Z" fill="#E0D1C8"/>
<path d="M220.192 138.051C225.496 136.417 228.185 135.762 233.348 138.572C235.662 139.831 237.198 140.987 237.309 143.702C238.599 144.037 239.666 145.435 239.744 146.75L239.454 147.471C239.093 148.287 238.885 148.89 238.276 149.547C237.559 149.905 236.868 150.185 236.319 150.765L234.482 151.022L233.842 151.422C232.034 152.65 228.002 153.025 225.918 152.25C224.729 151.994 224.401 151.809 223.306 151.249C221.943 150.913 218.155 148.95 217.183 147.796C215.815 146.173 216.006 145.842 216.08 143.87C216.05 141.433 217.282 140.608 218.947 139.051L220.192 138.051Z" fill="#E8E2E0"/>
<path d="M237.309 143.702C238.599 144.037 239.666 145.435 239.744 146.751L239.454 147.471C239.093 148.287 238.885 148.89 238.276 149.547C237.559 149.905 236.868 150.185 236.319 150.765L234.482 151.022L233.842 151.422C232.034 152.651 228.002 153.025 225.918 152.25C224.729 151.994 224.401 151.809 223.306 151.249C223.597 150.319 223.605 150.14 223.635 149.17C227.728 149.932 234.572 147.224 237.203 144.035L237.309 143.702Z" fill="#CFB8AE"/>
<path d="M237.309 143.702C238.599 144.037 239.666 145.435 239.744 146.751L239.454 147.471C239.093 148.287 238.885 148.89 238.276 149.547C237.559 149.905 236.868 150.185 236.319 150.765L234.482 151.022L233.842 151.422C234.09 150.701 234.542 149.981 234.922 149.308C237.351 147.755 237.849 146.946 237.203 144.035L237.309 143.702Z" fill="#8098BD"/>
<path d="M234.482 151.022C236.579 148.988 236.589 148.001 239.454 147.471C239.093 148.287 238.885 148.89 238.276 149.547C237.559 149.905 236.868 150.185 236.319 150.765L234.482 151.022Z" fill="#8098BD"/>
<path d="M225.918 152.25C230.277 152.239 231.157 151.367 234.922 149.308C234.542 149.981 234.09 150.7 233.842 151.422C232.034 152.65 228.002 153.025 225.918 152.25Z" fill="#6F8DAF"/>
<path d="M216.08 143.87L216.384 145.602C217.875 145.299 221.835 148.369 223.635 149.17C223.605 150.14 223.597 150.319 223.306 151.249C221.943 150.913 218.155 148.95 217.183 147.796C215.815 146.173 216.006 145.842 216.08 143.87Z" fill="#E0D1C8"/>
<path d="M221.765 158.682C227.398 157.562 229.903 156.984 235.227 160.258C236.27 160.898 237.778 162.246 238.06 163.507C238.141 163.879 238.141 164.265 238.059 164.637L238.187 164.713C245.814 167.208 232.557 176.007 226.234 173.368L224.444 172.384C222.549 172.13 217.485 169.121 216.838 167.236L216.442 164.188C217.077 163.125 217.818 162.012 218.487 160.961C219.43 159.976 220.595 159.358 221.765 158.682Z" fill="#E8E2E0"/>
<path d="M238.059 164.637L238.187 164.713C245.814 167.208 232.557 176.007 226.234 173.368L224.444 172.384C224.461 171.573 224.313 170.677 224.208 169.866C230.266 170.474 233.775 168.86 238.059 164.637Z" fill="#CFB8AE"/>
<path d="M238.187 164.713C245.814 167.208 232.557 176.007 226.234 173.368C229.977 173.111 233.461 171.809 236.544 169.691C239.35 167.765 237.784 166.725 238.187 164.713Z" fill="#8098BD"/>
<path d="M216.838 167.236C216.974 166.829 216.985 166.696 217.296 166.388C217.459 166.434 223.812 169.631 224.208 169.866C224.313 170.677 224.461 171.572 224.444 172.384C222.549 172.13 217.485 169.121 216.838 167.236Z" fill="#E0D1C8"/>
<path d="M238.276 149.547C239.971 148.83 242.284 148.159 244.12 148.025C248.523 147.704 254.9 149.954 255.805 154.806L255.94 154.947C262.81 158.467 249.797 165.686 243.746 163.331C243.096 163.169 242.018 162.75 241.354 162.512C238.09 161.139 237.423 160.244 234.658 158.715C233.721 157.478 234.201 155.256 234.319 153.523C234.853 152.575 235.641 151.631 236.318 150.765C236.868 150.185 237.558 149.905 238.276 149.547Z" fill="#E8E2E0"/>
<path d="M241.635 160.173C245.986 161.667 252.805 157.863 255.805 154.806L255.94 154.947C262.81 158.467 249.797 165.686 243.746 163.331C243.096 163.169 242.018 162.75 241.354 162.512L241.635 160.173Z" fill="#CFB8AE"/>
<path d="M255.94 154.947C262.81 158.467 249.797 165.687 243.746 163.331C248.733 163.232 255.82 160.861 255.94 154.947Z" fill="#8098BD"/>
<path d="M234.658 158.716C234.636 157.654 234.465 157.747 234.983 157.054C236.348 156.806 239.92 159.365 241.635 160.174L241.354 162.512C238.09 161.14 237.423 160.245 234.658 158.716Z" fill="#E0D1C8"/>
<path d="M162.485 153.167C162.367 152.264 162.308 151.407 162.839 150.613C164.6 148.099 168.979 145.832 171.972 145.351C176.08 144.692 183.543 147.503 184.157 152.12C185.061 152.524 186.054 154.049 186.593 154.932C186.011 155.86 185.377 156.778 185.014 157.807C184.789 157.942 184.197 158.316 183.989 158.392C183.357 158.628 182.558 158.95 181.929 159.139C178.151 160.368 177.404 162.078 172.735 160.68L169.977 159.996C168.439 159.518 164.288 157.346 163.244 156.081C162.257 154.885 162.411 154.692 162.485 153.167Z" fill="#E8E2E0"/>
<path d="M184.157 152.12C185.061 152.524 186.054 154.049 186.593 154.932C186.011 155.859 185.377 156.778 185.014 157.807C184.789 157.942 184.197 158.316 183.989 158.392C183.357 158.628 182.558 158.95 181.929 159.139C178.151 160.368 177.404 162.078 172.735 160.68L169.977 159.996L170.114 157.64C175.791 158.683 179.496 155.739 183.94 152.768L184.157 152.12Z" fill="#CFB8AE"/>
<path d="M184.157 152.12C185.061 152.524 186.054 154.049 186.593 154.932C186.011 155.859 185.377 156.778 185.014 157.807C184.789 157.942 184.197 158.316 183.989 158.392C183.357 158.628 182.558 158.95 181.929 159.139C182.277 158.367 182.39 158.187 182.367 157.305C184.298 155.657 184.182 155.15 183.94 152.768L184.157 152.12Z" fill="#8098BD"/>
<path d="M172.735 160.68C177.561 160.392 178.2 159.817 182.367 157.305C182.39 158.187 182.277 158.367 181.929 159.139C178.151 160.368 177.404 162.078 172.735 160.68Z" fill="#6F8DAF"/>
<path d="M162.485 153.167C165.067 154.916 167.203 156.419 170.114 157.64L169.977 159.996C168.439 159.518 164.288 157.346 163.244 156.081C162.257 154.884 162.411 154.692 162.485 153.167Z" fill="#E0D1C8"/>
<path d="M197.758 131.308C199.597 128.025 205.62 124.989 209.293 125.411C212.661 125.797 219.465 128.302 219.226 132.485L219.1 133.266C219.192 133.946 219.276 134.559 219.32 135.248C220.137 136.039 219.842 136.653 220.199 137.585L220.192 138.051L218.946 139.051C216.377 139.083 215.418 141.114 210.61 141.092C208.89 141.357 206.467 140.591 204.838 140.016C202.947 139.648 199.869 137.468 198.309 136.319C197.412 134.91 197.699 133.002 197.758 131.308Z" fill="#E8E2E0"/>
<path d="M219.1 133.266C219.192 133.946 219.276 134.559 219.32 135.248C220.137 136.039 219.842 136.653 220.199 137.585L220.192 138.051L218.946 139.051C216.377 139.083 215.418 141.114 210.61 141.092C208.89 141.357 206.467 140.591 204.838 140.016C204.821 139.086 204.789 138.777 205.018 137.865C210.532 139.054 214.559 135.885 219.1 133.266Z" fill="#CFB8AE"/>
<path d="M219.32 135.248C220.137 136.039 219.842 136.653 220.199 137.585L220.192 138.051L218.946 139.051C216.377 139.083 215.418 141.114 210.61 141.092C211.823 139.639 218.146 138.824 219.32 135.248Z" fill="#6F8DAF"/>
<path d="M198.309 136.319C198.444 135.693 198.479 134.86 198.883 134.576C200.547 135.168 203.102 136.995 205.018 137.865C204.789 138.777 204.821 139.086 204.838 140.016C202.947 139.648 199.869 137.469 198.309 136.319Z" fill="#E0D1C8"/>
<path d="M219.226 132.486C220.878 134.129 222.868 135.574 220.199 137.585C219.842 136.653 220.137 136.039 219.32 135.248C219.276 134.559 219.192 133.946 219.1 133.266L219.226 132.486Z" fill="#8098BD"/>
<path d="M246.246 22.3659C251.117 22.8003 258.067 27.8055 262.445 30.4197L278.115 39.7125C284.36 43.3905 296.237 49.0487 299.882 54.869C303.225 61.271 302.59 61.878 302.587 69.0472L302.572 83.7105L302.645 103.303C302.67 107.551 302.847 113.785 302.275 117.916C302 119.908 294.597 123.743 292.725 124.708C291.175 125.509 289.522 125.678 287.795 124.92C281.717 122.251 275.092 117.963 269.357 114.525C268.282 114.034 267.955 113.855 267 113.168C265.082 112.087 255.365 106.748 254.305 105.614C254.112 105.548 253.92 105.477 253.73 105.402C252.025 104.72 250.33 103.636 248.727 102.733C243.482 99.7795 237.738 96.4197 235.377 90.5302C234.897 89.3347 234.647 88.0602 234.561 86.7787C234.163 80.8042 233.752 32.862 235.118 29.8442C236.659 26.4405 242.948 23.6022 246.246 22.3659Z" fill="#E6D7CB"/>
<path d="M299.882 54.869C303.225 61.271 302.59 61.878 302.587 69.0472L302.572 83.7105L302.645 103.303C302.67 107.551 302.847 113.785 302.275 117.916C302 119.908 294.597 123.743 292.725 124.708C291.175 125.509 289.522 125.678 287.795 124.92C281.717 122.251 275.092 117.963 269.357 114.525C268.282 114.034 267.955 113.855 267 113.168C265.082 112.087 255.365 106.748 254.305 105.614C254.517 103.439 249.895 97.2962 248.776 94.999C250.667 93.9412 252.847 92.8937 254.48 91.518C254.35 90.6827 254.432 82.4355 254.487 81.41C254.792 80.8467 254.895 79.5937 254.99 78.9042C255.61 77.6202 256.045 77.2775 257.272 76.6547C258.632 76.0762 259.537 75.9905 260.282 74.8567L261.147 74.6125C263.235 73.1845 269.975 70.124 272.452 68.968C273.012 70.0772 273.665 71.1525 274.245 72.2685C274.717 70.8165 275.737 65.94 275.817 64.4582L280.355 61.904L281.197 62.9642C281.24 63.332 282.055 64.713 282.32 65.173C285.415 70.576 288.542 75.6127 291.09 81.3045C292.477 84.4055 290.325 93.1432 292.387 94.1217C293.732 92.02 292.335 67.0297 292.322 63.2187C292.312 59.1515 293.13 59.8962 296.625 57.553C297.95 56.6657 298.795 55.989 299.882 54.869Z" fill="#CFB8AE"/>
<path d="M261.148 74.6125C263.198 76.174 267.153 78.5352 269.425 79.794C269.81 81.6505 269.905 99.6565 269.488 101.461C267.793 102.122 266.138 102.94 264.495 103.721C262.618 103.399 257.068 99.7975 255.023 98.6387C254.963 97.3325 254.88 92.3805 254.48 91.518C254.35 90.6827 254.433 82.4355 254.488 81.41C254.793 80.8467 254.895 79.5937 254.99 78.9042C255.61 77.6202 256.045 77.2775 257.273 76.6547C258.633 76.0762 259.538 75.9905 260.283 74.8567L261.148 74.6125Z" fill="#99C8B2"/>
<path d="M261.148 74.6125C263.198 76.174 267.153 78.5352 269.425 79.794C269.81 81.6505 269.905 99.6565 269.488 101.461C267.793 102.122 266.138 102.94 264.495 103.721C264.658 98.6065 264.53 93.5365 264.495 88.4222C264.483 86.8052 264.368 84.9682 264.685 83.4007C260.853 83.1505 258.205 79.137 254.99 78.9042C255.61 77.6202 256.045 77.2775 257.273 76.6547C258.633 76.0762 259.538 75.9905 260.283 74.8567L261.148 74.6125Z" fill="#728C7F"/>
<path d="M257.273 76.6548C259.133 77.1823 266.248 79.824 265.865 82.1195C265.468 82.5445 265.075 82.9718 264.685 83.4008C260.853 83.1505 258.205 79.137 254.99 78.9043C255.61 77.6203 256.045 77.2775 257.273 76.6548Z" fill="#B9D9CD"/>
<path d="M271.095 77.6713C273.412 78.7918 277.222 82.1673 279.38 82.4848C279.15 85.3385 278.932 111.683 279.472 112.449C277.687 112.385 272.7 109.12 270.762 108.086C271.262 104.451 270.495 104.614 269.487 101.461C269.905 99.6565 269.81 81.6505 269.425 79.794C270.355 78.9575 270.57 78.7895 271.095 77.6713Z" fill="#DA9897"/>
<path d="M272.242 75.8677C273.025 75.1022 274.755 73.823 275.878 73.7325C278.17 74.2862 283.265 77.5352 284.79 79.6925C284.68 88.0442 284.835 96.423 284.772 104.779C284.735 109.704 284.853 110.904 279.473 112.449C278.933 111.683 279.15 85.3385 279.38 82.4847C277.223 82.1672 273.413 78.7917 271.095 77.6712L270.755 77.341L270.75 76.721C271.517 75.927 271.175 76.1565 272.242 75.8677Z" fill="#CB7C7C"/>
<path d="M272.242 75.8677C275.935 77.1105 279.078 78.2382 282.635 79.846C281.778 80.5165 280.088 81.7625 279.38 82.4847C277.223 82.1672 273.413 78.7917 271.095 77.6712L270.755 77.341L270.75 76.721C271.517 75.927 271.175 76.1565 272.242 75.8677Z" fill="#EEB9B5"/>
<path d="M280.355 61.904L281.198 62.9642C279.823 66.9692 280.685 70.154 276.575 71.8625C275.848 72.1647 275.355 72.607 274.52 72.4475L274.245 72.2685C274.718 70.8165 275.738 65.94 275.818 64.4582L280.355 61.904Z" fill="#D99A4D"/>
<path d="M267 113.168L267.28 112.852C266.84 111.988 266.94 111.216 266.958 110.273L267.248 109.748L267.648 109.746C268.52 110.706 269.473 113.186 269.358 114.525C268.283 114.035 267.955 113.855 267 113.168Z" fill="#E0D1C8"/>
<path d="M267.91 60.0277C268.847 60.1717 269.862 60.9285 270.69 61.4582C271.852 62.2385 274.647 64.2905 275.817 64.4582C275.737 65.94 274.717 70.8165 274.245 72.2685C273.665 71.1525 273.012 70.0772 272.452 68.968C269.975 70.124 263.235 73.1845 261.147 74.6125L260.282 74.8567C259.537 75.9905 258.632 76.0762 257.272 76.6547C256.045 77.2775 255.61 77.6202 254.99 78.9042C254.895 79.5937 254.792 80.8467 254.487 81.41L253.907 79.7887C251.865 78.6175 249.816 77.4587 247.76 76.3122C247.147 75.7125 246.712 75.4552 245.998 74.991C245.638 74.0855 244.507 71.844 244.019 71.0112C240.201 73.2555 239.564 73.168 237.659 69.279C240.24 67.426 247.912 64.6992 251.297 63.1797C251.915 62.269 256.135 60.3555 257.41 60.5312C259.875 62.5002 260.655 64.719 262.545 66.6615C264.637 66.6512 268.59 65.4155 269.672 63.5242C268.987 62.3287 268.372 61.3367 267.91 60.0277Z" fill="#E0B369"/>
<path d="M244.019 71.0112C244.804 70.8957 251.578 67.9502 252.545 67.4105C254.508 69.569 257.69 74.3052 260.283 74.8567C259.538 75.9905 258.633 76.0762 257.273 76.6547C256.045 77.2775 255.61 77.6202 254.99 78.9042C254.895 79.5937 254.793 80.8467 254.488 81.41L253.908 79.7887C251.865 78.6175 249.816 77.4587 247.761 76.3122C247.147 75.7125 246.712 75.4552 245.998 74.991C245.638 74.0855 244.508 71.844 244.019 71.0112Z" fill="#CFB8AE"/>
<path d="M251.297 63.1798C251.915 62.269 256.135 60.3555 257.41 60.5313C259.875 62.5003 260.655 64.719 262.545 66.6615C261.737 67.3893 259.557 68.5068 258.515 68.987C257.975 69.2695 257.942 69.2715 257.66 69.7885C256.02 68.2328 253.195 63.3635 251.297 63.1798Z" fill="#E0B369"/>
<path d="M251.297 63.1798C251.915 62.269 256.135 60.3555 257.41 60.5313C255.985 62.356 254.547 61.0585 254.262 63.3898C254.562 64.313 258.035 68.5895 258.515 68.987C257.975 69.2695 257.942 69.2715 257.66 69.7885C256.02 68.2328 253.195 63.3635 251.297 63.1798Z" fill="#EDC985"/>
<path d="M269.673 63.5243C270.115 64.1943 270.078 63.928 270.028 64.6205C268.37 65.5548 259.57 69.9595 258.245 70.16C258.08 70.0633 257.788 69.9078 257.66 69.7885C257.943 69.2715 257.975 69.2695 258.515 68.987C259.558 68.5068 261.738 67.3893 262.545 66.6615C264.638 66.6513 268.59 65.4155 269.673 63.5243Z" fill="#EDC985"/>
<path d="M245.998 74.991C246.712 75.4552 247.147 75.7125 247.76 76.3122C249.816 77.4587 251.865 78.6175 253.907 79.7887L254.487 81.41C254.432 82.4355 254.35 90.6827 254.48 91.518C252.847 92.8937 250.667 93.9413 248.776 94.999L248.199 94.622C245.843 93.3418 241.081 91.2625 239.977 89.0585C239.25 87.6085 239.324 79.859 239.743 78.6768C241.771 76.924 243.572 76.0962 245.998 74.991Z" fill="#8098BD"/>
<path d="M253.907 79.7888L254.487 81.41C254.432 82.4355 254.35 90.6828 254.48 91.518C252.847 92.8938 250.667 93.9413 248.776 94.999L248.199 94.622C249.321 93.2263 248.286 86.378 248.734 83.5715C249.219 83.0285 250.612 82.2623 251.49 81.4985C252.942 80.7385 253.027 81.0188 253.907 79.7888Z" fill="#57699D"/>
<path d="M245.998 74.991C246.712 75.4552 247.147 75.7125 247.761 76.3122C249.816 77.4587 251.865 78.6175 253.908 79.7887C253.028 81.0187 252.943 80.7385 251.49 81.4985C250.613 82.2622 249.219 83.0285 248.734 83.5715C246.833 83.0438 242.106 79.7703 239.744 78.6768C241.771 76.924 243.572 76.0962 245.998 74.991Z" fill="#95B2D0"/>
<path d="M247.76 76.3123C249.816 77.4588 251.865 78.6175 253.907 79.7888C253.027 81.0188 252.942 80.7385 251.49 81.4985C249.769 80.848 245.315 79.7235 244.701 78.3478C245.194 77.0905 246.58 76.755 247.76 76.3123Z" fill="#6D74A3"/>
<path d="M269.013 58.3953C269.91 57.9568 271.048 57.4498 271.845 56.88C274.19 58.042 278.705 60.0958 280.355 61.904L275.818 64.4583C274.648 64.2905 271.853 62.2385 270.69 61.4583C269.863 60.9285 268.848 60.1718 267.91 60.0278C268.24 59.1745 268.28 58.9625 269.013 58.3953Z" fill="#EDC985"/>
<path d="M267.91 60.0278C268.24 59.1745 268.28 58.9625 269.013 58.3953C269.708 59.161 270.703 59.4093 270.968 60.3623C270.913 60.791 270.915 61.0873 270.69 61.4583C269.863 60.9285 268.848 60.1718 267.91 60.0278Z" fill="#EFD490"/>
<path d="M50.0031 133.679C49.9479 130.802 49.9929 128.617 51.3959 126.006C58.4111 112.951 90.8339 113.896 94.9834 128.382C95.5276 130.164 95.3676 134.451 95.0306 136.258C95.0476 137.056 95.0361 138.372 95.1124 139.123C95.3031 140.158 95.1009 150.637 94.8654 151.669C94.8279 153.309 94.7386 156.182 95.0056 157.799C97.6214 158.106 104.545 160.408 107.634 161.494C116.329 164.553 134.176 165.428 134.197 177.617C134.203 180.754 129.494 183.337 129.198 184.613C121.755 184.312 114.031 184.253 107.524 188.871C106.83 188.541 102.644 187.938 101.47 187.679L79.2839 182.796C75.9301 182.037 68.5336 180.809 66.2121 178.748C59.6069 177.541 50.9801 173.415 50.2231 165.864C49.8456 164.204 49.9689 160.03 50.2116 158.336L50.2394 158.056C49.8546 156.523 50.0411 151.403 50.0684 149.587C50.0746 146.766 49.9044 142.003 50.2241 139.372C50.0241 137.568 50.0344 135.513 50.0031 133.679Z" fill="#6D80B3"/>
<path d="M50.0031 133.679C49.9479 130.802 49.9929 128.617 51.3959 126.006C58.4111 112.951 90.8339 113.896 94.9834 128.382C95.5276 130.164 95.3676 134.451 95.0306 136.258C95.0476 137.056 95.0361 138.372 95.1124 139.123C92.3541 143.871 93.9749 141.894 90.1914 146.05C85.9476 151.598 73.3904 151.695 67.1314 151.431C64.1259 150.894 59.1611 149.031 56.7524 147.162C54.0591 146.141 51.7336 141.768 50.2241 139.372C50.0241 137.568 50.0344 135.513 50.0031 133.679Z" fill="#EFD490"/>
<path d="M94.3477 132.201C94.6374 130.902 94.2797 129.748 94.9832 128.382C95.5274 130.164 95.3674 134.451 95.0304 136.258C95.0474 137.056 95.0359 138.372 95.1122 139.123C92.3539 143.871 93.9747 141.894 90.1912 146.05C85.9474 151.598 73.3902 151.695 67.1312 151.431C64.1257 150.894 59.1609 149.031 56.7522 147.162C54.0589 146.141 51.7334 141.768 50.2239 139.372C50.0239 137.568 50.0342 135.513 50.0029 133.679L50.2707 133.541C51.0424 133.806 51.8319 135.083 52.3647 135.769C60.8444 146.688 88.6569 145.398 94.3477 132.201Z" fill="#D6A257"/>
<path d="M56.7524 147.162C63.4922 149.312 64.2279 151.042 72.0452 150.852C80.1134 150.655 83.1649 150.087 90.1914 146.05C85.9477 151.598 73.3904 151.694 67.1314 151.431C64.1259 150.894 59.1612 149.031 56.7524 147.162Z" fill="#32402A"/>
<path d="M94.3477 132.201C94.6374 130.902 94.2797 129.748 94.9832 128.382C95.5274 130.164 95.3674 134.451 95.0304 136.258C94.8067 134.614 95.5397 133.419 94.3477 132.201Z" fill="#D99A4D"/>
<path d="M59.7983 134.123C53.2923 121.652 70.9313 120.298 79.0368 122.637L78.0851 123.156C71.8463 122.078 62.6278 123.42 59.8301 130.057C59.2738 131.376 59.6063 132.734 59.7983 134.123Z" fill="#D99A4D"/>
<path d="M79.0372 122.637C81.8622 123.298 83.9682 124.479 85.7882 126.742L85.896 127.476L85.6184 127.565C84.7157 126.926 84.6797 126.273 84.2574 125.97C82.7852 124.913 79.7664 123.686 78.0854 123.156L79.0372 122.637Z" fill="#E0B369"/>
<path d="M95.0054 157.799C97.6212 158.106 104.545 160.408 107.634 161.494C116.328 164.552 134.175 165.428 134.197 177.617C134.203 180.754 129.494 183.337 129.198 184.613C121.755 184.312 114.03 184.253 107.524 188.87C106.83 188.541 102.644 187.938 101.47 187.679L79.2837 182.796C75.9299 182.037 68.5334 180.809 66.2119 178.748C69.4117 178.497 72.5292 179.277 76.6782 178.711C82.5774 177.906 88.5169 176.367 92.5904 171.643C95.1347 168.693 95.4302 161.686 94.9844 158.062L95.0054 157.799Z" fill="#E8E2E0"/>
<path d="M95.1121 139.123C95.3028 140.157 95.1006 150.637 94.8651 151.669L94.7756 150.842L94.4468 150.646C93.8251 151.054 93.3086 151.909 93.0343 152.58C89.6951 156.3 86.4178 158.131 81.5421 159.325C73.6408 161.262 63.5128 160.623 56.4623 156.203C55.2033 154.115 53.3668 154.669 52.1513 151.989L51.6943 153.119C51.2876 152.645 51.3731 152.753 50.7113 152.539L50.5696 152.494C50.6071 151.316 50.6321 150.905 50.3183 149.769L50.2511 149.531L50.0681 149.586C50.0743 146.766 49.9041 142.002 50.2238 139.372C51.7333 141.767 54.0588 146.141 56.7521 147.162C59.1608 149.031 64.1256 150.894 67.1311 151.431C73.3901 151.694 85.9473 151.598 90.1911 146.05C93.9746 141.894 92.3538 143.871 95.1121 139.123Z" fill="#84ABA5"/>
<path d="M50.2238 139.372C51.7333 141.768 54.0588 146.141 56.7521 147.162C59.1608 149.031 64.1256 150.894 67.1311 151.431C67.8783 151.809 67.6831 151.6 68.0926 152.206L67.7423 152.531C64.0923 153.048 56.6538 149.916 53.8663 147.334C52.6881 146.242 51.7531 144.763 50.4786 143.926C50.3186 144.107 50.3211 148.683 50.2511 149.531L50.0681 149.587C50.0743 146.766 49.9041 142.003 50.2238 139.372Z" fill="#B9D9CD"/>
<path d="M67.1279 169.571C68.1911 169.484 70.1106 169.667 71.2574 169.686C82.3584 169.862 89.7346 168.184 94.9846 158.062C95.4304 161.686 95.1349 168.693 92.5906 171.643C88.5171 176.367 82.5776 177.906 76.6784 178.711C72.5294 179.277 69.4119 178.497 66.2121 178.748C59.6069 177.541 50.9801 173.415 50.2231 165.864C50.3191 164.851 50.1271 164.628 50.4636 163.523L51.0736 163.337C52.1051 164.044 52.7914 164.86 53.7874 165.034C54.1644 164.655 54.1704 164.611 54.3939 164.115C57.5291 166.51 59.5954 167.727 63.3931 168.932C64.6329 169.174 65.8781 169.387 67.1279 169.571Z" fill="#CF8582"/>
<path d="M51.0737 163.337C52.1052 164.044 52.7915 164.86 53.7875 165.034C54.1645 164.655 54.1705 164.611 54.394 164.115C57.5292 166.51 59.5955 167.727 63.3932 168.932L63.293 170.082C59.564 169.862 53.296 166.306 51.0737 163.337Z" fill="#E5AF98"/>
<path d="M63.3932 168.932C64.633 169.174 65.8782 169.387 67.128 169.571C66.3047 170.787 64.4367 170.77 63.293 170.082L63.3932 168.932Z" fill="#DA9897"/>
<path d="M93.0346 152.58C92.7528 155.597 88.8191 156.895 86.5371 158.058C80.2131 161.281 73.4381 161.364 66.5323 160.572C65.4691 160.461 61.6161 159.346 61.2058 159.377C59.5603 158.38 57.9136 157.805 56.4336 156.618L56.4626 156.203C63.5131 160.623 73.6411 161.262 81.5423 159.326C86.4181 158.131 89.6953 156.3 93.0346 152.58Z" fill="#2C4879"/>
<path d="M50.0681 149.587L50.2511 149.531L50.3183 149.769C50.6321 150.905 50.6071 151.317 50.5696 152.495L50.7113 152.54C51.3731 152.754 51.2876 152.645 51.6943 153.119L52.1513 151.99C53.3668 154.67 55.2033 154.115 56.4623 156.203L56.4333 156.618C57.9133 157.805 59.5601 158.38 61.2056 159.377C61.2671 159.449 61.8711 159.839 62.0153 159.936C61.7791 160.054 61.7391 160.127 61.5181 160.105C56.6781 159.624 53.4978 156.011 50.4078 152.967C50.3738 154.664 50.3176 156.36 50.2391 158.055C49.8543 156.523 50.0408 151.403 50.0681 149.587Z" fill="#95B2D0"/>
<path d="M50.2116 158.336C51.3046 160.117 52.8519 162.829 54.3939 164.115C54.1704 164.611 54.1644 164.655 53.7874 165.034C52.7914 164.86 52.1051 164.044 51.0736 163.337L50.4636 163.523C50.1271 164.628 50.3191 164.851 50.2231 165.864C49.8456 164.204 49.9689 160.03 50.2116 158.336Z" fill="#EEB9B5"/>
<path d="M146.59 177.918C150.97 174.832 153.335 175.94 156.325 180.392C156.419 180.532 156.509 180.675 156.594 180.821C157.452 182.335 157.828 183.929 158.306 185.6C159.778 185.697 164.583 188.49 165.227 189.883C168.265 189.229 168.886 189.34 171.939 189.529C172.414 192.063 171.483 193.607 172.027 195.191C173.8 200.353 174.342 199.818 174.638 205.256L174.705 205.682L175.163 205.841C178.291 207.058 177.258 210.947 176.857 213.642C182.512 214.193 190.79 218.476 193.435 223.822C194.705 224.426 199.686 226.346 200.136 227.137C199.215 227.985 195.552 228.772 194.132 229.341C195.025 230.55 195.477 231.193 196.602 232.236C189.953 238.341 187.019 235.907 179.755 237.383C174.185 234.889 170.643 235.328 165.02 234.592C155.972 233.408 148.664 229.598 142.254 223.314C141.113 222.196 138.904 221.983 137.548 220.963C136.784 220.67 136.058 220.041 135.397 219.536C131.547 219.84 125.676 219.229 121.916 218.089C121.201 217.873 120.631 217.275 120.026 216.819C114.808 215.93 109.855 214.581 106.006 210.706C102.594 207.271 102.484 204.409 102.514 199.976C102.19 195.28 103.9 191.753 107.524 188.87C114.03 184.253 121.755 184.312 129.198 184.613C130.079 184.79 130.979 184.962 131.856 185.153L133.423 185.366C135.441 185.805 136.619 186.871 138.132 187.318C140.803 185.866 142.061 184.739 145.398 184.262C144.835 182.131 144.708 179.437 146.59 177.918Z" fill="#D3BFB3"/>
<path d="M107.524 188.871C114.03 184.253 121.755 184.312 129.198 184.613C130.079 184.791 130.979 184.962 131.856 185.153L133.423 185.366L133.264 186.25L133.938 187.695C133.056 192.012 134.194 190.466 131.59 195.01C130.251 199.73 129.694 202.364 131.307 207.217L131.495 208.275C132.929 211.113 133.944 212.351 134.003 215.539C134.781 216.563 134.433 217.774 135.397 219.537C131.547 219.841 125.676 219.229 121.916 218.09C121.201 217.873 120.631 217.275 120.026 216.82C114.808 215.93 109.855 214.581 106.006 210.707C102.594 207.271 102.484 204.409 102.514 199.976C102.19 195.28 103.9 191.753 107.524 188.871Z" fill="#B9D9CD"/>
<path d="M102.514 199.976L103.013 199.824C104.565 201.278 105.154 202.445 107.064 204.067C111.871 208.149 119.306 209.066 125.405 208.849C127.445 208.785 129.479 208.593 131.495 208.275C132.929 211.113 133.944 212.351 134.003 215.539C134.781 216.563 134.433 217.774 135.397 219.536C131.547 219.84 125.676 219.229 121.916 218.089C121.201 217.873 120.631 217.275 120.026 216.82C114.808 215.93 109.855 214.581 106.006 210.706C102.594 207.271 102.484 204.409 102.514 199.976Z" fill="#83A99F"/>
<path d="M134.004 215.539C134.782 216.563 134.434 217.774 135.397 219.536C131.547 219.84 125.676 219.229 121.916 218.089C121.202 217.873 120.632 217.275 120.026 216.82C125.607 216.652 127.98 217.1 134.004 215.539Z" fill="#E8E2E0"/>
<path d="M133.264 186.25L133.938 187.695C133.056 192.012 134.194 190.466 131.591 195.01C130.839 194.028 130.828 193.778 130.579 192.532C130.761 190.355 131.809 187.878 133.264 186.25Z" fill="#E5AF98"/>
<path d="M131.856 185.153L133.423 185.366L133.264 186.25C131.809 187.878 130.76 190.355 130.578 192.532C129.013 190.436 130.62 187.026 131.856 185.153Z" fill="#E8E2E0"/>
<path d="M121.22 188.84C123.472 188.512 127.745 188.526 129.793 189.663L129.886 190.123L129.545 190.556C128.152 190.467 126.758 190.403 125.363 190.365C120.936 190.258 117.343 191.163 114.008 194.337C112.302 196.373 112.463 196.711 112.146 199.4L111.876 199.372C110.346 197.053 110.682 197.221 110.801 194.27C113.264 190.456 117.011 189.4 121.22 188.84Z" fill="#67A087"/>
<path d="M159.201 223.441C165.49 221.975 173.706 219.661 176.857 213.643C182.512 214.194 190.79 218.476 193.435 223.822C194.705 224.426 199.686 226.346 200.136 227.137C199.216 227.985 195.552 228.772 194.132 229.341C195.025 230.55 195.477 231.193 196.602 232.236C189.953 238.341 187.019 235.907 179.756 237.383C174.186 234.889 170.643 235.328 165.021 234.592C155.972 233.408 148.665 229.598 142.254 223.314C141.114 222.196 138.904 221.984 137.548 220.964C137.834 220.806 138.123 220.654 138.416 220.509C138.871 220.279 140.322 219.472 140.726 219.689C143.582 221.22 146.088 222.432 149.178 223.451C149.796 224.926 150.217 226.207 150.909 227.721C151.73 228.282 152.478 228.626 153.37 229.065C154.492 228.76 155.658 228.27 156.749 227.844C156.863 227.716 156.973 227.584 157.078 227.448L157.231 227.25C158.139 226.098 158.616 224.791 159.201 223.441Z" fill="#E8E2E0"/>
<path d="M146.59 177.918C150.97 174.832 153.335 175.94 156.325 180.392C156.419 180.532 156.509 180.675 156.594 180.821C157.452 182.335 157.828 183.929 158.306 185.6C158.408 187.353 158.36 187.622 157.805 189.269L157.352 190.105C157.924 190.793 158.655 191.513 158.777 192.371C158.669 192.743 158.646 192.973 158.429 193.278C159.221 194.774 162.681 196.098 163.705 197.497C163.409 198.164 162.793 197.908 161.766 199.448C160.324 199.514 158.884 195.91 155.879 199.352C155.093 200.252 153.812 202.067 153.803 203.316L153.564 203.427C153.154 202.56 153.412 202.828 152.62 202.377L152.355 202.516L152.311 202.766C151.981 204.559 151.105 204.764 149.47 205.26C147.299 205.917 132.683 207.868 131.306 207.217C129.694 202.364 130.251 199.73 131.59 195.01C134.194 190.465 133.056 192.012 133.938 187.695L133.263 186.25L133.423 185.366C135.441 185.805 136.619 186.871 138.132 187.318C140.803 185.866 142.061 184.739 145.398 184.262C144.835 182.131 144.708 179.437 146.59 177.918Z" fill="#E8E2E0"/>
<path d="M146.59 177.918C150.97 174.832 153.335 175.94 156.325 180.392C156.419 180.532 156.509 180.675 156.594 180.821C157.452 182.335 157.828 183.929 158.306 185.6C158.408 187.353 158.36 187.622 157.805 189.269L157.352 190.105C157.924 190.793 158.655 191.513 158.777 192.371C158.669 192.743 158.646 192.973 158.429 193.278C157.488 193.207 156.942 193.058 156.198 193.633C154.681 194.127 154.075 193.299 152.937 192.395C151.38 191.552 150.02 190.823 148.536 189.854L148.216 189.701C148.18 189.029 147.727 188.416 147.373 187.807L147.048 187.622C146.433 187.092 145.971 186.791 145.748 186C145.707 185.284 145.586 184.941 145.398 184.262C144.835 182.131 144.708 179.437 146.59 177.918Z" fill="#E0B369"/>
<path d="M146.59 177.918C150.97 174.832 153.335 175.94 156.325 180.392C156.419 180.532 156.509 180.675 156.594 180.821C156.209 181.307 155.73 181.856 155.458 182.4C154.901 182.416 154.79 182.371 154.241 182.235C152.257 182.853 149.582 179.808 148.346 182.279C147.873 183.224 147.029 186.547 147.048 187.622C146.433 187.092 145.971 186.791 145.748 186C145.707 185.284 145.586 184.941 145.398 184.262C144.835 182.131 144.708 179.437 146.59 177.918Z" fill="#D99A4D"/>
<path d="M146.59 177.918C150.97 174.832 153.335 175.94 156.325 180.392C156.42 180.532 156.509 180.675 156.594 180.821C156.21 181.307 155.73 181.856 155.459 182.4C154.901 182.416 154.791 182.371 154.242 182.235C152.604 180.072 151.606 178.704 148.771 178.434C147.75 178.337 147.48 178.446 146.59 177.918Z" fill="#EDC985"/>
<path d="M156.594 180.821C157.452 182.335 157.828 183.929 158.306 185.6C158.408 187.353 158.36 187.622 157.805 189.269L157.352 190.105C157.924 190.794 158.655 191.513 158.777 192.371C158.669 192.743 158.646 192.973 158.429 193.278C157.488 193.207 156.942 193.058 156.198 193.633C154.681 194.127 154.075 193.299 152.937 192.395C151.38 191.552 150.02 190.823 148.536 189.854C149.407 189.877 149.611 189.878 150.47 190.11C151.225 190.525 153.167 191.465 153.745 191.85L154.098 191.581C154.452 190.532 154.621 190.272 155.226 189.331C157.011 187.35 155.075 185.422 155.458 182.4C155.73 181.857 156.209 181.307 156.594 180.821Z" fill="#D99A4D"/>
<path d="M156.93 190.389L157.352 190.105C157.924 190.794 158.655 191.513 158.777 192.371C158.669 192.743 158.646 192.973 158.43 193.278C157.489 193.207 156.942 193.058 156.198 193.633C155.684 191.909 155.922 191.935 156.93 190.389Z" fill="#DA9897"/>
<path d="M156.93 190.389C155.922 191.935 155.684 191.909 156.198 193.633C154.681 194.127 154.076 193.299 152.938 192.395L153.699 192.04C155.331 191.817 155.684 191.445 156.93 190.389Z" fill="#C68462"/>
<path d="M147.373 187.807L147.786 187.172C149.594 187.051 149.672 188.944 152.532 189.163C153.425 189.307 153.779 189.142 154.645 188.888C155.064 189.107 154.97 188.985 155.226 189.331C154.621 190.272 154.452 190.532 154.098 191.581L153.745 191.85C153.167 191.465 151.225 190.525 150.47 190.11C149.611 189.878 149.407 189.877 148.536 189.854L148.216 189.701C148.18 189.029 147.727 188.416 147.373 187.807Z" fill="#EDC985"/>
<path d="M133.423 185.366C135.441 185.805 136.619 186.871 138.132 187.318C137.285 187.965 135.564 189.457 134.617 189.512C133.999 189.037 133.841 188.509 133.938 187.695L133.264 186.25L133.423 185.366Z" fill="#B9D9CD"/>
<path d="M142.048 187.568C143.331 187.119 144.607 186.739 145.748 186.001C145.971 186.791 146.433 187.093 147.048 187.622L147.373 187.807C147.727 188.416 148.18 189.029 148.216 189.701C145.629 188.472 144.877 188.072 142.048 187.568Z" fill="#E5AF98"/>
<path d="M166.407 205.6C170.899 203.248 170.572 204.236 174.638 205.256L174.705 205.682L175.163 205.841C170.678 206.609 168.305 212.293 167.12 216.071C166.763 212.938 166.577 208.792 166.407 205.6Z" fill="#E8E2E0"/>
<path d="M158.306 185.6C159.778 185.697 164.583 188.49 165.227 189.883C165.228 190.281 165.201 190.757 165.288 191.131C162.132 192.448 161.474 190.312 158.645 189.647C158.115 189.523 158.295 189.741 157.805 189.269C158.36 187.622 158.408 187.353 158.306 185.6Z" fill="#E8E2E0"/>
<path d="M165.227 189.883C168.265 189.229 168.886 189.34 171.939 189.529C168.192 189.768 168.272 194.295 165.288 191.131C165.201 190.757 165.228 190.281 165.227 189.883Z" fill="#E8E2E0"/>
<path d="M205.327 49.522C207.343 47.705 209.077 46.872 211.513 45.6837C213.496 46.535 214.56 47.218 216.402 48.3792C217.128 50.1725 216.8 76.5925 216.762 80.483C215.557 81.3467 211.466 84.12 210.144 83.938L209.801 83.7302C209.175 83.2832 206.352 81.9277 205.52 81.5102C205.384 79.4842 205.449 77.6037 205.215 75.534C205.261 73.6355 205.112 71.5732 205.012 69.662C205.28 68.8917 205.252 68.7857 205.04 67.9922L205.265 67.9535C205.687 63.071 205.211 54.836 205.327 49.522Z" fill="#D99A4D"/>
<path d="M205.327 49.522C207.343 47.705 209.077 46.872 211.513 45.6837C213.496 46.535 214.56 47.218 216.402 48.3792C214.506 49.6925 212.14 51.2625 210.305 52.6365C209.717 55.4257 209.877 64.1862 209.931 67.3192C210.027 72.8205 209.791 78.2777 209.801 83.7302C209.175 83.2832 206.352 81.9277 205.52 81.5102C205.384 79.4842 205.449 77.6037 205.215 75.534C205.261 73.6355 205.112 71.5732 205.012 69.662C205.28 68.8917 205.252 68.7857 205.04 67.9922L205.265 67.9535C205.687 63.071 205.211 54.836 205.327 49.522Z" fill="#E0B369"/>
<path d="M205.327 49.522C207.343 47.705 209.077 46.872 211.513 45.6837C213.496 46.535 214.56 47.218 216.402 48.3792C214.506 49.6925 212.14 51.2625 210.305 52.6365C208.304 52.005 207.374 50.7475 205.539 50.0072C205.551 52.2135 205.85 66.9387 205.265 67.9535C205.687 63.071 205.211 54.836 205.327 49.522Z" fill="#EFD490"/>
<path d="M186.185 41.9842C187.121 40.8985 189.419 38.954 190.704 38.364C192.817 37.3937 195.309 39.744 197.013 40.492C197.938 41.6137 197.69 48.9695 197.7 50.9262L197.777 68.742C196.802 69.4335 196.423 69.8782 195.606 70.7657C194.412 71.604 192.328 73.391 190.854 72.9472C189.56 72.3237 187.554 71.033 186.265 70.2507C186.118 60.8445 186.286 51.3967 186.185 41.9842Z" fill="#D99A4D"/>
<path d="M186.185 41.9843C187.239 42.5418 190.423 44.5538 191.07 44.728C190.293 51.2135 190.971 59.381 190.819 66.0005C190.773 67.9978 191.057 71.0828 190.854 72.9473C189.56 72.3238 187.554 71.033 186.265 70.2508C186.118 60.8445 186.286 51.3968 186.185 41.9843Z" fill="#E0B369"/>
<path d="M186.185 41.9842C187.121 40.8985 189.419 38.954 190.704 38.364C192.817 37.3937 195.309 39.744 197.013 40.492C195.043 42.0067 192.78 43.1622 191.07 44.728C190.423 44.5537 187.239 42.5417 186.185 41.9842Z" fill="#EFD490"/>
<path d="M202.277 66.4358C203.188 66.9555 204.117 67.5003 205.04 67.9923C205.252 68.7858 205.28 68.8918 205.012 69.662C205.112 71.5733 205.261 73.6355 205.215 75.534C204.12 76.1513 200.658 78.2065 199.7 78.3893C198.784 77.4373 197.497 77.0298 195.962 75.3343C195.675 73.9718 195.503 72.8425 195.765 71.4753L195.606 70.7658C196.423 69.8783 196.802 69.4335 197.777 68.742C198.459 68.603 199.178 68.079 199.77 67.6915L202.277 66.4358Z" fill="#D99A4D"/>
<path d="M202.277 66.4358C203.188 66.9555 204.117 67.5003 205.04 67.9923C205.252 68.7858 205.28 68.8918 205.012 69.662L204.119 69.92L203.997 70.1453C202.702 71.0335 201.307 71.2325 200.627 72.1498C199.024 72.6495 198.556 70.642 196.883 70.4245C196.012 70.817 196.318 70.5685 195.765 71.4753L195.606 70.7658C196.423 69.8783 196.802 69.4335 197.777 68.742C198.459 68.603 199.178 68.079 199.77 67.6915L202.277 66.4358Z" fill="#EDC985"/>
<path d="M202.277 66.4358C203.188 66.9555 204.117 67.5003 205.04 67.9923C205.252 68.7858 205.28 68.8918 205.012 69.662L204.119 69.92L203.997 70.1453C202.519 68.6165 200.289 69.131 199.77 67.6915L202.277 66.4358Z" fill="#D99A4D"/>
<path d="M195.765 71.4753C196.318 70.5685 196.012 70.817 196.883 70.4245C198.556 70.642 199.024 72.6495 200.627 72.1497C200.708 73.9402 200.103 76.636 199.7 78.3893C198.784 77.4373 197.497 77.0298 195.962 75.3343C195.675 73.9718 195.503 72.8425 195.765 71.4753Z" fill="#E0B369"/>
</g>
<defs>
<clipPath id="clip0_2316_23821">
<rect width="332" height="262" fill="white"/>
</clipPath>
</defs>
</svg>
