<svg width="290" height="228" viewBox="0 0 290 228" fill="none" xmlns="http://www.w3.org/2000/svg">
<path d="M81.0931 105.279C83.2692 105.394 87.8995 103.676 90.5318 103.365C100.682 102.167 113.069 103.251 120.826 110.611C123.579 113.331 123.852 115.978 123.731 119.517C123.583 123.859 123.618 125.327 122.315 129.313C122.239 130.343 121.927 133.463 122.442 134.281C122.682 134.65 123.066 135.154 123.137 135.565C123.778 138.754 123.351 145.995 122.535 149.139C122.599 149.744 122.37 158.203 122.281 158.456C122.312 159.471 122.313 160.883 122.429 161.86C126.638 166.626 123.331 172.757 124.85 176.152C124.921 176.926 124.97 179.033 125.12 179.606C128.971 194.363 109.36 198.45 98.9606 198.924C97.59 198.987 95.0951 198.68 93.706 198.87C90.8486 200.61 87.4335 200.2 84.3395 201.767C80.9756 203.47 78.1006 205.558 74.8385 207.473C73.1022 208.492 72.1673 209.491 70.1407 210.451L70.1051 210.174C70.5096 209.826 72.6643 208.18 72.7438 207.897C70.3722 207.932 69.3224 210.683 66.7832 210.537C56.5978 214.888 43.2663 215.388 32.9903 211.254L32.8435 211.195C29.0704 210.587 24.7172 206.512 23.1157 203.127C22.5771 201.239 21.7364 195.31 22.3843 193.786L22.8202 193.678C22.8494 193.46 22.8721 193.461 22.7719 193.272C21.4819 190.84 21.6617 184.162 21.9578 181.423C22.1931 182.494 22.5372 184.156 23.1546 185.038C22.8456 182.632 23.3038 182.592 23.3457 180.342C23.3615 179.49 22.0946 177.303 22.4484 176.059C23.0836 176.165 23.0569 176.368 23.5708 176.983C22.0648 173.396 22.1315 171.655 22.0532 167.845C21.7625 167.131 21.6633 156.775 21.8063 155.577C21.8231 150.856 20.8338 145.359 23.8814 141.634C31.6922 132.086 50.5485 131.454 61.5032 134.375C63.6474 134.947 68.3374 137.82 69.6014 137.641L69.8466 136.985C69.0459 134.109 69.0348 127.474 69.9403 124.415C70.6537 122.322 71.1618 116.307 70.5927 114.487C74.7401 112.444 78.3627 108.97 81.0931 105.279Z" fill="#A5CCB7"/>
<path d="M81.0929 105.279C83.2689 105.394 87.8992 103.676 90.5315 103.365C100.682 102.167 113.068 103.251 120.826 110.611C123.579 113.331 123.852 115.978 123.731 119.517C123.583 123.859 123.618 125.327 122.315 129.313C122.239 130.343 121.926 133.463 122.441 134.281C122.682 134.65 123.066 135.154 123.137 135.565C123.778 138.754 123.35 145.995 122.535 149.139C115.04 159.48 101.233 160.469 89.5095 158.925C86.7049 158.956 83.997 158.126 81.3344 157.296L76.3365 155.045L75.5224 154.469C75.1112 153.88 75.2029 153.155 75.1989 152.414C75.2419 151.092 75.3532 149.692 75.1061 148.402C75.1568 146.058 75.3713 144.754 74.0696 142.856C72.9737 141.356 72.2746 140.46 70.8638 139.267C69.4268 138.276 70.3052 138.247 69.8463 136.985C69.0456 134.109 69.0345 127.474 69.94 124.415C70.6534 122.322 71.1615 116.307 70.5924 114.487C74.7398 112.444 78.3624 108.97 81.0929 105.279Z" fill="#BCDECE"/>
<path d="M69.94 124.415C70.7543 125.554 70.6997 126.953 71.3951 128.27C73.6352 132.515 77.6622 134.043 81.5689 136.336C91.3611 139.636 102.136 139.682 111.928 136.324C114.371 135.485 116.857 134.042 119.102 132.754C119.278 132.352 121.842 129.781 122.315 129.312C122.239 130.343 121.926 133.463 122.441 134.281C122.682 134.65 123.066 135.154 123.137 135.565C123.778 138.754 123.35 145.995 122.535 149.139C115.04 159.48 101.233 160.469 89.5095 158.925C86.7049 158.956 83.997 158.126 81.3344 157.296L76.3365 155.045L75.5224 154.469C75.1112 153.88 75.2029 153.155 75.1989 152.414C75.2419 151.092 75.3532 149.692 75.1061 148.402C75.1568 146.058 75.3713 144.754 74.0696 142.856C72.9737 141.356 72.2746 140.46 70.8638 139.267C69.4268 138.276 70.3052 138.247 69.8463 136.985C69.0456 134.109 69.0345 127.474 69.94 124.415Z" fill="#E2CE92"/>
<path d="M123.137 135.565C123.778 138.754 123.35 145.995 122.534 149.139C115.04 159.48 101.233 160.469 89.5092 158.925C86.7046 158.956 83.9967 158.126 81.3342 157.296L76.3362 155.045L75.5222 154.469C75.1109 153.88 75.2027 153.155 75.1986 152.414C75.2416 151.092 75.3529 149.692 75.1058 148.402C75.1566 146.058 75.371 144.754 74.0693 142.856L74.451 142.323C74.6618 142.696 75.3821 143.483 75.7079 143.711C87.0099 151.619 111.55 150.475 120.543 139.9L120.768 140.342C123.338 139.34 123.194 137.787 123.137 135.565Z" fill="#A0B2D6"/>
<path d="M120.543 139.9L120.768 140.342C113.037 150.138 93.3961 151.015 82.4129 147.248C79.9688 146.41 77.584 145.188 75.0918 144.43C78.3935 147.791 78.1197 148.34 79.3975 152.923L78.738 153.005C76.9692 156.446 87.4808 158.648 89.5092 158.925C86.7046 158.956 83.9967 158.126 81.3342 157.296L76.3362 155.045L75.5222 154.469C75.1109 153.88 75.2027 153.155 75.1986 152.414C75.2416 151.092 75.3529 149.692 75.1058 148.402C75.1566 146.058 75.371 144.754 74.0693 142.856L74.451 142.323C74.6618 142.696 75.3821 143.483 75.7079 143.711C87.0099 151.619 111.55 150.475 120.543 139.9Z" fill="#313651"/>
<path d="M81.5693 136.336C91.3615 139.636 102.136 139.682 111.928 136.324C114.372 135.485 116.857 134.042 119.102 132.754C117.927 134.904 112.774 136.714 110.573 137.35C102.441 139.701 94.5567 140.084 86.2983 137.932C84.7286 137.523 83.2326 136.983 81.6183 136.541L81.5693 136.336Z" fill="#776C25"/>
<path d="M122.441 134.281C122.682 134.65 123.066 135.154 123.137 135.565C123.194 137.787 123.338 139.34 120.768 140.342L120.543 139.9C121.559 138.065 122.294 136.393 122.441 134.281Z" fill="#8391B6"/>
<path d="M70.8643 139.267L71.3782 138.956C72.4231 139.269 74.0554 141.33 74.4517 142.323L74.0701 142.856C72.9742 141.356 72.275 140.46 70.8643 139.267Z" fill="#D4A85E"/>
<path d="M94.0317 106.741C99.6195 106.301 105.767 106.953 110.761 109.667C114.007 111.432 115.157 112.946 116.154 116.321C115.438 115.543 114.704 114.784 113.95 114.044C108.842 109.111 102.378 108.55 95.6322 108.661C93.3112 108.664 89.5697 109.446 87.3306 110.217C84.2261 111.285 79.9643 113.422 78.8902 116.788C78.419 118.265 79.0681 118.814 78.7401 119.479L78.1254 119.277C76.5728 117.633 78.0345 114.167 79.3088 112.687C82.9468 108.459 88.7365 107.21 94.0317 106.741Z" fill="#83CEB2"/>
<path d="M122.535 149.139C122.599 149.744 122.37 158.203 122.281 158.456C122.312 159.471 122.313 160.882 122.429 161.86C126.638 166.626 123.331 172.757 124.85 176.152C124.921 176.926 124.97 179.033 125.12 179.606C128.971 194.363 109.36 198.45 98.9606 198.924C97.5899 198.987 95.0951 198.68 93.7059 198.87C90.8486 200.61 87.4335 200.2 84.3394 201.767C80.9755 203.47 78.1006 205.558 74.8385 207.473C73.1022 208.492 72.1673 209.491 70.1406 210.451L70.105 210.174C70.5096 209.826 72.6642 208.18 72.7437 207.897C70.3722 207.932 69.3224 210.683 66.7832 210.537C67.2486 210.174 68.7849 209.359 69.3767 208.986C71.9646 207.355 73.0318 205.965 74.7178 203.493C76.6841 197.868 75.2887 197.004 75.946 192.601L75.8665 192.306C75.449 191.784 75.2994 191.111 75.0907 190.459C74.9171 189.498 74.9865 186.762 74.8719 185.402C75.1471 184.371 75.3624 183.256 75.5848 182.207C76.1397 180.669 75.9328 175.482 75.815 173.712L75.3412 172.411L75.294 171.116C75.5637 169.536 75.5957 165.898 75.1406 164.341L74.9277 162.925C74.7314 161.75 74.7915 159.8 74.7948 158.539L74.8409 158.276L75.2034 158.152C75.4875 157.675 75.5677 157.736 75.4797 157.342C75.6888 157.787 75.6532 157.549 75.5015 158.087L75.7787 157.688C75.6489 156.824 75.6011 155.661 76.3367 155.045L81.3347 157.296C83.9972 158.126 86.7052 158.956 89.5097 158.925C101.233 160.469 115.04 159.48 122.535 149.139Z" fill="#CD9375"/>
<path d="M123.264 179.194C123.834 178.089 124.077 176.555 124.85 176.152C124.921 176.926 124.97 179.033 125.12 179.606C128.971 194.363 109.36 198.45 98.9606 198.924C97.5899 198.987 95.0951 198.68 93.7059 198.87C90.8486 200.61 87.4335 200.2 84.3394 201.767C80.9755 203.47 78.1006 205.558 74.8385 207.473C73.1022 208.492 72.1673 209.491 70.1406 210.451L70.105 210.174C70.5096 209.826 72.6642 208.18 72.7437 207.897C70.3722 207.932 69.3224 210.683 66.7832 210.537C67.2486 210.174 68.7849 209.359 69.3767 208.986C71.9646 207.355 73.0318 205.965 74.7178 203.493C76.6841 197.868 75.2887 197.004 75.946 192.601L75.8665 192.306C75.449 191.784 75.2994 191.111 75.0907 190.459C74.9171 189.498 74.9865 186.762 74.8719 185.402C75.1471 184.371 75.3624 183.256 75.5848 182.207C79.8146 184.55 79.9829 185.633 85.5522 187.005C87.032 187.583 88.0818 187.56 89.3608 187.971C100.682 189.767 115.43 188.648 123.264 179.194Z" fill="#CC8D72"/>
<path d="M125.12 179.606C128.971 194.363 109.36 198.45 98.9606 198.924C97.5899 198.987 95.0951 198.68 93.7059 198.87C90.8486 200.61 87.4335 200.2 84.3394 201.767C80.9755 203.47 78.1006 205.558 74.8385 207.473C73.1022 208.492 72.1673 209.491 70.1406 210.451L70.105 210.174C70.5096 209.826 72.6642 208.18 72.7437 207.897C70.3722 207.932 69.3224 210.683 66.7832 210.537C67.2486 210.174 68.7849 209.359 69.3767 208.986C71.9646 207.355 73.0318 205.965 74.7178 203.493C76.6841 197.868 75.2887 197.004 75.946 192.601L75.8665 192.306L76.4184 192.088C79.6964 194.332 86.1049 196.712 89.9737 197.141C99.6252 198.878 109.405 197.818 118.117 193.141C119.903 192.183 121.529 190.169 123.2 189.176C124.911 187.542 125.113 183.917 125.026 181.67L125.12 179.606Z" fill="#B7ABAA"/>
<path d="M89.9735 197.141C99.625 198.878 109.405 197.818 118.117 193.141C119.903 192.183 121.529 190.169 123.199 189.176C120.147 193.786 113.299 196.295 108.133 197.363C97.9606 199.465 84.923 198.548 76.0726 192.685L75.9457 192.601L75.8662 192.306L76.4182 192.088C79.6961 194.332 86.1046 196.712 89.9735 197.141Z" fill="#7C4237"/>
<path d="M75.585 182.207C79.8148 184.55 79.9831 185.633 85.5524 187.005C87.0322 187.583 88.082 187.56 89.361 187.971L89.3461 188.485C88.3201 189.057 83.6031 187.505 82.3373 187.155C82.4573 191.354 82.4871 192.254 85.5204 195.497C86.4019 196.439 89.1541 196.156 89.974 197.141C86.1051 196.712 79.6966 194.332 76.4186 192.088L75.8667 192.306C75.4492 191.784 75.2996 191.111 75.0909 190.459C74.9173 189.498 74.9867 186.762 74.8721 185.402C75.1473 184.371 75.3626 183.256 75.585 182.207Z" fill="#9C4E3B"/>
<path d="M123.264 179.194C123.833 178.089 124.077 176.555 124.849 176.152C124.921 176.926 124.969 179.033 125.119 179.606L125.025 181.67C124.956 180.999 124.952 180.888 124.64 180.294C123.872 180.226 124.1 180.909 123.345 181.035C123.395 180.538 123.482 180.297 123.625 179.816L123.264 179.194Z" fill="#D78D4D"/>
<path d="M122.429 161.86C126.638 166.626 123.332 172.757 124.85 176.152C124.077 176.555 123.834 178.089 123.264 179.194C115.43 188.648 100.683 189.767 89.3609 187.971C88.082 187.56 87.0322 187.583 85.5524 187.005C79.9831 185.633 79.8148 184.55 75.585 182.207C76.1398 180.67 75.933 175.483 75.8152 173.712L76.1124 173.502C76.5466 174.56 82.1985 176.373 83.6217 176.877C84.5144 176.937 87.3374 177.945 88.6682 178.051C98.008 178.793 105.744 178.31 114.31 174.473C116.247 173.401 121.07 170.161 121.162 167.886C121.782 166.639 121.979 165.997 122.386 164.687C122.27 163.465 122.287 163.083 122.429 161.86Z" fill="#90BBA4"/>
<path d="M76.1124 173.502C76.5466 174.56 82.1985 176.373 83.6217 176.877C81.7472 177.278 81.6973 176.067 80.9895 176.823C80.7174 178.912 81.6862 183.408 82.61 185.391C82.9662 186.156 84.6241 185.739 85.5524 187.005C79.9831 185.633 79.8148 184.55 75.585 182.207C76.1398 180.67 75.933 175.483 75.8152 173.712L76.1124 173.502Z" fill="#5A7D61"/>
<path d="M122.386 164.687C122.833 166.902 122.27 168.031 121.995 170.192C120.145 172.119 118.328 174.504 115.694 174.985C115.108 174.82 114.864 174.726 114.31 174.473C116.246 173.401 121.069 170.161 121.162 167.886C121.782 166.639 121.979 165.997 122.386 164.687Z" fill="#88AE89"/>
<path d="M122.535 149.139C122.599 149.744 122.369 158.203 122.28 158.456C121.526 159.027 120.75 159.707 120.373 160.604C114.66 166.509 106.295 168.384 98.3261 168.534C94.2392 168.612 88.3166 168.492 84.4697 167.25C82.0708 166.833 80.345 165.992 78.1846 164.927C77.1078 164.245 76.0219 163.578 74.9274 162.925C74.731 161.75 74.7911 159.8 74.7944 158.539L74.8405 158.276L75.203 158.152C75.4871 157.675 75.5673 157.736 75.4793 157.342C75.6884 157.787 75.6528 157.549 75.5011 158.087L75.7783 157.688C75.6485 156.824 75.6007 155.661 76.3363 155.045L81.3343 157.296C83.9968 158.126 86.7048 158.956 89.5093 158.925C101.233 160.469 115.04 159.48 122.535 149.139Z" fill="#CFB876"/>
<path d="M76.3363 155.045L81.3343 157.296C80.3114 157.851 80.2813 157.668 79.4034 156.966L79.0084 156.971C78.9423 157.58 80.1348 164.824 80.3515 165.647C81.2132 165.919 83.9984 166.681 84.4697 167.25C82.0708 166.833 80.345 165.992 78.1846 164.927C77.1078 164.245 76.0219 163.578 74.9274 162.925C74.731 161.75 74.7911 159.8 74.7944 158.539L74.8405 158.276L75.203 158.152C75.4871 157.675 75.5673 157.736 75.4793 157.342C75.6884 157.787 75.6528 157.549 75.5011 158.087L75.7783 157.689C75.6485 156.824 75.6007 155.661 76.3363 155.045Z" fill="#9F8640"/>
<path d="M74.9277 162.925C76.0223 163.578 77.1082 164.245 78.185 164.927L77.7399 165.79C78.3925 165.771 80.7197 166.586 81.1189 167.023C80.7633 167.117 80.3507 167.128 80.2327 167.556C79.6699 169.597 79.5407 172.302 80.145 174.335C80.2853 174.807 81.873 175.002 82.4471 175.747C80.2715 175.217 78.9035 174.665 76.9586 173.56L76.1123 173.502L75.815 173.712L75.3412 172.411L75.294 171.116C75.5636 169.536 75.5957 165.899 75.1406 164.341L74.9277 162.925Z" fill="#AD6549"/>
<path d="M74.9277 162.925C76.0223 163.578 77.1082 164.245 78.185 164.927L77.7399 165.79C76.7261 167.236 77.6023 171.636 76.9586 173.56L76.1123 173.502L75.815 173.712L75.3412 172.411L75.294 171.116C75.5636 169.536 75.5957 165.899 75.1406 164.341L74.9277 162.925Z" fill="#7C4237"/>
<path d="M121.162 167.886C121.069 170.161 116.247 173.401 114.31 174.473C105.744 178.31 98.0079 178.793 88.6681 178.051C87.3373 177.945 84.5142 176.937 83.6216 176.877C82.1984 176.373 76.5465 174.56 76.1123 173.502L76.9586 173.56C78.9035 174.665 80.2715 175.217 82.4471 175.747C87.0147 177.693 97.6265 177.962 102.637 177.199C109.791 176.109 116.634 173.832 121.162 167.886Z" fill="#303518"/>
<path d="M120.374 160.604C120.242 161.682 119.308 162.568 118.428 163.191C108.093 170.512 92.8083 170.424 81.1193 167.023C80.72 166.586 78.3928 165.771 77.7402 165.79L78.1853 164.927C80.3458 165.992 82.0716 166.833 84.4705 167.25C88.3173 168.492 94.2399 168.612 98.3268 168.535C106.295 168.384 114.661 166.509 120.374 160.604Z" fill="#BA6834"/>
<path d="M21.8063 155.577C21.8231 150.856 20.8338 145.359 23.8814 141.634C31.6922 132.086 50.5485 131.454 61.5032 134.375C63.6474 134.947 68.3374 137.82 69.6014 137.641L69.8466 136.985C70.3055 138.247 69.4271 138.276 70.8641 139.267C72.2748 140.46 72.974 141.356 74.0699 142.856C75.3715 144.754 75.1571 146.058 75.1064 148.402C75.3535 149.692 75.2422 151.092 75.1992 152.414C75.2032 153.155 75.1115 153.879 75.5227 154.469L76.3368 155.045C75.6011 155.661 75.649 156.824 75.7788 157.688L75.5016 158.087C75.6532 157.549 75.6888 157.787 75.4798 157.342C75.5677 157.736 75.4876 157.675 75.2034 158.152L74.841 158.276L74.7949 158.539L74.4876 158.165C73.2666 159.3 72.8883 161.105 70.8581 162.704C69.6134 163.159 68.0419 164.601 66.736 165.231C62.6726 167.193 56.9748 168.714 52.4711 168.782C47.9069 169.232 44.3306 168.816 39.8327 168.284C36.8329 167.131 34.2167 167.128 30.9677 165.308C26.0567 162.558 23.6625 161.07 21.8063 155.577Z" fill="#EBDFA7"/>
<path d="M75.1059 148.402C75.3531 149.692 75.2418 151.092 75.1988 152.414C75.2028 153.155 75.1111 153.88 75.5223 154.469L76.3363 155.045C75.6007 155.661 75.6485 156.824 75.7784 157.689L75.5012 158.087C75.6528 157.549 75.6884 157.787 75.4793 157.342C75.5673 157.736 75.4871 157.675 75.203 158.152L74.8405 158.276L74.7944 158.539L74.4872 158.165C73.2661 159.3 72.8878 161.105 70.8577 162.704C69.613 163.159 68.0415 164.601 66.7356 165.231C62.6721 167.193 56.9744 168.714 52.4707 168.782C54.2889 167.136 64.2419 167.406 67.0404 164.141L66.948 163.852C66.254 163.64 65.7789 163.533 65.4651 162.9C62.5385 156.99 62.1342 159.283 56.8421 160.333C56.1864 160.463 54.4588 160.441 53.5777 160.428C55.6914 160.227 57.7886 159.88 59.8549 159.392C61.9287 158.899 63.2956 158.288 65.1842 157.432C70.8648 154.857 72.0213 153.384 75.1059 148.402Z" fill="#D1B26E"/>
<path d="M74.8409 158.276C74.7656 156.814 75.0159 153.906 75.1991 152.414C75.2031 153.155 75.1114 153.88 75.5226 154.469L76.3367 155.045C75.601 155.661 75.6489 156.824 75.7787 157.689L75.5015 158.087C75.6531 157.549 75.6888 157.787 75.4797 157.342C75.5676 157.736 75.4875 157.675 75.2034 158.152L74.8409 158.276Z" fill="#776C25"/>
<path d="M29.2969 146.484C29.5505 144.32 30.568 142.344 32.3593 141.043C41.1279 134.677 58.0747 134.64 65.9033 142.68C66.3199 143.108 66.5047 143.741 66.3892 144.321C65.4244 143.641 65.1309 142.682 63.6164 141.649C56.0176 136.471 34.8486 137.006 30.6373 146.509C30.4896 147.385 30.6773 147.768 30.2962 148.713L29.9978 148.827C29.497 148.152 29.4349 147.319 29.2969 146.484Z" fill="#EBCD74"/>
<path d="M22.8196 193.678C22.8488 193.46 22.8715 193.461 22.7713 193.272C21.4813 190.84 21.6611 184.162 21.9572 181.423C22.1925 182.494 22.5366 184.156 23.154 185.038C30.7328 198.275 56.2305 198.377 68.1362 191.704C71.6252 189.748 72.4597 188.095 74.8713 185.402C74.986 186.762 74.9165 189.498 75.0902 190.459C75.2988 191.111 75.4484 191.784 75.8659 192.306L75.9454 192.601C75.2881 197.004 76.6835 197.868 74.7172 203.493C73.0313 205.965 71.9641 207.355 69.3761 208.986C68.7843 209.359 67.248 210.174 66.7826 210.537C56.5972 214.888 43.2657 215.388 32.9897 211.254L32.8429 211.195C29.0698 210.587 24.7166 206.512 23.1151 203.127C22.5765 201.239 21.7358 195.31 22.3836 193.786L22.8196 193.678Z" fill="#DEA98E"/>
<path d="M22.8196 193.678C22.8488 193.46 22.8715 193.461 22.7713 193.272C21.4813 190.84 21.6611 184.162 21.9572 181.423C22.1925 182.494 22.5366 184.156 23.154 185.038C30.7328 198.275 56.2305 198.377 68.1362 191.704C71.6252 189.748 72.4597 188.095 74.8713 185.402C74.986 186.762 74.9165 189.498 75.0902 190.459C74.3563 194.535 72.9985 196.906 69.4941 199.225C57.5896 207.103 33.6347 207.129 23.924 195.814C23.3927 194.972 23.2104 194.598 22.8196 193.678Z" fill="#A0B2D6"/>
<path d="M32.8438 211.195C33.2038 211.157 35.6261 211.915 36.1497 212.053C48.7107 215.347 65.7608 214.176 74.6067 203.545C74.6439 203.528 74.6811 203.511 74.718 203.493C73.0321 205.965 71.9649 207.355 69.377 208.986C68.7851 209.359 67.2488 210.174 66.7835 210.537C56.5981 214.888 43.2665 215.388 32.9905 211.254L32.8438 211.195Z" fill="#7C4237"/>
<path d="M23.1158 203.127C22.5772 201.239 21.7365 195.31 22.3844 193.786L22.8203 193.678C23.2111 194.598 23.3934 194.972 23.9247 195.814C23.5698 196.564 24.0545 199.791 23.8804 200.669C23.6072 202.047 23.1868 201.314 23.1158 203.127Z" fill="#E9BAAB"/>
<path d="M75.341 172.411L75.8148 173.712C75.9326 175.483 76.1395 180.67 75.5846 182.207C75.3622 183.256 75.1468 184.371 74.8716 185.402C72.4601 188.095 71.6255 189.748 68.1365 191.704C56.2309 198.377 30.7332 198.275 23.1544 185.038C22.8453 182.632 23.3036 182.592 23.3454 180.342C23.3612 179.49 22.0944 177.303 22.4481 176.059C23.0834 176.165 23.0566 176.368 23.5705 176.983C27.1103 183.174 36.62 185.843 43.2311 186.64C55.1009 186.591 65.3475 186.93 73.8085 177.064C74.6147 175.475 74.897 174.133 75.341 172.411Z" fill="#E2CE92"/>
<path d="M73.8088 177.064C73.5405 178.609 70.8266 180.921 69.5265 181.832C62.3679 186.848 51.6777 187.841 43.2314 186.64C55.1013 186.591 65.3479 186.93 73.8088 177.064Z" fill="#797062"/>
<path d="M75.1401 164.341C75.5953 165.898 75.5632 169.536 75.2936 171.116L75.3408 172.411C74.8968 174.133 74.6145 175.475 73.8082 177.064C65.3473 186.93 55.1006 186.591 43.2308 186.64C36.6197 185.843 27.1101 183.174 23.5703 176.983C22.0643 173.396 22.131 171.655 22.0527 167.845C23.44 168.596 24.1532 169.827 25.4041 170.89C28.8138 173.788 31.8687 174.857 35.9901 176.369C37.0517 176.458 39.3595 177.329 40.691 177.477C49.182 178.418 58.1486 177.939 65.9801 174.256C70.7206 172.026 73.4008 169.237 75.1401 164.341Z" fill="#A0B2D6"/>
<path d="M75.1403 164.341C75.5954 165.898 75.5634 169.536 75.2937 171.116C75.2839 170.075 75.371 168.651 74.9809 167.73L74.6627 167.692C73.728 168.795 72.7218 170.229 71.686 171.176C66.0504 176.328 57.8206 177.771 50.4805 178.453C46.2119 178.85 40.0626 177.669 35.9902 176.369C37.0519 176.458 39.3597 177.329 40.6912 177.477C49.1822 178.418 58.1488 177.939 65.9803 174.256C70.7208 172.026 73.4009 169.237 75.1403 164.341Z" fill="#4E7196"/>
<path d="M52.4714 168.782C56.9751 168.714 62.6729 167.193 66.7363 165.231C68.0422 164.601 69.6137 163.159 70.8584 162.704C69.9499 164.223 65.5338 166.374 63.8122 166.976C56.6213 169.489 47.1722 170.457 39.833 168.285C44.3309 168.816 47.9072 169.232 52.4714 168.782Z" fill="#6D8053"/>
<path d="M55.1676 50.2956C57.8862 49.4609 58.6535 48.8288 61.7322 48.306C63.1004 49.3974 65.7046 51.3691 66.672 52.6809C70.5287 52.6796 75.4917 55.2865 77.5815 58.5415C81.5232 61.1036 83.2784 63.5849 84.2481 68.2419C84.2897 68.4428 84.3273 68.6447 84.3607 68.8473C81.3999 70.3981 76.6139 72.2636 73.417 73.5222L70.7805 70.9325C69.8102 70.0595 69.0322 69.3744 68.158 68.3958L67.2298 67.9594L66.9125 68.0986C66.6598 69.6059 66.7428 75.0396 66.7322 76.8772C70.4581 76.8187 74.2691 78.8368 76.8764 81.4279C80.6453 84.0441 83.5516 85.8777 84.4349 90.9141C85.3712 96.2532 83.5716 100.682 81.0926 105.279C78.3622 108.97 74.7395 112.444 70.5921 114.487C69.2818 115.013 67.9263 115.48 66.5952 115.956C66.7197 118.13 66.7598 120.444 66.8359 122.631C64.4962 123.368 62.426 124.028 60.0278 124.583C58.4538 123.155 56.5087 121.869 55.1249 120.268C54.7194 119.799 54.7196 118.606 54.4375 118.376C54.3509 118.306 49.937 117.65 49.1833 117.358C46.9095 116.477 45.0973 114.979 43.331 113.339C39.029 110.578 34.8191 106.635 35.4739 100.94C39.0046 99.6004 42.5178 97.8797 46.4286 96.4645C47.9393 98.0051 49.8786 98.9783 51.3027 100.608C52.7999 102.263 52.5403 103.25 53.3463 104.393C53.9272 104.07 54.5141 103.653 54.6172 102.965C55.0084 100.357 54.7858 97.4455 54.8125 94.7995C54.8158 94.6797 54.8194 94.5599 54.8227 94.4401C54.8247 94.3931 54.7314 93.7483 54.7299 93.7472C54.3215 93.4517 52.7351 93.1621 52.3677 93.0859C48.4033 92.2657 47.2159 91.6137 44.4374 88.8889C41.7806 87.6026 39.0852 85.0692 38.1458 82.2561C36.6782 77.8625 37.6103 72.0253 39.6311 67.9621C42.964 61.261 47.9999 57.633 54.9354 55.2223C54.9207 54.0002 54.7034 51.2125 55.1676 50.2956Z" fill="#D1B26E"/>
<path d="M55.1678 50.2956C57.8865 49.4609 58.6537 48.8288 61.7324 48.306C63.1006 49.3974 65.7048 51.3691 66.6723 52.6809L66.6791 52.9414C64.9093 53.6735 61.7237 54.4177 60.5735 55.1221C61.0413 56.7629 60.6503 58.4927 60.5496 60.1246C58.9588 60.9638 57.2699 61.8225 55.7583 62.704C48.1628 67.1324 41.7621 76.0126 43.5258 85.1513C43.754 86.3341 44.5611 87.6852 44.4376 88.8889C41.7808 87.6026 39.0854 85.0692 38.146 82.2561C36.6784 77.8625 37.6105 72.0253 39.6313 67.9621C42.9643 61.261 48.0001 57.633 54.9356 55.2223C54.9209 54.0002 54.7036 51.2125 55.1678 50.2956Z" fill="#E2CE92"/>
<path d="M55.168 50.2956C57.8866 49.4609 58.6539 48.8288 61.7325 48.306C63.1008 49.3974 65.705 51.3691 66.6724 52.6809L66.6793 52.9414C64.9094 53.6735 61.7239 54.4177 60.5736 55.1221C59.7378 54.8004 56.3623 51.2063 55.168 50.2956Z" fill="#E2CE92"/>
<path d="M55.1678 50.2956C56.3622 51.2063 59.7376 54.8004 60.5735 55.1221C61.0413 56.7629 60.6503 58.4927 60.5497 60.1245C60.453 60.0711 60.3566 60.0177 60.26 59.964C58.7517 58.7748 55.4232 57.0194 54.9356 55.2223C54.9209 54.0001 54.7036 51.2125 55.1678 50.2956Z" fill="#EBCD74"/>
<path d="M46.4286 96.4645C47.9393 98.005 49.8786 98.9783 51.3027 100.608C51.1391 100.895 50.9358 101.252 50.6927 101.679C47.7242 103.619 44.2274 103.775 41.3952 106.083C41.6778 107.612 43.3239 112.604 43.331 113.339C39.029 110.578 34.8191 106.635 35.4739 100.94C39.0046 99.6004 42.5178 97.8797 46.4286 96.4645Z" fill="#E2CE92"/>
<path d="M66.6729 52.6809C70.5295 52.6796 75.4925 55.2864 77.5823 58.5414C76.9901 58.4991 76.3969 58.3782 75.8091 58.2936C72.9017 57.8753 69.9566 58.0296 67.03 58.101C66.9351 56.6348 66.9645 54.2929 66.6797 52.9414L66.6729 52.6809Z" fill="#E2CE92"/>
<path d="M66.7324 76.8772C70.4584 76.8187 74.2693 78.8368 76.8766 81.4279C74.9061 81.9743 70.1555 79.375 67.0513 78.7985C66.6569 78.3134 66.7482 77.5581 66.7324 76.8772Z" fill="#E2CE92"/>
<path d="M57.1855 102.848C58.8998 103.844 60.2335 105.676 59.8683 107.744C59.6777 107.95 59.5054 108.156 59.2894 108.334C57.7108 107.983 55.5875 107.156 54.501 105.938C55.1681 105.956 55.8133 106.046 56.3786 105.701C56.6496 104.829 55.8438 104.882 55.7993 103.624C56.3023 103.021 56.3343 103.155 57.1855 102.848Z" fill="#EBB754"/>
<path d="M54.8129 94.7994C56.0731 96.6197 54.2284 101.252 55.7095 102.686C56.1455 102.748 56.7669 102.865 57.1859 102.848C56.3347 103.155 56.3027 103.021 55.7997 103.624C55.8442 104.882 56.65 104.829 56.379 105.701C55.8137 106.046 55.1685 105.956 54.5014 105.938L54.2208 105.734L53.3467 104.393C53.9276 104.07 54.5145 103.653 54.6176 102.965C55.0088 100.357 54.7862 97.4455 54.8129 94.7994Z" fill="#EBCD74"/>
<path d="M68.1582 68.3958C70.3678 67.439 72.2557 68.8482 70.7807 70.9325C69.8103 70.0595 69.0324 69.3743 68.1582 68.3958Z" fill="#E9BAAB"/>
<path d="M54.2207 105.734L54.5012 105.938C55.5878 107.156 57.7111 107.983 59.2897 108.334C56.4148 108.896 55.2191 108.604 54.2207 105.734Z" fill="#D4A85E"/>
<path d="M55.7559 73.3038C56.0064 73.0406 56.2584 72.7792 56.5122 72.5191C57.292 71.718 58.8085 69.7887 59.8309 70.94C60.0527 71.7343 59.6533 75.1943 59.5181 76.16C59.4756 77.6146 59.6815 79.9124 59.5328 80.9912L59.2393 81.2461L58.4687 81.1568C58.1628 80.5559 57.2479 79.6031 56.7574 79.0055L56.1221 78.0336C55.5312 77.4979 55.3444 77.3879 55.1514 76.6089C55.2157 75.3453 55.4555 74.5152 55.7559 73.3038Z" fill="#D78D4D"/>
<path d="M56.1221 78.0337C57.2175 77.3406 56.8902 76.4143 57.959 75.6419C58.5793 75.5134 58.9725 75.8394 59.518 76.16C59.4755 77.6147 59.6815 79.9125 59.5327 80.9912L59.2393 81.2462L58.4686 81.1569C58.1627 80.5559 57.2478 79.6032 56.7573 79.0056L56.1221 78.0337Z" fill="#BA6834"/>
<path d="M69.666 100.537C69.8219 98.9571 69.4572 95.0546 71.207 94.8335C72.9469 95.141 73.324 97.2132 73.0537 98.6814C72.7848 100.141 71.9131 101.281 70.932 102.343L70.1109 102.311C69.5594 101.806 69.7375 101.537 69.666 100.537Z" fill="#D78D4D"/>
<path d="M54.4811 78.1621C53.7878 77.5592 53.8078 77.5757 53.6709 76.8039C53.9742 76.0327 53.7709 76.2722 54.4003 75.8392L54.8804 75.9314L55.0625 76.5808L55.1511 76.6089C55.3442 77.388 55.531 77.498 56.1219 78.0337L56.7571 79.0056C57.2477 79.6032 58.1625 80.5559 58.4685 81.1569C56.0651 81.5022 54.4546 81.0754 54.1908 78.4347L54.4811 78.1621Z" fill="#D78D4D"/>
<path d="M54.4811 78.1621C53.7878 77.5592 53.8078 77.5757 53.6709 76.8039C53.9742 76.0327 53.7709 76.2722 54.4003 75.8392L54.8804 75.9314L55.0625 76.5808L55.1511 76.6089C55.3442 77.388 55.531 77.498 56.1219 78.0337L56.7571 79.0056C56.003 79.4239 54.9343 78.7664 54.1908 78.4347L54.4811 78.1621Z" fill="#D4A85E"/>
<path d="M54.4811 78.1621C53.7878 77.5592 53.8078 77.5757 53.6709 76.8039C53.9742 76.0327 53.7709 76.2722 54.4003 75.8392L54.8804 75.9314L55.0625 76.5808C54.9418 77.349 54.9423 77.522 54.4811 78.1621Z" fill="#E2CE92"/>
<path d="M70.9317 102.343C70.2459 103.09 67.6814 106.151 66.8914 106.196C66.0978 104.156 68.3765 103.749 69.3281 102.304C69.4495 102.12 69.6254 100.842 69.6657 100.537C69.7372 101.537 69.559 101.806 70.1106 102.311L70.9317 102.343Z" fill="#D4A85E"/>
<path d="M66.8354 93.3466C67.1286 93.3825 67.3306 93.4876 67.6015 93.6007C68.0037 94.7186 67.8258 101.1 67.4668 102.286L67.1413 101.936C66.9607 101.167 66.7733 94.3664 66.8354 93.3466Z" fill="#E2CE92"/>
<path d="M220.068 94.1522C220.98 94.2729 220.712 94.1139 221.355 94.6882C222.097 96.1744 221.221 105.463 221.061 107.823C219.93 107.256 218.792 106.796 217.959 105.839L217.465 105.578C216.107 107.379 211.72 114.117 210.787 116.1C211.224 118.936 211.086 125.784 211.08 128.876C210.134 129.307 206.482 130.816 206.056 131.542L206.028 132.043C205.96 133.876 206.147 139.388 205.71 140.706C204.617 140.428 204.369 140.249 203.401 139.643C200.775 138.663 201.95 137.817 199.133 139.219C198.22 139.901 195.796 140.74 194.694 140.931C194.204 141.937 193.492 142.027 193.186 142.567C192.413 143.555 190.745 144.209 189.532 144.118C187.842 144.331 187.283 144.685 185.749 145.371C184.036 146.158 182.636 146.913 180.982 147.825L181.006 148.005L180.792 148.47L180.384 148.333C180.168 148.554 179.536 149.469 179.422 149.517C177.909 150.156 176.328 150.565 174.708 150.829C174.098 150.56 173.847 150.445 173.269 150.066C172.106 149.343 171.529 149.838 170.344 150.306C168.906 151.089 167.328 152.133 165.701 152.514C165.041 153.132 164.264 153.472 163.882 154.061C164.067 155.236 164.119 156.725 164.088 157.917L163.539 156.649L162.967 157.235C160.847 157.725 159.317 157.208 157.303 156.835L156.86 156.618C154.63 155.73 151.913 154.056 149.828 152.786C149.837 145.422 149.583 136.194 149.933 129.026C152.465 130.192 155.15 131.898 157.497 133.424C160.4 131.694 162.555 130.648 165.571 129.111L165.58 128.811C165.247 128.298 164.94 128.136 164.445 127.798L163.919 127.575C163.813 126.755 163.694 126.266 163.926 125.47C165.199 123.995 169.972 121.906 171.87 121.082C173.713 122.028 177.674 124.146 179.315 125.379C179.762 126.25 179.669 126.974 179.651 127.947C180.257 127.598 182.8 124.871 183.412 124.24C184.765 124.777 186.106 125.342 187.436 125.934C188.351 126.236 189.016 126.422 189.955 126.638C190.862 126.71 191.529 126.805 192.425 127.021C193.392 127.254 195.039 128.504 195.801 128.233L195.984 127.797C195.771 122.684 196.016 117.389 195.93 112.255C195.886 109.691 195.883 106.935 196.024 104.391C197.138 103.356 201.239 101.068 202.844 100.697C205.276 100.135 208.988 102.948 211.065 104.325C211.636 103.794 212.341 103.008 212.895 102.428L209.814 99.8197C212.201 98.168 217.405 95.0974 220.068 94.1522Z" fill="#CF826C"/>
<path d="M220.068 94.1522C220.98 94.2729 220.713 94.1139 221.356 94.6882C222.097 96.1744 221.222 105.463 221.061 107.823C219.93 107.256 218.792 106.796 217.96 105.839L217.466 105.578C216.653 104.918 216.068 104.515 215.189 103.94C212.161 108.844 209.037 113.779 205.944 118.643C203.49 122.501 201.238 126.388 198.538 130.073C195.619 128.858 192.253 128.193 189.955 126.638C190.863 126.71 191.529 126.805 192.426 127.021C193.393 127.254 195.039 128.504 195.801 128.233L195.984 127.797C195.772 122.684 196.017 117.389 195.93 112.255C195.887 109.691 195.883 106.935 196.024 104.391C197.138 103.356 201.24 101.068 202.844 100.697C205.277 100.135 208.989 102.948 211.066 104.325C211.636 103.794 212.342 103.008 212.896 102.428L209.814 99.8197C212.202 98.168 217.405 95.0974 220.068 94.1522Z" fill="#E9BAAB"/>
<path d="M196.024 104.391C197.164 105.298 202.225 108.444 203.448 108.829C203.625 111.505 203.106 114.676 203.267 116.654C202.49 118.393 197.313 126.305 195.984 127.797C195.771 122.684 196.016 117.389 195.93 112.255C195.886 109.691 195.883 106.935 196.024 104.391Z" fill="#A5CCB7"/>
<path d="M196.023 104.391C197.138 103.356 201.239 101.068 202.843 100.697C205.276 100.135 208.988 102.948 211.065 104.325L210.633 104.975C209.094 105.761 204.434 107.859 203.448 108.829C202.225 108.444 197.164 105.298 196.023 104.391Z" fill="#BFE2D3"/>
<path d="M220.068 94.1522C220.98 94.2729 220.713 94.1139 221.356 94.6882C222.097 96.1744 221.222 105.463 221.061 107.823C219.93 107.256 218.792 106.796 217.96 105.839C218.732 104.247 219.741 96.4022 220.068 94.1522Z" fill="#CC8D72"/>
<path d="M210.634 104.975C208.783 108.961 205.453 112.893 203.268 116.654C203.107 114.676 203.625 111.505 203.449 108.829C204.435 107.859 209.095 105.762 210.634 104.975Z" fill="#8AB199"/>
<path d="M149.933 129.026C152.465 130.192 155.15 131.898 157.497 133.424C160.4 131.694 162.555 130.648 165.571 129.111C165.6 131.018 165.489 142.047 166.007 143.147C165.429 143.876 165.058 144.102 164.93 144.923C165.131 145.358 165.775 146.451 165.831 146.741L165.654 147.646C165.666 149.196 165.635 150.985 165.701 152.514C165.041 153.132 164.264 153.472 163.882 154.061C164.067 155.236 164.119 156.725 164.088 157.917L163.539 156.649L162.967 157.235C160.847 157.725 159.317 157.208 157.303 156.835L156.86 156.618C154.63 155.73 151.913 154.056 149.828 152.786C149.837 145.422 149.583 136.194 149.933 129.026Z" fill="#88AE89"/>
<path d="M149.933 129.026C152.465 130.192 155.15 131.898 157.497 133.424C157.668 135.021 157.628 136.688 157.581 138.296C157.42 143.805 157.685 149.306 157.638 154.813C157.63 155.776 157.54 155.971 156.86 156.618C154.63 155.73 151.913 154.056 149.828 152.786C149.837 145.422 149.583 136.194 149.933 129.026Z" fill="#A5CCB7"/>
<path d="M163.882 154.061C164.067 155.236 164.119 156.725 164.088 157.917L163.539 156.649L162.968 157.235C160.847 157.725 159.318 157.208 157.303 156.835C160.05 156.486 161.544 155.394 163.882 154.061Z" fill="#C2BAB3"/>
<path d="M171.869 121.082C173.712 122.028 177.674 124.146 179.315 125.379C179.762 126.25 179.669 126.974 179.65 127.947C177.721 130.391 175.047 133.103 172.883 135.483C171.09 137.455 167.861 141.545 166.007 143.147C165.489 142.047 165.599 131.018 165.571 129.111L165.58 128.811C165.247 128.298 164.94 128.136 164.444 127.798L163.918 127.575C163.813 126.755 163.693 126.266 163.926 125.47C165.199 123.995 169.972 121.906 171.869 121.082Z" fill="#8391B6"/>
<path d="M171.869 121.082C173.712 122.028 177.674 124.146 179.315 125.379C176.656 126.998 173.902 127.829 171.307 129.809C169.093 128.544 166.825 127.18 164.488 126.174L164.214 126.255C164.281 126.682 164.417 127.393 164.444 127.798L163.918 127.575C163.813 126.755 163.693 126.266 163.926 125.47C165.199 123.995 169.972 121.906 171.869 121.082Z" fill="#B6C8E6"/>
<path d="M193.934 132.82C194.152 132.852 194.849 132.972 195.025 132.974L195.845 133.383C195.729 134.887 195.805 135.556 196.05 137.036C197.033 137.812 198.371 138.593 199.133 139.219C198.22 139.901 195.797 140.74 194.694 140.931C194.204 141.937 193.492 142.027 193.186 142.567C192.413 143.555 190.745 144.209 189.532 144.118C187.843 144.331 187.283 144.685 185.749 145.371C184.036 146.158 182.637 146.913 180.983 147.825C180.674 147.359 180.171 146.796 179.803 146.355C179.61 145.341 179.573 142.692 179.53 141.542C179.635 140.001 179.692 138.457 179.701 136.912C179.847 136.681 180.755 135.676 180.989 135.408C181.097 135.119 181.658 134.647 181.911 134.406C182.673 134.62 185.322 136.303 186.296 136.84C187.617 136.104 193.312 133.495 193.934 132.82Z" fill="#D1B26E"/>
<path d="M179.53 141.542C180.666 142.209 182.288 143.229 183.421 143.805C184.139 144.278 185.083 144.861 185.749 145.371C184.036 146.158 182.637 146.913 180.983 147.825C180.674 147.359 180.171 146.796 179.803 146.355C179.61 145.341 179.573 142.692 179.53 141.542Z" fill="#D8D2C9"/>
<path d="M194.693 140.93C194.544 139.432 194.454 134.104 195.025 132.974L195.844 133.383C195.728 134.887 195.804 135.556 196.049 137.036C197.032 137.812 198.37 138.593 199.132 139.219C198.22 139.901 195.796 140.74 194.693 140.93Z" fill="#E9E9E8"/>
<path d="M180.989 135.408C180.966 136.348 181.552 140.389 180.991 140.795C180.869 140.883 180.788 140.917 180.658 140.98C180.69 142.307 182.649 142.292 183.421 143.805C182.288 143.229 180.666 142.209 179.53 141.542C179.635 140.001 179.692 138.457 179.701 136.912C179.847 136.681 180.755 135.676 180.989 135.408Z" fill="#E2CE92"/>
<path d="M203.285 127.786C204.155 126.114 209.685 117.556 210.787 116.1C211.224 118.936 211.085 125.784 211.08 128.876C210.134 129.307 206.482 130.816 206.055 131.542L206.028 132.042C205.96 133.876 206.147 139.387 205.71 140.706C204.617 140.428 204.369 140.248 203.401 139.643C200.775 138.662 201.95 137.817 199.132 139.219C198.37 138.593 197.032 137.812 196.049 137.036C195.804 135.556 195.728 134.887 195.844 133.383C196.868 133.542 197.843 133.917 198.824 134.254C200.365 132.429 201.956 129.828 203.285 127.786Z" fill="#8AB199"/>
<path d="M203.285 127.786C203.276 130.548 203.289 133.311 203.324 136.072C203.331 136.63 203.434 139.304 203.401 139.643C200.775 138.663 201.95 137.817 199.132 139.219C198.37 138.593 197.032 137.812 196.049 137.036C195.804 135.556 195.728 134.887 195.844 133.383C196.868 133.542 197.843 133.917 198.824 134.254C200.365 132.429 201.956 129.828 203.285 127.786Z" fill="#A5CCB7"/>
<path d="M179.702 136.912C179.692 138.457 179.635 140.001 179.53 141.542C179.573 142.692 179.61 145.341 179.804 146.355C180.171 146.796 180.674 147.359 180.983 147.825L181.007 148.005L180.793 148.47L180.385 148.332C180.169 148.554 179.536 149.469 179.422 149.517C177.91 150.156 176.328 150.565 174.709 150.829C174.099 150.56 173.848 150.445 173.27 150.066C172.107 149.343 171.53 149.838 170.344 150.306C168.906 151.089 167.328 152.133 165.701 152.514C165.636 150.985 165.667 149.196 165.654 147.646L165.832 146.741L166.722 147.057L168.89 148.413C172.51 144.921 176.045 140.573 179.702 136.912Z" fill="#8391B6"/>
<path d="M179.804 146.355C180.171 146.796 180.674 147.359 180.983 147.825L181.007 148.005L180.793 148.47L180.385 148.333C180.169 148.554 179.536 149.469 179.422 149.517C177.909 150.156 176.328 150.565 174.709 150.829C174.098 150.56 173.848 150.445 173.27 150.066C174.826 149.247 179.253 147.767 179.804 146.355Z" fill="#C2BAB3"/>
<path d="M165.654 147.646C166.496 148.155 169.492 149.992 170.344 150.306C168.906 151.089 167.328 152.133 165.701 152.514C165.636 150.985 165.667 149.196 165.654 147.646Z" fill="#D8D2C9"/>
<path d="M183.411 124.24C184.764 124.777 186.106 125.342 187.436 125.934C187.031 125.959 186.072 126.021 185.785 126.294C181.131 130.723 177.066 135.784 172.647 140.466C170.612 142.622 169.25 144.68 166.778 146.543L166.721 147.057L165.831 146.741C165.775 146.451 165.13 145.358 164.93 144.923C165.058 144.102 165.428 143.876 166.007 143.147C167.861 141.545 171.089 137.455 172.883 135.483C175.047 133.103 177.721 130.391 179.65 127.947C180.257 127.598 182.8 124.871 183.411 124.24Z" fill="#E9BAAB"/>
<path d="M181.911 134.406C183.07 133.146 184.412 131.438 185.526 130.097C188.277 131.046 191.156 131.917 193.934 132.82C193.312 133.495 187.617 136.104 186.296 136.84C185.322 136.303 182.673 134.62 181.911 134.406Z" fill="#E2CE92"/>
<path d="M126.77 158.607C128.096 160.092 130.902 162.107 132.642 163.079C140.788 167.628 149.028 172.057 157.123 176.703C164.885 181.158 172.431 186.006 180.568 189.741C181.988 190.393 184.091 190.547 185.622 190.791C190.33 191.42 195.978 190.619 200.358 188.768C204.583 186.983 208.812 184.684 212.905 182.576L229.249 174.263L244.888 166.226C248.812 164.196 255.808 161.278 257.974 157.135C258.84 155.477 257.166 152.894 256.476 151.224C260.009 154.972 258.629 155.841 260.412 159.285C263.12 162.744 263.743 164.456 259.611 167.003C248.979 173.557 237.309 178.669 226.279 184.541C220.645 187.54 215.12 190.358 209.389 193.134C206.88 194.304 203.258 196.248 200.712 197.091C200.322 196.86 199.366 196.324 199.073 196.063C188.03 200.007 179.117 194.861 169.7 189.64C165.573 187.352 161.343 185.238 157.237 182.875C152.408 180.364 147.595 177.821 142.799 175.248C138.437 172.918 134.267 170.886 130.256 167.96C129.243 167.298 128.884 166.858 128.076 165.981C126.658 165.166 126.708 160.111 126.77 158.607Z" fill="#CCCAC4"/>
<path d="M259.016 162.13C259.009 161.421 259.218 160.986 259.731 160.538C260.379 159.969 260.138 159.96 260.412 159.285C263.119 162.744 263.743 164.456 259.61 167.003C248.979 173.557 237.309 178.669 226.279 184.541C220.645 187.54 215.12 190.358 209.389 193.134C206.88 194.304 203.258 196.248 200.712 197.091C200.322 196.86 199.366 196.324 199.073 196.063C202.155 194.821 205.033 193.233 208.003 191.742L225.136 182.998L241.825 174.502C245.454 172.673 259.858 166.372 259.479 161.839L259.016 162.13Z" fill="#C2BAB3"/>
<path d="M259.016 162.13L259.479 161.839C259.857 166.372 245.454 172.673 241.824 174.502L225.136 182.998L208.003 191.742C205.033 193.233 202.154 194.821 199.073 196.063C188.03 200.007 179.117 194.861 169.7 189.64C165.573 187.352 161.343 185.238 157.236 182.875L157.398 182.414C166.571 186.605 175.136 193.58 185.11 196.067C194.517 198.413 202.241 193.926 210.38 189.824L229.714 179.864C237.959 175.624 246.6 171.605 254.591 166.925C256.155 166.008 258.61 163.946 259.016 162.13Z" fill="#635350"/>
<path d="M130.423 167.365C138.633 172.65 148.956 177.255 157.399 182.415L157.237 182.875C152.408 180.364 147.595 177.822 142.799 175.248C138.438 172.918 134.267 170.886 130.256 167.96L130.423 167.365Z" fill="#635350"/>
<path d="M128.075 165.981C129.124 166.344 129.549 166.713 130.423 167.364L130.255 167.96C129.242 167.298 128.883 166.858 128.075 165.981Z" fill="#918A89"/>
<path d="M218.944 116.331C220.7 115.287 224.978 113.424 226.94 112.51C229.057 113.418 232.246 115.208 234.194 116.394C234.953 117.296 234.541 123.601 234.521 125.231L234.466 140.478C234.461 143.046 234.35 147.012 234.541 149.481C235.421 149.536 237.333 151.4 238.727 152.066L238.669 152.33C237.213 151.742 236.739 151.363 235.481 150.449C233.882 153.269 233.519 153.795 230.017 154.762L229.712 154.844L230.556 154.854C229.164 155.35 227.839 155.62 226.699 154.384C225.096 154.151 224.043 152.752 222.441 152.462C222.217 152.74 222.281 154.661 222.252 155.247L222.562 155.528C223.081 155.455 223.333 155.485 223.689 155.14C223.805 155.511 223.956 155.931 224.072 156.293C224.357 157.182 226.185 157.827 225.804 158.762C225.539 159.469 224.602 159.868 223.927 160.119C221.179 161.143 218.021 161.826 215.097 161.462C215.062 161.458 213.938 160.925 213.809 160.864L213.829 160.55C212.189 159.883 210.451 158.899 208.875 158.054C208.996 156.694 209.02 154.932 209.079 153.539C208.966 151.575 209.398 143.41 208.68 142.518L208.591 142.262C207.598 141.764 206.677 141.248 205.71 140.706C206.146 139.387 205.96 133.876 206.028 132.042L206.055 131.542C206.482 130.816 210.134 129.307 211.08 128.876C212.014 128.452 212.974 127.995 213.933 127.638C215.63 128.474 217.316 129.333 218.989 130.215C219.103 127.729 219.051 124.985 219.054 122.479C218.847 120.849 218.898 117.978 218.944 116.331Z" fill="#8391B9"/>
<path d="M213.933 127.638C215.63 128.474 217.316 129.333 218.989 130.215C219.461 130.444 221.162 131.306 221.563 131.396L221.749 132.043C222.151 133.616 222.048 149.638 221.883 151.612C223.693 152.434 224.976 153.149 226.706 154.145L226.699 154.384C225.096 154.151 224.043 152.752 222.441 152.462C222.217 152.74 222.281 154.661 222.252 155.247L222.562 155.528C223.081 155.455 223.333 155.485 223.689 155.14C223.805 155.511 223.956 155.931 224.072 156.293C224.357 157.182 226.185 157.827 225.804 158.762C225.539 159.469 224.602 159.868 223.927 160.119C221.179 161.143 218.021 161.826 215.097 161.462C215.062 161.458 213.938 160.926 213.809 160.864L213.829 160.55C212.189 159.883 210.451 158.899 208.875 158.054C208.996 156.694 209.02 154.932 209.079 153.539C208.966 151.575 209.398 143.41 208.68 142.518L208.591 142.262C207.598 141.764 206.677 141.248 205.71 140.706C206.146 139.388 205.96 133.876 206.028 132.043L206.055 131.542C206.482 130.816 210.134 129.307 211.08 128.876C212.014 128.452 212.974 127.995 213.933 127.638Z" fill="#D1B26E"/>
<path d="M213.933 127.638C215.631 128.474 217.316 129.333 218.99 130.215C219.461 130.444 221.162 131.306 221.563 131.396L221.749 132.043C220.308 132.37 214.63 134.929 213.847 135.894L213.592 136.103C213.459 136.111 213.301 136.12 213.118 136.131C212.157 135.295 206.534 132.48 206.028 132.043L206.055 131.542C206.482 130.816 210.134 129.307 211.08 128.876C212.014 128.452 212.974 127.995 213.933 127.638Z" fill="#E2CE92"/>
<path d="M206.028 132.042C206.534 132.48 212.157 135.295 213.118 136.131C213.301 136.12 213.459 136.111 213.591 136.103L213.847 135.894C213.828 139.048 213.864 142.369 213.631 145.497C212.548 144.469 209.974 141.511 208.591 142.262C207.598 141.764 206.677 141.248 205.71 140.706C206.146 139.387 205.96 133.876 206.028 132.042Z" fill="#E2CE92"/>
<path d="M221.833 154.967C221.784 153.814 221.695 152.756 221.884 151.612C223.694 152.434 224.976 153.149 226.706 154.145L226.7 154.384C225.097 154.151 224.044 152.752 222.441 152.462C222.218 152.74 222.281 154.661 222.252 155.247L222.562 155.528C223.082 155.455 223.333 155.485 223.689 155.14C223.805 155.511 223.957 155.931 224.072 156.293C224.357 157.182 226.185 157.827 225.805 158.762C225.54 159.469 224.602 159.868 223.928 160.119C221.18 161.143 218.022 161.826 215.097 161.462C215.063 161.458 213.938 160.925 213.81 160.864L213.829 160.55C214.917 160.492 220.656 157.313 221.786 156.572C222.087 155.855 221.949 155.856 221.833 154.967Z" fill="#C2BAB3"/>
<path d="M209.079 153.539C209.636 151.544 209.024 148.455 209.468 147.037C209.656 150.246 207.654 160.141 213.105 159.606C215.414 159.38 219.213 155.272 221.833 154.967C221.949 155.856 222.088 155.855 221.786 156.572C220.656 157.313 214.917 160.492 213.829 160.55C212.19 159.883 210.452 158.899 208.876 158.054C208.996 156.694 209.02 154.932 209.079 153.539Z" fill="#B8934D"/>
<path d="M218.945 116.331C220.701 115.287 224.979 113.424 226.94 112.51C229.058 113.418 232.246 115.208 234.194 116.394C232.395 118.041 228.281 119.194 226.513 121.103C226.671 122.341 226.562 132.582 226.288 133.648L225.994 133.982C224.569 133.654 223.721 130.7 221.564 131.396C221.162 131.306 219.462 130.444 218.99 130.215C219.104 127.729 219.052 124.985 219.055 122.479C218.848 120.849 218.898 117.978 218.945 116.331Z" fill="#A0B2D6"/>
<path d="M218.945 116.331C220.701 115.287 224.979 113.424 226.94 112.51C229.058 113.418 232.246 115.208 234.194 116.394C232.395 118.041 228.281 119.194 226.513 121.103L226.125 121.288C224.796 120.699 221.306 118.084 219.103 117.183C219.112 118.576 219.199 121.191 219.055 122.479C218.848 120.849 218.898 117.978 218.945 116.331Z" fill="#B6C8E6"/>
<path d="M234.541 149.481C235.421 149.536 237.333 151.4 238.727 152.066L238.669 152.331C237.213 151.742 236.739 151.364 235.481 150.45C233.882 153.269 233.519 153.795 230.017 154.762L229.712 154.844L230.556 154.854C229.164 155.35 227.839 155.62 226.699 154.384L226.706 154.145L228.476 153.078C230.224 152.334 233.054 151.239 234.256 149.851L234.541 149.481Z" fill="#C2BAB3"/>
<path d="M228.476 153.077L228.392 152.88L228.67 152.545C229.955 152.155 232.052 150.667 232.876 150.61C232.208 150.382 230.999 150.841 230.244 151.049L229.932 150.863L230.133 150.497C231.544 149.956 232.511 148.848 233.96 149.427L233.942 149.308L234.138 149.305L234.256 149.851C233.054 151.239 230.224 152.334 228.476 153.077Z" fill="#8391B6"/>
<path d="M208.681 142.518C209.399 143.41 208.967 151.575 209.079 153.539C209.02 154.932 208.996 156.694 208.876 158.054C210.452 158.899 212.19 159.883 213.829 160.55L213.81 160.864C212.192 161.019 210.099 158.642 209.072 159.148L209.085 159.304C209.141 160.06 208.986 160.705 209.069 161.23C209.259 162.428 211.046 162.978 211.273 164.081L211.052 164.257C210.925 164.218 210.83 164.185 210.699 164.157C210.433 164.548 210.427 164.633 210.29 165.092L209.91 165.066C209.892 164.501 209.933 164.445 210.119 163.899C209.524 164.189 208.742 165.008 208.302 165.467C205.116 168.793 204.132 168.395 199.939 167.241C198.377 166.812 197.492 165.482 196.69 165.499C196.175 166.558 196.874 168.594 196.885 169.641C196.898 170.797 191.664 173.174 190.878 173.138C189.631 173.495 188.988 173.85 187.707 173.728C187.059 173.093 181.587 170.331 180.514 169.786L180.537 167.12C180.234 166.009 180.497 165.063 179.895 163.948C179.093 163.66 176.087 164.756 174.999 165.07L174.727 164.894C176.019 163.938 177.753 164.764 179.881 162.077L179.792 161.915C178.129 162.101 176.407 163.8 174.466 164.511L174.2 164.207L172.709 164.647C171.625 165.084 164.262 161.142 164.133 159.779C164.072 159.17 164.089 158.532 164.088 157.917C164.119 156.725 164.067 155.236 163.882 154.061C164.265 153.472 165.041 153.132 165.701 152.514C167.328 152.133 168.906 151.089 170.344 150.306C171.529 149.838 172.106 149.343 173.269 150.066C173.847 150.445 174.098 150.56 174.709 150.829C176.328 150.565 177.909 150.156 179.422 149.517C179.536 149.469 180.168 148.554 180.384 148.332L180.793 148.47L181.007 148.005L180.983 147.825C182.637 146.913 184.036 146.158 185.749 145.371C187.283 144.685 187.843 144.331 189.532 144.118C190.745 144.209 192.413 143.555 193.186 142.567L192.985 143.371C195.423 143.276 199.413 146.995 200.802 146.835C201.521 146.001 207.382 143.137 208.681 142.518Z" fill="#CC8D72"/>
<path d="M208.68 142.518C209.398 143.41 208.966 151.575 209.079 153.539C209.02 154.932 208.996 156.694 208.875 158.054C210.451 158.899 212.189 159.883 213.829 160.55L213.809 160.864C212.192 161.019 210.098 158.642 209.071 159.148L209.084 159.304C209.141 160.06 208.985 160.705 209.068 161.23C209.258 162.428 211.045 162.978 211.273 164.081L211.051 164.257C210.925 164.218 210.829 164.185 210.699 164.157C210.433 164.548 210.426 164.633 210.29 165.092L209.909 165.066C209.892 164.501 209.933 164.445 210.118 163.899C209.524 164.189 208.742 165.008 208.302 165.467C205.116 168.793 204.131 168.395 199.938 167.241C198.376 166.812 197.491 165.482 196.689 165.499C196.175 166.558 196.873 168.594 196.885 169.641C196.897 170.797 191.663 173.174 190.878 173.138L191.097 172.675C192.598 171.919 194.621 171.351 195.931 170.241C196.454 169.798 196.328 169.561 196.35 168.863C196.169 167.632 196.138 165.864 196.295 164.635L196.409 164.235C196.378 162.62 196.6 157.844 195.777 156.717L195.575 156.746C195.007 156.079 193.851 155.514 193.058 155.064C193.054 153.991 193.2 151.054 192.775 150.313C193.614 149.468 193.339 147.562 193.307 146.406C193.324 145.072 193.263 144.681 192.984 143.371C195.422 143.276 199.412 146.995 200.802 146.835C201.52 146.001 207.381 143.137 208.68 142.518Z" fill="#8AB199"/>
<path d="M192.984 143.371C195.423 143.276 199.412 146.995 200.802 146.835C201.08 148.518 201.259 157.328 200.493 158.591L199.981 158.725C198.847 157.248 197.727 155.74 195.778 156.717L195.575 156.746C195.008 156.079 193.851 155.514 193.058 155.064C193.054 153.991 193.2 151.054 192.775 150.313C193.615 149.468 193.339 147.562 193.308 146.406C193.325 145.072 193.264 144.681 192.984 143.371Z" fill="#A5CCB7"/>
<path d="M208.875 158.054C210.451 158.899 212.189 159.883 213.829 160.55L213.809 160.864C212.192 161.019 210.098 158.642 209.071 159.148L209.084 159.304C209.141 160.06 208.985 160.705 209.068 161.23C209.258 162.428 211.045 162.978 211.273 164.081L211.051 164.257C210.925 164.218 210.829 164.185 210.699 164.157C210.433 164.548 210.426 164.633 210.29 165.093L209.909 165.066C209.892 164.501 209.933 164.445 210.118 163.899C209.524 164.189 208.742 165.008 208.302 165.467C205.116 168.793 204.131 168.395 199.938 167.241C198.376 166.812 197.491 165.482 196.689 165.499C196.175 166.558 196.873 168.594 196.885 169.641C196.897 170.797 191.663 173.174 190.878 173.138L191.097 172.675C192.598 171.919 194.621 171.351 195.931 170.241C196.454 169.798 196.328 169.561 196.35 168.863C196.169 167.632 196.138 165.864 196.295 164.635C197.482 165.282 200.294 167.568 201.439 166.913C202.505 166.495 208.037 163.734 208.888 163.173C208.589 161.264 208.695 159.94 208.875 158.054Z" fill="#C2BAB3"/>
<path d="M201.44 166.913C201.242 166.634 201.304 166.72 201.211 166.374C202.466 164.757 205.94 162.279 208.249 162.419C208.567 162.438 208.719 162.883 208.889 163.173C208.038 163.734 202.505 166.495 201.44 166.913Z" fill="#88AE89"/>
<path d="M195.778 156.717C197.727 155.74 198.847 157.248 199.982 158.725C198.389 160.006 198.716 158.623 197.088 159.184C196.106 160.546 197.08 162.578 196.41 164.235C196.379 162.62 196.601 157.844 195.778 156.717Z" fill="#88AE89"/>
<path d="M174.709 150.829C176.328 150.565 177.909 150.156 179.422 149.518C179.536 149.469 180.168 148.555 180.384 148.333L180.793 148.47L180.773 151.033C180.905 153.342 181.319 154.261 183.769 154.948C182.721 155.307 181.234 156.794 180.83 156.963C180.154 158.658 180.667 164.949 180.537 167.12C180.234 166.009 180.497 165.063 179.895 163.949C179.093 163.66 176.087 164.756 174.999 165.07L174.727 164.894C176.019 163.938 177.753 164.764 179.881 162.077L179.792 161.915C178.129 162.101 176.407 163.8 174.466 164.511L174.2 164.207L172.709 164.647C171.625 165.084 164.262 161.142 164.133 159.779C164.072 159.17 164.089 158.532 164.088 157.917C164.119 156.725 164.067 155.236 163.882 154.061C164.265 153.472 165.041 153.132 165.701 152.514C167.328 152.133 168.906 151.089 170.344 150.306C171.529 149.838 172.106 149.343 173.269 150.066C173.847 150.445 174.098 150.56 174.709 150.829Z" fill="#E2CE92"/>
<path d="M174.709 150.829C176.328 150.565 177.91 150.156 179.422 149.518C179.536 149.469 180.169 148.555 180.385 148.333L180.793 148.47L180.774 151.033C180.905 153.342 181.32 154.261 183.769 154.948C182.721 155.307 181.234 156.794 180.83 156.963C180.155 158.658 180.668 164.949 180.537 167.12C180.234 166.009 180.497 165.063 179.895 163.949C179.093 163.66 176.087 164.756 174.999 165.07L174.727 164.894C176.019 163.938 177.753 164.764 179.881 162.077L179.792 161.915C178.13 162.101 176.407 163.8 174.466 164.511L174.201 164.207L172.709 164.647L172.298 164.476C172.031 163.705 172.171 160.159 172.04 158.915L172.018 158.711C172.878 156.655 177.615 155.484 179.871 153.817C179.333 153.046 176.822 151.965 175.814 151.451L174.709 150.829Z" fill="#D4A85E"/>
<path d="M174.709 150.829C176.328 150.565 177.909 150.156 179.422 149.518C179.536 149.469 180.168 148.555 180.384 148.333L180.793 148.47L180.773 151.033C180.905 153.342 181.319 154.261 183.769 154.948C182.721 155.307 181.234 156.794 180.83 156.963C180.154 158.658 180.667 164.949 180.537 167.12C180.234 166.009 180.497 165.063 179.895 163.949C179.093 163.66 176.087 164.756 174.999 165.07L174.727 164.894C176.019 163.938 177.753 164.764 179.881 162.077L179.792 161.915C178.129 162.101 176.407 163.8 174.466 164.511L174.2 164.207C174.484 163.886 176.071 163.346 176.833 162.702C178.246 162.061 179.929 161.671 180.065 160.018C179.947 159.291 179.961 155.165 179.87 153.817C179.332 153.046 176.822 151.965 175.813 151.451L174.709 150.829Z" fill="#D8D2C9"/>
<path d="M174.709 150.829C176.328 150.565 177.909 150.156 179.422 149.518C179.536 149.469 180.169 148.555 180.385 148.333L180.793 148.47L180.773 151.033L180.287 149.403L180.107 149.484L179.787 151.366C177.996 151.176 177.604 151.104 175.814 151.451L174.709 150.829Z" fill="#CCCAC4"/>
<path d="M180.065 160.018C179.929 161.671 178.246 162.061 176.833 162.702L176.469 162.539L176.519 162.159C177.004 161.231 179.07 160.442 180.065 160.018Z" fill="#B8934D"/>
<path d="M164.305 154.175C165.575 154.81 171.537 158.582 172.017 158.711L172.04 158.915C172.17 160.159 172.03 163.705 172.298 164.475L172.708 164.647C171.624 165.084 164.262 161.142 164.133 159.779C164.482 158.622 164.33 155.547 164.305 154.175Z" fill="#E2CE92"/>
<path d="M193.186 142.567L192.985 143.371C193.264 144.681 193.325 145.072 193.308 146.406C193.34 147.562 193.615 149.468 192.776 150.313C193.201 151.054 193.054 153.991 193.058 155.064C193.852 155.514 195.008 156.079 195.575 156.746C193.368 158.46 188.887 160.258 188.053 161.189C187.238 160.928 181.7 157.529 180.83 156.963C181.234 156.794 182.721 155.307 183.769 154.948C181.32 154.261 180.905 153.342 180.773 151.033L180.793 148.47L181.007 148.005L180.983 147.825C182.637 146.913 184.036 146.158 185.749 145.371C187.283 144.685 187.843 144.331 189.533 144.118C190.745 144.209 192.413 143.555 193.186 142.567Z" fill="#A5CCB7"/>
<path d="M192.776 150.313C193.201 151.054 193.054 153.991 193.058 155.064C193.851 155.514 195.008 156.079 195.575 156.746C193.368 158.46 188.886 160.258 188.053 161.189C187.238 160.928 181.7 157.529 180.83 156.963C181.234 156.794 182.721 155.307 183.769 154.948C185.56 154.341 186.681 153.182 188.717 152.851L188.69 152.547C188.953 152.35 191.991 150.79 192.776 150.313Z" fill="#E9BAAB"/>
<path d="M192.775 150.313C193.2 151.054 193.054 153.991 193.058 155.064C191.854 154.671 189.912 153.507 188.717 152.851L188.689 152.547C188.952 152.35 191.991 150.79 192.775 150.313Z" fill="#88AE89"/>
<path d="M181.007 148.005C182.536 148.956 187.307 152.048 188.69 152.547L188.717 152.851C186.681 153.182 185.56 154.341 183.769 154.948C181.32 154.261 180.905 153.342 180.773 151.033L180.793 148.47L181.007 148.005Z" fill="#88AE89"/>
<path d="M193.186 142.567L192.985 143.371C193.264 144.681 193.325 145.072 193.308 146.406C192.078 145.943 191.584 144.731 189.532 144.118C190.745 144.209 192.413 143.555 193.186 142.567Z" fill="#CCCAC4"/>
<path d="M180.83 156.963C181.7 157.529 187.238 160.928 188.052 161.189C188.237 163.507 188.458 171.928 187.707 173.728C187.059 173.093 181.587 170.331 180.513 169.786L180.536 167.12C180.667 164.949 180.154 158.658 180.83 156.963Z" fill="#E2AC90"/>
<path d="M196.351 168.863C196.328 169.561 196.454 169.798 195.932 170.241C194.622 171.351 192.599 171.919 191.098 172.675L190.797 171.777C191.517 170.418 194.865 169.162 196.351 168.863Z" fill="#AD6549"/>
<path d="M91.7621 37.5412C93.0108 38.2546 94.0577 38.8092 94.8673 40.0044C96.3139 42.137 98.1528 48.2349 99.0708 50.9883C97.2337 51.0119 96.2273 50.9598 94.4008 50.7545C93.8932 52.3525 93.3572 53.7519 92.4274 55.1693C89.9397 55.2882 85.2904 55.2152 84.5309 51.9707C84.4719 51.7193 84.9088 50.6044 85.0268 50.3001C84.8253 50.0783 82.2418 48.2561 81.6152 47.7446C83.2233 45.384 89.2853 38.945 91.7621 37.5412Z" fill="#D1B26E"/>
<path d="M91.7621 37.5412C93.0108 38.2546 94.0577 38.8092 94.8673 40.0044C93.5986 42.1399 89.7221 45.7459 87.8741 47.7079C87.1335 48.4941 85.3443 49.6147 85.0268 50.3001C84.8253 50.0783 82.2418 48.2561 81.6152 47.7446C83.2233 45.384 89.2853 38.945 91.7621 37.5412Z" fill="#E2CE92"/>
<path d="M240.684 152.422C240.874 151.961 242.421 151.362 242.472 151.054C242.564 150.493 242.41 150.111 242.806 149.363L243.136 149.353L243.465 149.689C243.759 150.534 243.664 151.502 243.635 152.406C243.835 153.17 243.955 153.192 243.508 153.904C241.758 155.479 233.8 159.174 231.319 160.414L216.595 167.951L201.282 175.803C197.17 177.94 192.187 181.348 187.422 181.102C186.832 181.071 186.336 180.9 185.798 180.86C186.963 180.849 187.059 180.79 187.865 180.032L187.767 179.781C188.499 179.78 188.225 179.86 188.831 179.515L188.985 179.105C189.61 178.827 189.736 178.767 190.277 178.365L190.397 178.274C200.122 174.116 209.448 168.621 219.048 163.578C223.874 161.043 233.918 156.395 238.859 153.232C239.021 153.128 238.75 152.568 238.669 152.33L238.727 152.066C239.05 152.355 239.264 152.534 239.611 152.79L240.684 152.422Z" fill="#C2BAB3"/>
<path d="M188.831 179.515C191.384 180.923 195.505 178.054 197.949 176.787L209.623 170.634C217.288 166.61 225.265 162.636 233.014 158.789C234.951 157.828 241.433 154.093 243.138 153.531L243.508 153.904C241.758 155.48 233.8 159.174 231.319 160.414L216.595 167.951L201.282 175.803C197.17 177.94 192.187 181.348 187.422 181.102C186.832 181.071 186.336 180.9 185.798 180.86C186.963 180.849 187.059 180.79 187.865 180.033L187.767 179.781C188.499 179.78 188.225 179.86 188.831 179.515Z" fill="#AE9586"/>
<path d="M240.685 152.422C240.874 151.961 242.421 151.362 242.473 151.054C242.564 150.493 242.41 150.111 242.806 149.363L243.136 149.353L243.466 149.689C243.759 150.534 243.664 151.502 243.635 152.406L243.267 151.25L242.927 151.135C242.228 151.801 241.687 152.396 240.685 152.422Z" fill="#CCCAC4"/>
<path d="M199.133 139.219C201.95 137.817 200.775 138.663 203.401 139.643C204.369 140.249 204.618 140.428 205.71 140.706C206.677 141.248 207.598 141.764 208.591 142.262L208.681 142.518C207.382 143.137 201.52 146.001 200.802 146.835C199.412 146.995 195.423 143.276 192.984 143.371L193.186 142.567C193.492 142.027 194.204 141.937 194.694 140.931C195.796 140.74 198.22 139.901 199.133 139.219Z" fill="#BFE2D3"/>
<path d="M149.933 129.026C152.995 127.096 154.733 126.15 158.167 124.734C159.357 125.391 162.797 127.36 163.919 127.575L164.445 127.798C164.94 128.136 165.247 128.298 165.58 128.811L165.571 129.111C162.555 130.648 160.4 131.694 157.497 133.424C155.15 131.898 152.465 130.192 149.933 129.026Z" fill="#BFE2D3"/>
<path d="M141.873 157.015C141.228 156.39 141.135 155.386 141.085 154.481L141.245 154.218C144.976 156.445 166.665 167.549 167.764 170.036C166.36 170.012 166.022 169.368 164.705 169.215L164.282 169.741C159.281 166.672 153.323 164.032 148.225 160.954C145.986 159.603 143.959 158.724 141.873 157.015Z" fill="#D8D2C9"/>
<path d="M141.873 157.015C142.072 156.992 142.314 156.964 142.602 156.93C144.369 157.89 146.643 159.193 148.331 160.138L164.704 169.215L164.282 169.741C159.281 166.672 153.322 164.032 148.224 160.954C145.986 159.603 143.958 158.724 141.873 157.015Z" fill="#AE9586"/>
<path d="M223.582 171.826C222.28 171.444 221.259 171.356 220.76 169.949C220.718 167.426 225.789 165.379 227.915 165.185C229.153 165.072 230.774 166.824 231.634 167.688C231.672 168.03 231.818 168.539 231.567 168.772C230.091 170.144 225.426 172.619 223.582 171.826Z" fill="#B6C8E6"/>
<path d="M223.582 171.826C225.484 170.669 230.42 169.071 231.633 167.688C231.671 168.03 231.818 168.539 231.566 168.772C230.09 170.144 225.426 172.619 223.582 171.826Z" fill="#8391B6"/>
<path d="M217.355 170.365C219.232 171.047 219.888 171.478 221.343 172.734C221.411 173.023 221.66 173.716 221.46 173.904C219.86 175.401 215.131 178.001 213.038 176.967C211.542 176.382 211.084 175.882 210.026 174.744C211.872 172.19 214.41 171.185 217.355 170.365Z" fill="#E9BAAB"/>
<path d="M213.037 176.967C214.171 176.215 219.744 173.571 221.343 172.734C221.411 173.023 221.66 173.716 221.459 173.904C219.859 175.401 215.13 178.001 213.037 176.967Z" fill="#CC8D72"/>
<path d="M164.705 169.215C166.022 169.368 166.36 170.012 167.764 170.036C171.04 171.92 174.339 173.765 177.66 175.569C178.546 176.059 181.294 177.679 182.093 178.007C182.851 178.086 182.883 178.134 183.532 178.256C185.57 178.64 188.335 178.266 190.398 178.274L190.277 178.365C189.737 178.767 189.61 178.827 188.985 179.105L188.831 179.516C188.226 179.86 188.499 179.78 187.767 179.781L187.865 180.033C187.059 180.79 186.963 180.849 185.798 180.86C183.718 180.68 166.925 171.303 164.282 169.741L164.705 169.215Z" fill="#C2BAB3"/>
<path d="M182.093 178.007C182.851 178.086 182.883 178.134 183.531 178.256C185.57 178.64 188.335 178.266 190.397 178.274L190.277 178.365C189.736 178.767 189.61 178.827 188.985 179.105L188.831 179.515C188.225 179.86 188.499 179.78 187.767 179.781C184.942 179.864 184.497 179.683 182.093 178.007Z" fill="#D8D2C9"/>
</svg>
